<?xml version="1.0" encoding="UTF-8" standalone="no"?>
<svg width="30px" height="23px" viewBox="0 0 30 23" version="1.1" xmlns="http://www.w3.org/2000/svg" xmlns:xlink="http://www.w3.org/1999/xlink" xmlns:sketch="http://www.bohemiancoding.com/sketch/ns">
    <!-- Generator: Sketch 3.4.3 (16044) - http://www.bohemiancoding.com/sketch -->
    <title>Page 1</title>
    <desc>Created with Sketch.</desc>
    <defs>
        <path id="path-1" d="M0,0.403548387 L29.8045161,0.403548387 L29.8045161,23.7096774 L0,23.7096774 L0,0.403548387 Z"></path>
        <path id="path-3" d="M0,0.403548387 L29.8045161,0.403548387 L29.8045161,23.7096774 L0,23.7096774"></path>
        <path id="path-5" d="M0,0.403548387 L29.8045161,0.403548387 L29.8045161,23.7096774 L0,23.7096774 L0,0.403548387 Z"></path>
        <path id="path-7" d="M0,0.403548387 L29.8045161,0.403548387 L29.8045161,23.7096774 L0,23.7096774"></path>
        <path id="path-9" d="M0,0.403548387 L29.8045161,0.403548387 L29.8045161,23.7096774 L0,23.7096774"></path>
    </defs>
    <g id="Welcome" stroke="none" stroke-width="1" fill="none" fill-rule="evenodd" sketch:type="MSPage">
        <g id="Onclick_Photo" sketch:type="MSArtboardGroup" transform="translate(-705.000000, -956.000000)">
            <g id="Page-1" sketch:type="MSLayerGroup" transform="translate(705.000000, 955.000000)">
                <g id="Group-3">
                    <mask id="mask-2" sketch:name="Clip 2" fill="white">
                        <use xlink:href="#path-1"></use>
                    </mask>
                    <g id="Clip-2"></g>
                    <path d="M29.688,2.07295161 C29.5331613,1.93214516 29.1450968,1.66214516 29.1847742,1.76617742 L29.8046129,2.27472581 L29.688,2.07295161 Z" id="Fill-1" fill="#F9BBA2" sketch:type="MSShapeGroup" mask="url(#mask-2)"></path>
                </g>
                <path d="M28.2521613,1.52191935 C28.5226452,1.80885484 29.0239355,2.27869355 29.6442581,2.67740323 C29.0655484,2.16498387 29.3345806,2.34159677 28.6411935,1.73820968 C28.6015161,1.63417742 28.9107097,1.80498387 29.142,1.9878871 C28.9890968,1.84901613 29.3394194,2.01643548 28.9532903,1.69224194 C28.4074839,1.38885484 28.328129,1.45417742 28.6789355,1.84079032 C28.5240968,1.75466129 28.3682903,1.61337097 28.2521613,1.52191935" id="Fill-4" fill="#F9BBA2" sketch:type="MSShapeGroup"></path>
                <path id="Fill-6" fill="#F9BBA2" sketch:type="MSShapeGroup" d="M23.7506613,5.53916129 L23.8498548,5.56480645 C23.8014677,5.54206452 23.7700161,5.53529032 23.7506613,5.53916129"></path>
                <path id="Fill-8" fill="#F9BBA2" sketch:type="MSShapeGroup" d="M21.231,8.22609677 C21.2314839,8.19222581 21.174871,8.1356129 21.1172903,8.09158065 C21.1443871,8.14383871 21.171,8.18980645 21.231,8.22609677"></path>
                <path id="Fill-10" fill="#F9BBA2" sketch:type="MSShapeGroup" d="M20.1500323,8.20669355 C20.1785806,8.21104839 20.1940645,8.20862903 20.2158387,8.2091129 C20.1480968,8.17669355 20.1064839,8.1641129 20.1500323,8.20669355"></path>
                <path id="Fill-12" fill="#F9BBA2" sketch:type="MSShapeGroup" d="M23.7506613,5.53916129 L23.4898548,5.469 C23.6964677,5.62916129 23.6756613,5.54351613 23.7506613,5.53916129"></path>
                <path id="Fill-14" fill="#F9BBA2" sketch:type="MSShapeGroup" d="M29.3267419,3.32167742 C29.3073871,3.282 29.2575484,3.22441935 29.1883548,3.15377419 C29.2062581,3.18812903 29.2202903,3.2186129 29.2270645,3.24474194 C29.2614194,3.27087097 29.2909355,3.29409677 29.3267419,3.32167742"></path>
                <path id="Fill-16" fill="#F9BBA2" sketch:type="MSShapeGroup" d="M24.1823226,3.85558065 L24.1987742,3.83090323 C24.1271613,3.76945161 24.0439355,3.69783871 23.9515161,3.61848387 L24.1823226,3.85558065 Z"></path>
                <path d="M24.8159516,2.78579032 C24.7757903,2.79062903 25.3177258,3.20143548 25.5509516,3.38579032 C25.3346613,3.20724194 25.2393387,3.11143548 25.2112742,3.06062903 C25.1072419,2.98369355 24.9804677,2.89514516 24.8159516,2.78579032" id="Fill-18" fill="#F9BBA2" sketch:type="MSShapeGroup"></path>
                <path id="Fill-20" fill="#F9BBA2" sketch:type="MSShapeGroup" d="M26.9415484,1.91312903 L26.8863871,1.82941935 C26.9047742,1.85409677 26.9178387,1.88264516 26.9415484,1.91312903"></path>
                <path id="Fill-22" fill="#F9BBA2" sketch:type="MSShapeGroup" d="M23.5393548,4.48214516 C23.4566129,4.42408065 23.3820968,4.37472581 23.3366129,4.34714516 C23.4058065,4.39795161 23.4735484,4.44246774 23.5393548,4.48214516"></path>
                <path id="Fill-24" fill="#F9BBA2" sketch:type="MSShapeGroup" d="M0.523064516,7.72166129 C0.561774194,7.69214516 0.585967742,7.67375806 0.618870968,7.6481129 C0.560322581,7.68391935 0.52016129,7.7115 0.523064516,7.72166129"></path>
                <path id="Fill-26" fill="#F9BBA2" sketch:type="MSShapeGroup" d="M2.33433871,4.53174194 L2.37546774,4.52593548 C2.47998387,4.44996774 2.58256452,4.37593548 2.68417742,4.30190323 L2.33433871,4.53174194 Z"></path>
                <path id="Fill-28" fill="#F9BBA2" sketch:type="MSShapeGroup" d="M18.7712903,8.61164516 C18.7775806,8.61358065 18.7790323,8.61358065 18.7848387,8.61551613 C18.7403226,8.54535484 18.7412903,8.56712903 18.7712903,8.61164516"></path>
                <path id="Fill-30" fill="#F9BBA2" sketch:type="MSShapeGroup" d="M14.8638871,14.7555968 C14.984371,15.7035 14.8919516,15.857371 15.0434032,16.9262419 C15.0313065,16.7394677 15.0051774,16.3407581 14.9780806,15.9304355 C14.946629,15.4925323 14.9055,15.0705968 14.8638871,14.7555968"></path>
                <path id="Fill-32" fill="#F9BBA2" sketch:type="MSShapeGroup" d="M29.2358226,3.29462903 C29.2319516,3.31253226 29.226629,3.32995161 29.2111452,3.33914516 C29.2430806,3.33430645 29.249371,3.31979032 29.2358226,3.29462903"></path>
                <path id="Fill-34" fill="#F9BBA2" sketch:type="MSShapeGroup" d="M15.0432581,16.9261935 L15.0442258,16.9353871 L15.0611613,17.0389355 C15.0539032,16.9929677 15.0495484,16.9653871 15.0432581,16.9261935"></path>
                <path id="Fill-36" fill="#F9BBA2" sketch:type="MSShapeGroup" d="M17.541629,10.9755484 C17.6413065,11.0423226 17.7206613,11.0873226 17.7971129,11.1299032 C17.7405,11.0897419 17.6684032,11.0442581 17.541629,10.9755484"></path>
                <path id="Fill-38" fill="#F9BBA2" sketch:type="MSShapeGroup" d="M19.4827742,9.96779032 L19.3806774,9.95327419 C19.442129,9.97408065 19.4682581,9.97408065 19.4827742,9.96779032"></path>
                <path id="Fill-40" fill="#F9BBA2" sketch:type="MSShapeGroup" d="M17.7119032,12.3645968 C17.6543226,12.3549194 17.5735161,12.3065323 17.6252903,12.3897581 C17.6538387,12.4052419 17.675129,12.4168548 17.6988387,12.4299194 C17.6315806,12.3641129 17.6069032,12.3249194 17.7119032,12.3645968"></path>
                <path id="Fill-42" fill="#F9BBA2" sketch:type="MSShapeGroup" d="M17.0874677,13.2212903 C17.1305323,13.2440323 17.1687581,13.2648387 17.2094032,13.2866129 C17.2065,13.271129 17.2031129,13.2537097 17.1997258,13.2377419 L17.0874677,13.2212903 Z"></path>
                <path id="Fill-44" fill="#F9BBA2" sketch:type="MSShapeGroup" d="M2.84187097,10.1221452 C2.97493548,9.98230645 3.12880645,9.83714516 3.28316129,9.69585484 C2.91977419,10.0152097 2.68509677,10.0002097 2.84187097,10.1221452"></path>
                <path id="Fill-46" fill="#F9BBA2" sketch:type="MSShapeGroup" d="M29.018371,3.09575806 C29.1528871,3.20220968 29.2157903,3.25979032 29.235629,3.29462903 C29.2365968,3.2801129 29.2327258,3.26269355 29.2274032,3.24479032 C29.1475645,3.18237097 29.0711129,3.12527419 29.018371,3.09575806"></path>
                <path id="Fill-48" fill="#F9BBA2" sketch:type="MSShapeGroup" d="M22.0095968,15.5761935 L21.8291129,15.6526452 C21.9094355,15.653129 21.9737903,15.6245806 22.0095968,15.5761935"></path>
                <path id="Fill-50" fill="#F9BBA2" sketch:type="MSShapeGroup" d="M8.10309677,15.9112258 L8.01648387,15.9388065 C8.016,15.9605806 8.04019355,15.9571935 8.10309677,15.9112258"></path>
                <path id="Fill-52" fill="#F9BBA2" sketch:type="MSShapeGroup" d="M21.6138871,16.1146452 C21.4029194,15.9970645 21.2717903,15.9399677 21.1788871,15.912871 C21.2175968,15.9496452 21.2480806,15.9820645 21.3085645,16.0323871 L21.6138871,16.1146452 Z"></path>
                <path id="Fill-54" fill="#F9BBA2" sketch:type="MSShapeGroup" d="M3.28858065,9.69087097 L3.28325806,9.69570968 L3.28858065,9.69087097 Z"></path>
                <g id="Group-58">
                    <mask id="mask-4" sketch:name="Clip 57" fill="white">
                        <use xlink:href="#path-3"></use>
                    </mask>
                    <g id="Clip-57"></g>
                    <path d="M8.70575806,8.12467742 C8.81027419,8.09854839 8.71930645,8.19822581 8.61817742,8.29403226 C8.59446774,8.28435484 8.55962903,8.27903226 8.50108065,8.28241935 C8.48124194,8.29741935 8.45656452,8.31580645 8.43430645,8.33225806 C8.53591935,8.25145161 8.63172581,8.17596774 8.70575806,8.12467742 M5.57317742,11.7077419 C5.56737097,11.6612903 5.53882258,11.6216129 5.50156452,11.5858065 C5.6718871,11.4232258 5.86204839,11.2741935 5.87414516,11.3066129 C5.74398387,11.396129 5.69124194,11.5417742 5.57317742,11.7077419 M5.35398387,11.4730645 C5.34914516,11.4774194 5.34575806,11.4803226 5.34382258,11.4822581 C5.31043548,11.4677419 5.2818871,11.4551613 5.2635,11.4474194 C5.28140323,11.4537097 5.30656452,11.4619355 5.35398387,11.4730645 M1.31269355,9.81822581 C1.40124194,9.96096774 2.04382258,9.33241935 2.46624194,9.03870968 C2.78704839,9.0333871 2.01043548,9.5216129 1.69640323,9.86080645 C1.95914516,9.80903226 2.6568871,9.36677419 2.68737097,9.45967742 C2.57704839,9.55741935 2.54656452,9.60483871 2.39027419,9.705 C3.02414516,9.35806452 2.66124194,9.98322581 3.44753226,9.53564516 C3.39333871,9.59419355 3.33866129,9.64596774 3.28833871,9.69096774 C3.61930645,9.38854839 3.96914516,9.09774194 4.22317742,8.89645161 C4.28075806,8.9433871 4.74430645,8.64290323 4.31027419,9.03483871 C4.29527419,8.98935484 4.11091935,9.13596774 3.95656452,9.23516129 L4.20091935,9.13354839 C3.5951129,9.72 3.91059677,9.23709677 3.42962903,9.63048387 C3.73543548,9.57532258 4.38237097,9.2666129 4.27253226,9.50516129 C3.6551129,10.0470968 3.88785484,9.47516129 3.42237097,10.0577419 L3.55156452,9.72048387 C2.63608065,10.65 3.55253226,9.57870968 2.56059677,10.5570968 C2.52769355,10.8914516 3.05317742,10.4941935 3.01930645,10.8285484 C3.40398387,10.5779032 3.52737097,10.383871 3.91253226,10.1322581 C4.75446774,9.86129032 2.49479032,11.6579032 3.49204839,11.1454839 C3.95269355,10.8425806 4.76317742,10.1917742 4.45398387,10.6790323 L3.70543548,11.2325806 C3.78333871,11.4667742 4.80962903,10.4695161 4.4868871,11.0545161 C4.18156452,11.2587097 4.13608065,11.1174194 4.07414516,11.2151613 C3.61543548,11.8074194 4.54737097,10.9572581 4.62382258,11.0472581 L4.01317742,11.5993548 C4.2701129,11.7009677 4.89479032,11.5170968 5.18172581,11.6216129 C4.98720968,11.7706452 4.76220968,11.9037097 4.61269355,12.116129 C5.14640323,12.1030645 5.01333871,12.7258065 4.86527419,13.2977419 L5.47979032,12.9217742 C5.49333871,12.9483871 5.27559677,13.1748387 5.15172581,13.2425806 C5.03462903,13.5174194 5.49333871,12.9483871 5.74204839,12.81 C5.82720968,12.8308065 5.50108065,13.1520968 5.31043548,13.2595161 C5.91237097,13.0287097 6.70446774,12.87 6.29753226,13.5556452 L6.11027419,13.6625806 C6.02027419,13.9935484 7.32769355,12.84 6.95075806,13.4109677 L6.83608065,13.4714516 C6.87866129,13.9737097 7.65430645,13.8546774 7.0751129,14.8083871 C7.8618871,14.1546774 7.01317742,15.4098387 8.0718871,14.4532258 C7.71285484,15.1025806 7.48253226,15.2293548 7.35914516,15.791129 C7.37075806,15.8995161 8.09366129,15.2719355 8.27414516,15.2462903 L7.73608065,15.7620968 L8.40091935,15.3275806 L7.80914516,15.9991935 L8.01672581,15.9391935 C8.02059677,15.8796774 8.19962903,15.6469355 8.35930645,15.5022581 C8.71059677,15.3803226 8.24753226,16.1346774 7.97608065,16.4032258 L8.68640323,16.23 C8.46527419,16.4332258 8.34866129,16.4603226 8.1768871,16.5580645 C8.86059677,16.1704839 7.63833871,17.1309677 8.26495161,16.7758065 C8.36946774,16.6398387 8.59253226,16.4753226 8.70333871,16.3732258 C8.44301613,16.7520968 8.58285484,16.9035484 8.82527419,16.8783871 L8.43817742,17.2175806 C8.53882258,17.5054839 9.02269355,17.4570968 9.23269355,17.6825806 C9.32462903,17.4343548 9.97398387,16.8241935 10.097371,16.8270968 L9.56559677,17.4087097 C9.95027419,17.1058065 9.70979032,17.1324194 10.2149516,16.7951613 C10.2309194,16.9403226 9.63575806,17.4837097 9.40785484,17.6182258 L9.69962903,17.523871 C9.53898387,17.6966129 9.42817742,17.7609677 9.21043548,17.9670968 C9.59559677,17.6612903 8.82382258,18.7001613 9.48285484,18.1548387 L9.32317742,18.3270968 C9.38269355,18.3880645 9.42382258,18.4059677 9.50946774,18.4548387 C9.60720968,18.5158065 9.70301613,18.5612903 9.79591935,18.6024194 C9.98220968,18.6837097 10.1578548,18.75 10.3310806,18.888871 C10.7515645,18.3483871 10.7810806,18.5869355 11.1826935,18.21 C11.2499516,18.5796774 11.2214032,19.2841935 11.5281774,19.4927419 C11.8717258,19.3504839 11.8475323,19.0020968 12.1078548,18.6919355 C11.8388226,19.2890323 12.1291452,19.4816129 11.8039839,19.7864516 C12.1668871,19.9877419 12.2859194,20.07 12.827371,19.8866129 C12.8626935,19.5735484 12.8559194,19.4177419 12.9439839,19.211129 C13.0359194,19.1564516 13.0088226,19.6243548 12.9154355,19.9432258 L12.8786613,19.9959677 C13.2212419,19.6790323 13.3189839,20.3835484 13.5038226,21.1035484 C13.6751129,21.8114516 13.9228548,22.5266129 14.1652742,21.873871 L14.1391452,21.9362903 C14.1497903,21.9459677 14.5572097,21.4064516 14.5465645,21.3967742 C14.7105968,21.6914516 14.4314032,21.9222581 14.5485,22.5474194 C14.7715645,22.0519355 14.9133387,22.2319355 15.0725323,22.4859677 C15.2249516,22.7341935 15.3909194,23.0530645 15.5157581,22.7008065 C15.5457581,22.8827419 15.5757581,23.0448387 15.6062419,23.1895161 C15.6222097,23.2596774 15.6376935,23.3274194 15.6526935,23.3941935 C15.6672097,23.4459677 15.6802742,23.4774194 15.6938226,23.5127419 C15.7480161,23.6453226 15.8022097,23.7033871 15.8554355,23.7091935 C15.9618871,23.7208065 16.0625323,23.5272581 16.1578548,23.3066129 C16.3533387,22.8595161 16.5052742,22.331129 16.8251129,22.8774194 L16.6876935,22.3446774 C16.6460806,21.6987097 16.8507581,22.5377419 16.9426935,22.5808065 C16.8338226,22.1695161 16.7438226,22.2009677 16.7230161,21.8404839 C16.9625323,21.0929032 17.3138226,20.8882258 17.7744677,20.7329032 C18.2288226,20.591129 18.789629,20.4624194 19.2802742,20.1270968 C19.6344677,19.8401613 18.0768871,18.0033871 19.0054355,18.4751613 C19.0054355,18.4751613 19.1128548,18.6667742 19.2197903,18.8583871 C19.3243065,19.0533871 19.4288226,19.2483871 19.4288226,19.2483871 C19.3833387,18.5003226 19.6218871,18.1901613 19.8957581,17.8620968 C20.0307581,17.7009677 20.1705968,17.5408065 20.2654355,17.3501613 C20.2867258,17.3056452 20.3152742,17.2456452 20.3215645,17.208871 C20.3254355,17.1754839 20.3254355,17.1396774 20.3215645,17.1009677 C20.3133387,17.0230645 20.2881774,16.9330645 20.2402742,16.8270968 C20.372371,16.9582258 20.5654355,17.1004839 20.5364032,17.1348387 C21.0614032,17.4009677 20.7705968,16.8643548 20.3893065,16.5822581 C20.4749516,16.5570968 20.7444677,16.8227419 20.964629,16.9301613 C21.2980161,17.055 20.5112419,16.2958065 21.0072097,16.5962903 C21.0880161,16.6451613 21.1426935,16.7298387 21.1683387,16.7704839 C20.9791452,16.5532258 21.4001129,16.5764516 20.8243065,16.2285484 C21.1833387,16.2798387 20.7778548,15.7877419 21.1789839,15.9125806 C20.6278548,15.3972581 21.6430161,15.8898387 20.8064032,15.24 C21.6807581,15.8980645 21.6952742,15.5201613 21.3449516,15.1287097 C21.5897903,15.3537097 21.6764032,15.2554839 22.0209194,15.5608065 C22.0814032,15.4524194 21.9851129,15.2409677 21.5191452,14.925 C22.7089839,15.5172581 20.9409194,13.9320968 22.3688226,14.8224194 C22.112371,14.1783871 21.9928548,13.668871 21.9817258,13.2508065 C22.8541452,13.9069355 21.8530161,13.6093548 22.7849516,14.2766129 C22.6083387,13.7579032 21.9604355,13.0577419 22.3567258,12.9633871 C22.5241452,12.9866129 22.7109194,13.2803226 22.8454355,13.4124194 C22.6683387,12.8941935 23.2838226,12.9837097 22.9697903,12.4074194 C23.0510806,12.4679032 23.1226935,12.5579032 23.1730161,12.6304839 C23.1764032,12.5646774 23.3772097,12.6217742 22.9741452,12.3333871 L23.0510806,12.4562903 C22.4191452,12.1006452 21.9681774,11.3903226 21.6676935,11.1570968 C22.7578548,12.0740323 22.1186613,11.1469355 23.4783387,12.3295161 C23.424629,12.2453226 23.2620484,12.0696774 22.9891452,11.8795161 C23.0994677,11.8940323 23.2654355,11.9951613 23.537371,12.2622581 C23.4362419,11.943871 22.9697903,11.6879032 23.0844677,11.5509677 C23.2780161,11.6937097 23.3312419,11.7779032 23.5480161,11.9598387 C23.2238226,11.6095161 22.9001129,11.2591935 23.1526935,11.2582258 C23.2639839,11.351129 23.4265645,11.448871 23.3970484,11.4827419 C23.4914032,11.2316129 22.6528548,10.3891935 23.1851129,10.4283871 C23.9767258,11.1140323 23.5194677,10.5541935 24.2559194,11.0767742 L24.1291452,10.7946774 L23.739629,10.5841935 C23.8315645,10.4859677 23.3709194,10.001129 23.6772097,10.083871 L23.9186613,10.383871 L23.9288226,10.0809677 L23.5688226,9.99193548 C23.2736613,9.60774194 22.6393065,9.32709677 22.9470484,9.33290323 C22.9993065,9.41612903 23.0355968,9.23177419 23.5054355,9.49064516 L23.507371,9.49258065 C23.3143065,9.26903226 23.1105968,9.03435484 23.3501129,9.08806452 C23.5978548,9.23806452 24.1426935,9.69629032 24.3072097,9.79645161 C23.7376935,9.2966129 24.3241452,9.42048387 23.724629,8.87758065 C23.8605968,9.0116129 24.2414032,9.29322581 24.324629,9.34306452 L23.8630161,8.93612903 C24.0580161,9.00241935 24.1397903,9.05129032 24.4383387,9.28306452 C24.6391452,9.19983871 23.4802742,8.65258065 24.0091452,8.76677419 C24.0386613,8.81032258 24.1170484,8.85774194 24.1712419,8.94193548 C24.5099516,8.91580645 24.1112419,8.36612903 24.4751129,8.38064516 C25.2435,8.87032258 24.5491452,8.65596774 25.2076935,9.05419355 C25.2493065,8.71983871 24.6904355,7.91854839 25.0315645,7.81596774 L24.9193065,7.79951613 C23.9085,7.00790323 25.5551129,8.00370968 25.1530161,7.53 C25.2091452,7.61467742 25.6997903,7.98870968 25.5904355,7.89677419 C25.8715645,7.86145161 25.5720484,7.38870968 25.4210806,6.9116129 L25.6654355,7.1366129 C25.9707581,7.2183871 25.9814032,6.9933871 26.1754355,6.98225806 C25.9320484,6.75774194 26.0172097,6.73209677 25.6054355,6.4833871 C27.3449516,7.2866129 25.2265645,5.29935484 26.6878548,5.95209677 C26.6665645,5.98693548 26.8630161,6.20080645 26.882371,6.17516129 L26.8093065,5.76290323 C26.3452742,5.44983871 26.5141452,5.59258065 26.1275323,5.38403226 C25.8822097,5.15806452 25.7235,4.94032258 25.7655968,4.88274194 C25.9872097,5.20693548 26.4899516,5.41354839 26.7744677,5.55290323 C26.6307581,5.45903226 26.4899516,5.33177419 26.3467258,5.23209677 C27.2375323,5.69951613 25.4554355,4.54596774 26.117371,4.77629032 L26.3472097,4.95919355 C26.2722097,4.80822581 26.0017258,4.52080645 26.1183387,4.5033871 C26.6602742,4.85854839 26.3128548,4.74822581 26.7386613,5.06806452 C26.7778548,4.95145161 25.8880161,4.15645161 26.4701129,4.45306452 C26.5857581,4.59967742 26.5460806,4.65870968 26.6607581,4.80483871 C27.3405968,5.16145161 27.1935,5.0366129 27.3410806,5.03903226 L27.3222097,5.03564516 L27.7165645,5.07967742 L27.5205968,4.9983871 C26.2485,3.88258065 27.4489839,4.57645161 26.6752742,3.76354839 C27.4044677,4.53677419 27.1441452,4.14725806 27.7257581,4.59290323 C27.9193065,4.67274194 28.1486613,4.74629032 28.3020484,4.88564516 C27.8805968,4.46080645 28.7689839,5.03612903 28.1505968,4.41870968 C28.3431774,4.55322581 28.2280161,4.35193548 28.6930161,4.71967742 C28.6151129,4.51209677 28.3451129,4.49951613 28.1128548,4.31612903 C27.5733387,3.68854839 29.1599516,4.5416129 28.427371,3.67016129 C28.1980161,3.21435484 27.5820484,2.70870968 27.3899516,2.30129032 C27.737371,2.46629032 28.0475323,2.85774194 28.0475323,2.85774194 C28.3968871,2.96951613 28.397371,2.86064516 28.2444677,2.61145161 C28.397371,2.75177419 28.5512419,2.83645161 28.7844677,2.96612903 C28.787371,2.85822581 28.127371,2.40967742 28.4772097,2.52193548 C28.6770484,2.69370968 29.0012419,2.96370968 29.1880161,3.15387097 C29.0752742,2.94145161 28.7810806,2.59790323 28.6736613,2.385 C29.0215645,2.60516129 29.1376935,2.80693548 29.3312419,2.99612903 C29.2538226,2.78903226 29.2170484,2.52241935 28.7152742,2.10725806 L28.4820484,2.03225806 C28.4820484,1.97758065 28.9455968,2.34483871 29.0220484,2.4416129 C29.3718871,2.82725806 28.7515645,2.42854839 28.5570484,2.29306452 L28.4805968,2.1416129 C27.3188226,1.38580645 28.4772097,2.52193548 28.3204355,2.59887097 L27.5476935,1.95096774 L28.1268871,2.57322581 C27.8955968,2.445 27.4291452,2.13096774 27.3531774,1.98048387 C26.8867258,1.77532258 27.5835,2.27129032 27.0802742,2.01967742 C27.0043065,1.97709677 26.9680161,1.94467742 26.9414032,1.91322581 L27.1189839,2.17790323 C26.9612419,2.03564516 26.5359194,1.77193548 26.6926935,1.80435484 C26.109629,1.61709677 27.1151129,2.50403226 26.4570484,2.11112903 L26.4168871,2.06177419 C26.5310806,2.48032258 26.9970484,2.52 27.5757581,3.19645161 L26.0264032,2.22725806 L26.6060806,2.68596774 C26.5678548,2.69274194 26.4909194,2.70435484 26.2586613,2.52096774 C26.6051129,2.90370968 26.5281774,2.69709677 26.8770484,3.02806452 C26.2557581,2.73774194 26.9118871,3.51241935 25.9455968,2.83935484 C26.3699516,3.21096774 26.3709194,2.99274194 26.6007581,3.33919355 C25.5565645,2.62258065 26.6776935,3.60096774 26.1372097,3.35564516 C25.6330161,2.93854839 25.9804355,3.05032258 25.4375323,2.80306452 C26.2843065,3.51677419 25.1022097,2.85241935 25.2115645,3.06048387 C25.9165645,3.585 25.3736613,3.45870968 25.5067258,3.77129032 C25.2754355,3.58790323 24.9251129,3.74854839 24.5733387,3.69 L24.4572097,3.59903226 C25.1549516,4.15016129 24.9212419,4.18451613 24.9976935,4.39112903 C24.5714032,4.07177419 24.4160806,3.93048387 24.2631774,3.73693548 L24.1988226,3.83080645 C24.4126935,4.02096774 24.512371,4.13854839 24.5505968,4.25806452 L24.032371,3.84193548 C23.972371,3.98564516 24.4818871,4.55080645 24.0091452,4.44532258 C24.5022097,4.82080645 25.4907581,5.34193548 25.7022097,5.75274194 C25.4278548,5.56064516 24.9618871,5.22774194 24.8835,5.10290323 C24.9076935,5.14258065 25.0702742,5.31870968 24.9338226,5.26258065 L24.5288226,4.86241935 C24.2767258,4.78741935 24.8805968,5.17887097 24.7964032,5.205 C24.4122097,4.92048387 24.4905968,5.04532258 24.1910806,4.81258065 C24.1644677,4.77048387 24.3865645,4.87935484 24.2515645,4.74677419 C24.1354355,4.76032258 23.8494677,4.67032258 23.5393065,4.48209677 C23.762371,4.63741935 24.0575323,4.86290323 24.0730161,4.94709677 C24.0115645,5.08983871 23.5789839,4.64854839 23.3288226,4.57403226 C23.574629,4.8 23.2402742,4.67467742 23.8141452,5.09951613 C23.7851129,5.13290323 23.5117258,4.94225806 23.3457581,4.84112903 C23.5533387,5.09129032 23.2015645,5.19 23.8664032,5.5683871 L23.9186613,5.58193548 C23.9283387,5.59403226 23.9259194,5.59790323 23.9360806,5.61096774 L23.9365645,5.61048387 L23.9360806,5.61096774 C24.3560806,6.23854839 23.2939839,5.80112903 23.3893065,6.18774194 L23.1972097,6.04596774 C23.3268871,6.33 23.1265645,6.41419355 23.4764032,6.80612903 C23.4493065,6.84193548 23.0617258,6.6333871 22.8439839,6.44951613 C22.9199516,6.64935484 23.1285,6.81919355 22.7114032,6.72096774 C22.4447903,6.37983871 22.3901129,6.53467742 22.5362419,6.44370968 C22.2807581,6.44322581 21.9522097,6.24435484 22.3818871,6.7616129 C21.9212419,6.35467742 21.6938226,6.39725806 21.7983387,6.56322581 L22.2144677,6.73741935 C22.2381774,6.855 22.1525323,6.87967742 22.0683387,6.90677419 L21.4426935,6.39919355 C20.4701129,6.06822581 22.4549516,7.83532258 20.994629,7.05435484 C21.4001129,7.45354839 21.4136613,7.15354839 21.9009194,7.60258065 C21.7291452,7.65290323 20.7105968,7.08822581 20.6820484,7.12258065 C20.207371,7.01564516 21.5220484,7.96548387 21.1557581,7.94951613 C21.4020484,8.09806452 22.0344677,8.53209677 22.1622097,8.81516129 C21.992371,8.86693548 21.0880161,8.24274194 20.9554355,8.03419355 C20.9564032,7.99209677 21.039629,8.03322581 21.1170484,8.09177419 C21.0599516,7.99258065 20.9970484,7.8716129 20.7125323,7.73225806 L20.9331774,7.91758065 C20.6549516,7.80096774 20.5639839,7.9766129 20.2112419,7.66064516 C20.3685,7.90935484 20.5639839,7.9766129 20.7309194,8.00080645 C20.2876935,7.9016129 20.552371,8.2233871 20.2155968,8.20935484 C20.3607581,8.27903226 20.6491452,8.45612903 20.6288226,8.47887097 C20.1793065,8.49 20.9960806,8.89887097 20.9868871,9.12387097 C20.5712419,8.95016129 20.1672097,8.47451613 20.3515645,8.84322581 C20.0447903,8.76048387 19.7230161,8.4116129 19.5614032,8.23645161 C19.9064032,8.70241935 19.0789839,8.27903226 18.9391452,8.29741935 L18.8060806,8.08790323 C18.8849516,8.21274194 18.8554355,8.24564516 18.827371,8.28096774 L19.3209194,8.58 C19.2086613,8.56306452 19.1801129,8.59790323 18.9885,8.45564516 C19.2594677,8.72274194 19.7830161,8.98790323 20.1333387,9.37935484 C19.8560806,9.26370968 20.2581774,9.7383871 19.629629,9.30677419 C19.9697903,9.28112903 18.9981774,8.87322581 19.0107581,8.64919355 C19.0625323,8.73193548 19.0335,8.76580645 18.9207581,8.74887097 C18.8472097,8.70483871 18.7978548,8.64919355 18.7712419,8.61145161 C18.0967258,8.37967742 19.4080161,9.20080645 19.2633387,9.36774194 C18.9338226,9.09096774 18.5767258,8.92645161 18.6289839,9.00967742 C18.6885,8.9433871 19.2314032,9.39967742 19.4486613,9.66 C19.0954355,9.57629032 19.5580161,9.93145161 19.4825323,9.96774194 L19.6591452,9.99290323 C19.9881774,10.2701613 19.9015645,10.293871 19.9518871,10.4530645 C19.6775323,10.2619355 19.8193065,10.2445161 19.6799516,10.1859677 C20.2233387,10.721129 18.9038226,9.92225806 19.2236613,10.346129 C18.9468871,10.2304839 18.5694677,9.87387097 18.3735,9.80709677 C18.7214032,10.2745161 17.7899516,9.60774194 18.054629,10.0253226 C18.5501129,10.3248387 18.4417258,10.2343548 18.8205968,10.6693548 L18.6676935,10.1908065 L19.2318871,10.8406452 C19.2914032,10.773871 19.0504355,10.473871 19.1617258,10.4893548 C19.487371,10.841129 19.3775323,10.7482258 19.7888226,10.9979032 C19.0189839,10.5832258 20.0520484,11.4914516 19.4975323,11.2587097 L18.3478548,10.4085484 C17.709629,10.2024194 18.7165645,11.1464516 18.2636613,11.1551613 L18.5162419,11.231129 C18.9517258,11.5969355 18.4794677,11.415 18.6125323,11.6230645 C18.2322097,11.3332258 18.0589839,11.2751613 17.7972097,11.13 C18.0855968,11.336129 17.6520484,11.2732258 18.4059194,11.8582258 L17.8262419,11.5848387 C17.4870484,11.6109677 18.7726935,12.5946774 18.5152742,12.6706452 C18.1349516,12.3116129 17.8049516,12.1891935 17.5901129,11.853871 C17.5441452,11.9085484 17.4357581,11.9085484 17.7014032,12.1054839 C17.4362419,11.9617742 18.1035,12.6459677 17.6989839,12.4301613 C17.8499516,12.5787097 18.2476935,12.8825806 18.1683387,12.9237097 C18.0851129,12.8733871 17.9776935,12.7833871 17.9776935,12.7833871 C18.1683387,12.9237097 18.1625323,13.0746774 18.6299516,13.3316129 C17.2993065,12.626129 18.3536613,13.89 17.2093065,13.2866129 C17.2460806,13.5067742 17.2591452,13.7487097 17.2035,13.8832258 C17.0936613,13.7912903 17.0118871,13.7419355 17.0675323,13.7496774 C16.5943065,13.6437097 18.1015645,14.6579032 17.5707581,14.5432258 C16.8817258,14.1774194 17.3041452,14.201129 17.0268871,14.085 C15.7417258,13.1791935 17.0409194,14.4275806 16.2135,14.0046774 L16.1602742,13.9204839 C15.9125323,13.8067742 15.9875323,13.9562903 16.1085,14.1319355 C16.2512419,14.2780645 16.4205968,14.4764516 16.3465645,14.4827419 C16.3465645,14.4827419 16.2430161,14.388871 16.1655968,14.3283871 C16.7438226,14.895 16.8226935,15.2351613 16.8894677,15.5206452 C16.494629,15.0193548 16.6997903,15.2293548 16.2565645,14.7769355 C16.2865645,14.8858065 16.9615645,15.5119355 16.9988226,15.7567742 C16.7452742,15.5327419 16.502371,15.3667742 16.0722097,14.8262903 L16.0964032,14.7324194 C15.5070484,14.0772581 16.0610806,14.8306452 15.9352742,14.7483871 L15.7030161,14.4275806 C15.7286613,14.5998387 16.2817258,15.4519355 16.1414032,15.5279032 L16.3097903,15.7804839 C16.7588226,16.7593548 15.977371,15.3396774 16.2899516,16.0964516 L15.7833387,15.1727419 C15.879629,15.4301613 16.1244677,16.2677419 16.1176935,16.5798387 C15.8525323,15.7451613 15.7455968,15.2787097 15.564629,14.8146774 C15.5385,14.8383871 15.5249516,14.9879032 15.7170484,15.5220968 C15.6889839,15.405 15.5951129,15.1374194 15.6735,15.2791935 C15.9889839,16.1177419 16.0722097,16.6282258 15.9793065,16.7264516 C15.6139839,15.66 15.5297903,15.5777419 15.4654355,15.5554839 C15.4015645,15.5327419 15.3430161,15.5898387 15.1088226,14.6941935 C15.1833387,15.1712903 15.1151129,15.1408065 15.0483387,14.9864516 C14.9786613,14.8374194 14.9114032,14.5620968 14.8930161,14.6806452 C15.1533387,16.7574194 14.8785,14.7691935 15.1020484,16.9625806 C15.0841452,17.1701613 15.0580161,17.0695161 15.0439839,16.9354839 L14.9370484,16.2285484 C14.8944677,15.885 14.8514032,15.5409677 14.8514032,15.5409677 C14.8025323,14.9022581 14.8485,15.0885484 14.8151129,14.6003226 C14.7725323,14.4053226 14.7502742,13.676129 14.7226935,13.1095161 C14.7551129,13.8687097 14.7526935,14.1817742 14.7343065,13.886129 C14.7343065,13.886129 14.7439839,14.1304839 14.7536613,14.3743548 L14.7826935,14.8712903 C14.7667258,15.3996774 14.7338226,14.9419355 14.7251129,14.5045161 C14.7110806,14.0622581 14.7207581,13.6403226 14.6888226,14.148871 L14.7139839,13.53 C14.6849516,13.8822581 14.709629,13.5135484 14.5049516,14.9632258 C14.5218871,14.7435484 14.5804355,14.2393548 14.6051129,14.115 C14.597371,13.9843548 14.5180161,14.3467742 14.4139839,14.5906452 C14.3162419,14.8403226 14.1991452,14.9767742 14.2857581,14.5519355 L14.4081774,14.1667742 C14.3665645,14.2722581 14.1560806,14.8693548 14.2635,14.4667742 C14.3181774,14.3109677 14.3955968,14.0922581 14.3985,14.0651613 C14.3539839,14.1953226 14.1294677,14.6874194 14.1894677,14.4517742 L14.3636613,14.0540323 C14.4314032,13.7898387 14.3210806,14.0279032 14.1362419,14.3206452 C13.9552742,14.6167742 13.7051129,14.9714516 13.5855968,15.0290323 C14.132371,14.0743548 14.2828548,13.7370968 14.3772097,13.5880645 L14.4667258,13.4646774 C14.4918871,13.3974194 14.3515645,13.5687097 14.1299516,13.7564516 C14.0738226,13.8024194 14.0181774,13.8551613 13.9509194,13.8982258 L13.7085,13.9848387 C13.5478548,14.04 13.3925323,14.0859677 13.2599516,14.1019355 C13.9315645,13.1375806 13.1128548,13.2662903 13.3431774,12.5787097 C13.2405968,12.7495161 12.7460806,13.155 12.6280161,13.1879032 C12.7276935,12.9822581 11.9505968,13.5517742 12.6570484,12.8772581 L12.6628548,12.9106452 C13.307371,12.1983871 13.0160806,12.2637097 12.9488226,12.1572581 L12.0183387,13.0325806 C13.1293065,11.508871 10.9310806,12.8927419 12.0139839,11.6119355 C11.7289839,11.7754839 11.6655968,11.7024194 11.3801129,11.8654839 L11.8804355,11.3975806 C11.859629,11.1208065 11.8489839,10.983871 11.5465645,10.9020968 L11.9418871,10.6074194 C11.8722097,10.4685484 10.3683387,11.8156452 10.2425323,11.7391935 L10.9635,11.0124194 C10.7718871,10.8285484 11.2547903,10.0272581 10.3939839,10.4617742 C10.5076935,10.3640323 10.7312419,10.1704839 10.7907581,10.173871 C10.7249516,10.0654839 10.9833387,9.35564516 9.97253226,10.3306452 C10.6480161,9.71516129 9.85737097,10.0693548 9.46108065,10.2309677 L9.97785484,9.79741935 C9.25640323,10.2832258 9.07785484,10.4370968 8.78656452,10.4695161 C8.82479032,10.3809677 9.16591935,10.0843548 9.07253226,10.2387097 C9.24720968,9.90435484 8.52624194,10.5856452 8.68543548,10.226129 L9.04785484,9.98516129 C8.99559677,9.84822581 8.83059677,10.0093548 8.40430645,10.2846774 C8.14398387,10.3983871 8.35882258,9.97451613 8.8035,9.55693548 C8.51220968,9.78870968 8.08882258,10.0596774 8.16720968,9.88258065 C8.33317742,9.72241935 8.46043548,9.65080645 8.52237097,9.61596774 C8.7168871,9.14129032 7.70608065,9.8733871 8.10091935,9.31935484 C8.26737097,9.17032258 8.34527419,9.08951613 8.38737097,9.03580645 C8.49527419,9.18290323 8.56398387,9.31790323 8.51801613,9.34016129 C8.98591935,8.93080645 8.97237097,8.74983871 9.69527419,8.27274194 C9.26656452,8.4933871 8.36366129,9.01016129 8.49140323,8.70967742 C8.53253226,8.66516129 8.57269355,8.62112903 8.6418871,8.55483871 L8.70430645,8.52048387 C8.72995161,8.45467742 8.66704839,8.47016129 8.56979032,8.51758065 C8.61769355,8.41596774 8.65591935,8.34483871 8.6351129,8.30564516 C9.0135,7.95774194 8.73672581,7.99790323 8.70817742,7.92629032 C8.19527419,8.3733871 8.21608065,8.22919355 7.84833871,8.66225806 C7.87737097,8.62209677 7.9185,8.62016129 7.97172581,8.63903226 C7.99446774,8.63419355 8.01043548,8.63758065 8.04575806,8.61677419 C8.03075806,8.62790323 8.01333871,8.64 7.9968871,8.65209677 C8.04333871,8.67580645 8.09559677,8.71354839 8.15027419,8.76096774 C7.85075806,8.94241935 7.59043548,9.08516129 7.82414516,8.77741935 C7.46995161,9.02709677 7.10269355,9.28596774 6.92317742,9.41274194 C7.57785484,8.7183871 7.84253226,8.23935484 8.27124194,7.84064516 C7.83430645,7.91903226 7.74091935,7.60403226 6.67108065,8.31483871 C6.50366129,8.37096774 6.90430645,8.02306452 7.04317742,7.87596774 C7.1651129,7.82225806 7.17817742,7.86822581 7.33204839,7.76564516 C6.99866129,7.8783871 6.99237097,7.55758065 6.28591935,8.10435484 C6.49253226,7.72258065 6.97640323,7.64903226 6.72237097,7.57209677 L6.95172581,7.42112903 C7.77624194,6.18580645 4.73995161,8.31580645 5.8518871,6.78290323 C5.78559677,6.87967742 5.75608065,6.92516129 5.64382258,7.02435484 C5.92591935,6.09387097 4.33785484,6.60241935 5.00704839,5.38354839 C5.11640323,5.10290323 4.65672581,5.44016129 4.25608065,5.63080645 L4.81301613,5.15612903 L4.04753226,5.54419355 C3.41656452,5.73629032 5.22624194,4.13854839 4.12398387,4.61806452 L3.75479032,4.94612903 C3.76640323,4.80629032 3.32414516,4.8566129 3.78624194,4.52903226 C3.70833871,4.57451613 3.35753226,4.81016129 3.53753226,4.62290323 L3.84043548,4.39016129 L3.16253226,4.57887097 C3.26414516,4.25370968 4.39446774,3.69241935 4.28172581,3.41854839 C4.10027419,3.42193548 3.20608065,3.83951613 3.02462903,4.02387097 C3.03575806,4.06983871 2.90075806,4.25516129 2.59543548,4.48645161 L2.37575806,4.52564516 C1.46124194,5.18370968 0.486241935,5.80693548 0.00672580645,6.47854839 L0.664306452,6.20612903 L0.260758065,6.57870968 L0.144145161,6.48096774 C-0.216822581,6.85596774 0.179467742,6.6266129 0.464951613,6.48677419 C0.240919355,6.67209677 0.0928548387,6.81387097 0.0275322581,6.90677419 L0.991403226,6.39725806 C0.651725806,6.67983871 0.245758065,6.86177419 0.121403226,7.10129032 C0.5685,6.86467742 0.864145161,6.44467742 1.20624194,6.35274194 C0.847693548,6.72822581 0.500758065,6.96048387 0.908177419,6.77516129 C0.685112903,6.96145161 0.525435484,7.05629032 0.400112903,7.10225806 C0.730112903,6.96241935 0.657048387,7.19903226 1.16075806,6.87290323 C0.710274194,7.32580645 1.47140323,7.00645161 0.618822581,7.64806452 C0.838983871,7.515 1.37801613,7.26096774 1.46172581,7.29725806 C0.360435484,7.95967742 1.58656452,7.58129032 0.479951613,8.38790323 C1.45446774,7.77193548 1.12398387,8.38935484 1.74527419,8.14935484 C1.6668871,8.19725806 1.50817742,8.29451613 1.5435,8.24467742 C1.53624194,8.38887097 1.28366129,8.62693548 1.1568871,8.81612903 C1.91075806,8.24177419 2.18608065,8.23983871 2.70091935,7.94806452 C2.06608065,8.61919355 1.77769355,8.57467742 1.11382258,9.15193548 C1.71285484,8.67096774 1.85995161,8.85822581 2.33269355,8.42564516 C1.95237097,8.85677419 2.17204839,8.66467742 1.58946774,9.19451613 C2.52866129,8.47064516 1.80575806,9.14419355 2.42753226,8.7566129 C2.06220968,9.2366129 1.58317742,9.47951613 1.96640323,9.38129032 C1.73075806,9.66967742 1.31269355,9.81822581 1.31269355,9.81822581" id="Fill-56" fill="#F9BBA2" sketch:type="MSShapeGroup" mask="url(#mask-4)"></path>
                </g>
                <path id="Fill-59" fill="#F9BBA2" sketch:type="MSShapeGroup" d="M7.97187097,8.63893548 C7.95590323,8.64329032 7.93170968,8.65877419 7.92106452,8.65587097 C7.88525806,8.7003871 7.85332258,8.74054839 7.82380645,8.77732258 C7.88283871,8.73474194 7.94090323,8.69264516 7.99703226,8.652 C7.98832258,8.64812903 7.98106452,8.64183871 7.97187097,8.63893548"></path>
                <path id="Fill-61" fill="#F9BBA2" sketch:type="MSShapeGroup" d="M23.8662581,5.56862903 L23.8498065,5.56475806 C23.8744839,5.57637097 23.8991613,5.58798387 23.9359355,5.61072581 C23.9049677,5.59185484 23.8904516,5.58314516 23.8662581,5.56862903"></path>
                <path id="Fill-63" fill="#F9BBA2" sketch:type="MSShapeGroup" d="M7.61182258,15.8807419 L7.73617742,15.7621935 L7.60746774,15.8454194 L7.61182258,15.8807419 Z"></path>
                <path id="Fill-65" fill="#F9BBA2" sketch:type="MSShapeGroup" d="M26.7745161,5.55280645 C26.8248387,5.58570968 26.8785484,5.61716129 26.9279032,5.63748387 C26.8916129,5.61183871 26.8359677,5.58280645 26.7745161,5.55280645"></path>
                <path id="Fill-67" fill="#F9BBA2" sketch:type="MSShapeGroup" d="M27.3410806,5.03917742 L27.5989839,5.09724194 C27.4610806,5.05272581 27.3885,5.04062903 27.3410806,5.03917742"></path>
                <path id="Fill-69" fill="#F9BBA2" sketch:type="MSShapeGroup" d="M27.9540968,4.77454839 C27.8582903,4.69809677 27.7895806,4.64341935 27.7257097,4.5926129 L27.720871,4.59067742 L27.9540968,4.77454839 Z"></path>
                <path id="Fill-71" fill="#F9BBA2" sketch:type="MSShapeGroup" d="M23.1730645,12.6302903 C23.1716129,12.6385161 23.1740323,12.650129 23.1846774,12.6665806 C23.2601613,12.7865806 23.238871,12.7270645 23.1730645,12.6302903"></path>
                <path id="Fill-73" fill="#F9BBA2" sketch:type="MSShapeGroup" d="M23.5071774,9.49248387 C23.5894355,9.58877419 23.6702419,9.6836129 23.7142742,9.75329032 C23.7849194,9.74506452 23.8183065,9.72280645 23.5071774,9.49248387"></path>
                <path id="Fill-75" fill="#F9BBA2" sketch:type="MSShapeGroup" d="M22.0300645,15.5683065 L22.020871,15.5610484 C22.0189355,15.5678226 22.0136129,15.5707258 22.0097419,15.5760484 L22.0300645,15.5683065 Z"></path>
                <path id="Fill-77" fill="#F9BBA2" sketch:type="MSShapeGroup" d="M23.6295968,9.84851613 C23.7675,9.88964516 23.7679839,9.83980645 23.7142742,9.75319355 C23.6537903,9.75851613 23.5700806,9.75512903 23.6295968,9.84851613"></path>
                <g id="Group-81">
                    <mask id="mask-6" sketch:name="Clip 80" fill="white">
                        <use xlink:href="#path-5"></use>
                    </mask>
                    <g id="Clip-80"></g>
                    <path id="Fill-79" fill="#F9BBA2" sketch:type="MSShapeGroup" mask="url(#mask-6)" d="M29.6812742,2.94464516 L29.7204677,2.93932258 C29.6841774,2.91270968 29.655629,2.88996774 29.6343387,2.87158065 L29.6812742,2.94464516 Z"></path>
                </g>
                <g id="Group-84">
                    <mask id="mask-8" sketch:name="Clip 83" fill="white">
                        <use xlink:href="#path-7"></use>
                    </mask>
                    <g id="Clip-83"></g>
                    <path id="Fill-82" fill="#F9BBA2" sketch:type="MSShapeGroup" mask="url(#mask-8)" d="M29.6345323,2.87177419 L29.5880806,2.79919355 C29.5798548,2.81080645 29.5764677,2.82387097 29.6345323,2.87177419"></path>
                </g>
                <g id="Group-87">
                    <mask id="mask-10" sketch:name="Clip 86" fill="white">
                        <use xlink:href="#path-9"></use>
                    </mask>
                    <g id="Clip-86"></g>
                    <path id="Fill-85" fill="#F9BBA2" sketch:type="MSShapeGroup" mask="url(#mask-10)" d="M29.4884516,2.64566129 L29.588129,2.79953226 C29.6026452,2.7821129 29.6365161,2.77243548 29.4884516,2.64566129"></path>
                </g>
                <path id="Fill-88" fill="#F9BBA2" sketch:type="MSShapeGroup" d="M28.9765161,3.37335484 L29.1700645,3.52674194 C29.1318387,3.4923871 29.0689355,3.44254839 28.9765161,3.37335484"></path>
                <path id="Fill-90" fill="#F9BBA2" sketch:type="MSShapeGroup" d="M28.8967742,3.60241935 C28.9746774,3.59129032 29.4029032,3.80225806 29.3240323,3.6483871 L29.1701613,3.52645161 C29.4445161,3.77274194 28.5929032,3.31403226 28.8967742,3.60241935"></path>
                <path d="M25.8674032,2.57690323 L26.1412742,2.53722581 C25.9095,2.409 25.598371,2.23577419 25.5998226,2.1273871 C24.8232097,1.86029032 26.1035323,2.43464516 25.8674032,2.57690323" id="Fill-92" fill="#F9BBA2" sketch:type="MSShapeGroup"></path>
                <path id="Fill-94" fill="#F9BBA2" sketch:type="MSShapeGroup" d="M25.2036774,2.83664516 C25.1669032,2.68035484 24.8954516,2.61164516 24.7788387,2.51922581 C24.9327097,2.71422581 24.9719032,2.76309677 25.2036774,2.83664516"></path>
                <path id="Fill-96" fill="#F9BBA2" sketch:type="MSShapeGroup" d="M22.6244516,6.34243548 L22.131871,5.96743548 C22.1560645,6.08501613 22.3249355,6.11017742 22.6244516,6.34243548"></path>
                <path id="Fill-98" fill="#F9BBA2" sketch:type="MSShapeGroup" d="M24.7093548,8.907 L25.0654839,9.07151613 L24.6304839,8.70570968 L24.7093548,8.907 Z"></path>
                <path id="Fill-100" fill="#F9BBA2" sketch:type="MSShapeGroup" d="M20.8659677,6.69266129 L20.8156452,6.61185484 L20.9167742,6.85282258 L20.8659677,6.69266129 Z"></path>
                <path id="Fill-102" fill="#F9BBA2" sketch:type="MSShapeGroup" d="M16.7146935,12.7133226 L17.3432419,13.1449355 C17.2653387,13.0200968 16.581629,12.5038065 16.7146935,12.7133226"></path>
                <path id="Fill-104" fill="#F9BBA2" sketch:type="MSShapeGroup" d="M15.9145161,15.1128871 C15.69,14.7751452 15.5404839,14.5646613 15.723871,14.9474032 C15.7703226,14.9725645 15.956129,15.2217581 15.9145161,15.1128871"></path>
                <path id="Fill-106" fill="#F9BBA2" sketch:type="MSShapeGroup" d="M12.6016935,12.2521452 L12.8276613,12.1185968 L12.5944355,12.1834355 L12.6016935,12.2521452 Z"></path>
            </g>
        </g>
    </g>
</svg>