<?xml version="1.0" encoding="UTF-8" standalone="no"?>
<svg width="58px" height="38px" viewBox="0 0 58 38" version="1.1" xmlns="http://www.w3.org/2000/svg" xmlns:xlink="http://www.w3.org/1999/xlink" xmlns:sketch="http://www.bohemiancoding.com/sketch/ns">
    <!-- Generator: Sketch 3.4.3 (16044) - http://www.bohemiancoding.com/sketch -->
    <title>Page 1</title>
    <desc>Created with Sketch.</desc>
    <defs>
        <path id="path-1" d="M0,0.2146 L36.507837,0.2146 L36.507837,58 L0,58"></path>
        <path id="path-3" d="M0,0.2146 L36.507837,0.2146 L36.507837,58 L0,58 L0,0.2146 Z"></path>
        <path id="path-5" d="M0,0.2146 L36.507837,0.2146 L36.507837,58 L0,58 L0,0.2146 Z"></path>
        <path id="path-7" d="M0,0.2146 L36.507837,0.2146 L36.507837,58 L0,58"></path>
        <path id="path-9" d="M0,0.2146 L36.507837,0.2146 L36.507837,58 L0,58"></path>
    </defs>
    <g id="Welcome" stroke="none" stroke-width="1" fill="none" fill-rule="evenodd" sketch:type="MSPage">
        <g id="Onclick_Photo" sketch:type="MSArtboardGroup" transform="translate(-1282.000000, -263.000000)">
            <g id="Roadmap" sketch:type="MSLayerGroup" transform="translate(1130.000000, 218.000000)">
                <g id="Page-1" transform="translate(181.000000, 64.421875) rotate(-270.000000) translate(-181.000000, -64.421875) translate(162.421875, 35.421875)">
                    <path d="M0.085459375,42.6377575 C0.221698958,42.7697075 0.577961826,43.0038825 0.555376654,42.8922325 L0.000218566176,42.4275075 L0.085459375,42.6377575 Z" id="Fill-1" fill="#262626" sketch:type="MSShapeGroup"></path>
                    <path d="M1.48268009,42.990325 C1.25172849,42.71265 0.813867586,42.26895 0.239767096,41.930375 C0.750483395,42.40815 0.502046507,42.25735 1.11621746,42.817775 C1.13880263,42.929425 0.847381066,42.793125 0.639014645,42.627825 C0.77379712,42.7576 0.438662316,42.633625 0.783268321,42.9316 C1.29762739,43.174475 1.39161085,43.083125 1.0950894,42.706125 C1.24152874,42.775 1.37776832,42.907675 1.48268009,42.990325" id="Fill-3" fill="#262626" sketch:type="MSShapeGroup"></path>
                    <path d="M6.90312126,37.518025 L6.80476648,37.506425 C6.85066538,37.523825 6.8819932,37.526 6.90312126,37.518025" id="Fill-5" fill="#262626" sketch:type="MSShapeGroup"></path>
                    <path d="M10.0587069,33.996265 C10.0514213,34.035415 10.0987773,34.090515 10.1497761,34.131115 C10.1322908,34.076015 10.1133484,34.028165 10.0587069,33.996265" id="Fill-7" fill="#262626" sketch:type="MSShapeGroup"></path>
                    <path d="M11.1803885,33.8382875 C11.1519749,33.8382875 11.1344896,33.8433625 11.112633,33.8462625 C11.1767457,33.8723625 11.2168162,33.8796125 11.1803885,33.8382875" id="Fill-9" fill="#262626" sketch:type="MSShapeGroup"></path>
                    <path d="M6.90312126,37.518025 L7.16102935,37.5521 C6.97670521,37.404925 6.98180509,37.4999 6.90312126,37.518025" id="Fill-11" fill="#262626" sketch:type="MSShapeGroup"></path>
                    <path d="M0.685714951,41.1229425 C0.698828922,41.1649925 0.740356495,41.2222675 0.800097917,41.2896925 C0.786983946,41.2534425 0.778241299,41.2215425 0.775327083,41.1925425 C0.744727819,41.1686175 0.717771324,41.1475925 0.685714951,41.1229425" id="Fill-13" fill="#262626" sketch:type="MSShapeGroup"></path>
                    <path d="M6.13435116,39.53019 L6.11249455,39.561365 C6.17515018,39.61864 6.24873413,39.686065 6.33033217,39.76074 L6.13435116,39.53019 Z" id="Fill-15" fill="#262626" sketch:type="MSShapeGroup"></path>
                    <path d="M5.27924743,40.87695 C5.32223211,40.8639 4.83410098,40.4927 4.62573456,40.323775 C4.81734424,40.489075 4.89894228,40.58115 4.91861324,40.634075 C5.01259669,40.703675 5.12843676,40.781975 5.27924743,40.87695" id="Fill-17" fill="#262626" sketch:type="MSShapeGroup"></path>
                    <path d="M2.91428854,42.28432 L2.95654467,42.36987 C2.94197359,42.34522 2.9339595,42.31477 2.91428854,42.28432" id="Fill-19" fill="#262626" sketch:type="MSShapeGroup"></path>
                    <path d="M6.92016942,38.693685 C6.99521048,38.745885 7.06296599,38.78866 7.10522212,38.812585 C7.04329504,38.766185 6.98136795,38.72776 6.92016942,38.693685" id="Fill-21" fill="#262626" sketch:type="MSShapeGroup"></path>
                    <path d="M31.7520556,1.22815 C31.7848405,1.25715 31.80524,1.276 31.8336536,1.30065 C31.7935831,1.2528 31.7629839,1.221625 31.7520556,1.22815" id="Fill-23" fill="#262626" sketch:type="MSShapeGroup"></path>
                    <path d="M35.2561814,1.8823175 L35.2634669,1.9236425 C35.3479792,2.0026675 35.4317629,2.0802425 35.514818,2.1578175 L35.2561814,1.8823175 Z" id="Fill-25" fill="#262626" sketch:type="MSShapeGroup"></path>
                    <path d="M12.7016819,33.152075 C12.6951249,33.15135 12.6936678,33.150625 12.688568,33.1499 C12.7206243,33.223125 12.7242671,33.198475 12.7016819,33.152075" id="Fill-27" fill="#262626" sketch:type="MSShapeGroup"></path>
                    <path d="M20.7251734,22.32884 C20.2028002,22.101915 20.3361256,21.693015 19.7175833,21.48784 C19.9172071,21.62269 20.3281115,22.25199 20.7251734,22.32884" id="Fill-29" fill="#262626" sketch:type="MSShapeGroup"></path>
                    <path d="M0.775472794,41.136355 C0.782758333,41.114605 0.79150098,41.09358 0.808986275,41.079805 C0.775472794,41.09213 0.766001593,41.110255 0.775472794,41.136355" id="Fill-31" fill="#262626" sketch:type="MSShapeGroup"></path>
                    <path d="M19.717729,21.4880575 L19.7133577,21.4844325 L19.6536163,21.4670325 C19.6798442,21.4757325 19.6951439,21.4808075 19.717729,21.4880575" id="Fill-33" fill="#262626" sketch:type="MSShapeGroup"></path>
                    <path d="M14.4832877,30.258455 C14.3936756,30.197555 14.3208202,30.158405 14.2501504,30.12143 C14.3004206,30.15913 14.3659905,30.19973 14.4832877,30.258455" id="Fill-35" fill="#262626" sketch:type="MSShapeGroup"></path>
                    <path d="M12.2428387,31.7146175 L12.3462933,31.7153425 C12.2865519,31.7008425 12.2588669,31.7051925 12.2428387,31.7146175" id="Fill-37" fill="#262626" sketch:type="MSShapeGroup"></path>
                    <path d="M14.6069961,28.6962975 C14.6645519,28.6984725 14.7388644,28.7412475 14.7024367,28.6542475 C14.6762088,28.6404725 14.6565378,28.6303225 14.6346812,28.6194475 C14.6907798,28.6846975 14.7075366,28.7260225 14.6069961,28.6962975" id="Fill-39" fill="#262626" sketch:type="MSShapeGroup"></path>
                    <path d="M15.4507344,27.62482 C15.410664,27.60452 15.3756934,27.58712 15.3378086,27.56827 L15.33708,27.622645 L15.4507344,27.62482 Z" id="Fill-41" fill="#262626" sketch:type="MSShapeGroup"></path>
                    <path d="M29.1759618,4.5390075 C29.3253153,4.6303575 29.4804973,4.7420075 29.6320365,4.8558325 C29.2903447,4.5832325 29.3085586,4.3302075 29.1759618,4.5390075" id="Fill-43" fill="#262626" sketch:type="MSShapeGroup"></path>
                    <path d="M0.9660625,41.3236225 C0.845122549,41.2271975 0.789752451,41.1728225 0.775181373,41.1365725 C0.771538603,41.1532475 0.772995711,41.1728225 0.775181373,41.1923975 C0.847308211,41.2489475 0.916520833,41.2996975 0.9660625,41.3236225" id="Fill-45" fill="#262626" sketch:type="MSShapeGroup"></path>
                    <path d="M10.8266756,25.67718 L11.0328563,25.560455 C10.9483441,25.572055 10.8747601,25.615555 10.8266756,25.67718" id="Fill-47" fill="#262626" sketch:type="MSShapeGroup"></path>
                    <path d="M22.757256,12.04573 L22.7339423,11.96018 C22.7106286,11.96598 22.7120857,11.99063 22.757256,12.04573" id="Fill-49" fill="#262626" sketch:type="MSShapeGroup"></path>
                    <path d="M11.3656597,24.99597 C11.5601836,25.09892 11.6847664,25.14387 11.7758356,25.160545 C11.7437792,25.124295 11.7197369,25.09167 11.6672811,25.043095 L11.3656597,24.99597 Z" id="Fill-51" fill="#262626" sketch:type="MSShapeGroup"></path>
                    <path d="M29.6371364,4.85982 L29.6320365,4.856195 L29.6371364,4.85982 Z" id="Fill-53" fill="#262626" sketch:type="MSShapeGroup"></path>
                    <g id="Group-57">
                        <mask id="mask-2" sketch:name="Clip 56" fill="white">
                            <use xlink:href="#path-1"></use>
                        </mask>
                        <g id="Clip-56"></g>
                        <path d="M31.1804322,10.13521 C31.2037459,10.240335 31.0988341,10.17726 30.9982937,10.10186 C31.0099506,10.072135 31.0179646,10.031535 31.0165075,9.969185 C31.0012079,9.95251 30.9822655,9.932935 30.9647802,9.914085 C31.0492925,9.99601 31.1272477,10.07286 31.1804322,10.13521 M27.4036086,7.995735 C27.4546074,7.973985 27.4990492,7.92976 27.5391197,7.878285 C27.7088727,8.00661 27.8625976,8.16031 27.827627,8.184235 C27.7358292,8.07476 27.5791901,8.066785 27.4036086,7.995735 M27.6666166,7.682535 C27.6622453,7.67891 27.6571454,7.67456 27.6571454,7.67456 C27.6739021,7.63396 27.6884732,7.59916 27.6972159,7.576685 C27.6906589,7.598435 27.6819162,7.628885 27.6666166,7.682535 M29.5062153,2.81996 C29.3539475,2.964235 30.0307741,3.416635 30.347695,3.755935 C30.3535235,4.09306 29.826779,3.448535 29.4617735,3.23901 C29.5178721,3.496385 29.9921607,4.074935 29.8916203,4.140185 C29.7867085,4.058985 29.7357097,4.04376 29.6286123,3.913985 C29.9994463,4.460635 29.326991,4.298235 29.8034653,4.97321 C29.7408096,4.936235 29.684711,4.897085 29.637355,4.86011 C29.9601044,5.102985 30.2711969,5.371235 30.4861203,5.568435 C30.434393,5.64746 30.752771,6.033885 30.3345811,5.711985 C30.3841227,5.67936 30.2274836,5.53581 30.1218433,5.40676 L30.2289407,5.63151 C29.6016558,5.19651 30.1211148,5.35891 29.7007392,4.988435 C29.7582949,5.29366 30.0810443,5.87221 29.8231362,5.84031 C29.2461215,5.374135 29.8632067,5.420535 29.238836,5.13126 L29.6023844,5.15011 C28.6093654,4.50631 29.7553807,5.10081 28.7106344,4.393935 C28.3507287,4.47441 28.7711044,4.891285 28.4119273,4.971035 C28.6771209,5.292935 28.8840302,5.35601 29.1499524,5.67791 C29.4275314,6.481935 27.5296485,4.699885 28.0665927,5.58366 C28.3849708,5.968635 29.0698115,6.60881 28.5503525,6.448585 L27.969695,5.84031 C27.7168868,6.00271 28.7681901,6.755985 28.1438194,6.612435 C27.9318102,6.355785 28.0848066,6.25936 27.9806233,6.226735 C27.3533384,5.93891 28.2472741,6.642885 28.1481907,6.755985 L27.5682618,6.291985 C27.4531503,6.59866 27.6338317,7.204035 27.5121632,7.547685 C27.3577097,7.38891 27.2214702,7.19316 26.9970756,7.103985 C26.9934328,7.66876 26.3246203,7.731835 25.7206491,7.75866 L26.1016828,8.295885 C26.0725406,8.319085 25.8379463,8.15886 25.7701907,8.04721 C25.4809548,8.01096 26.0725406,8.319085 26.212423,8.54166 C26.186195,8.64026 25.8539744,8.393035 25.746877,8.223385 C25.9705431,8.793235 26.1024113,9.597985 25.3855143,9.377585 L25.279874,9.209385 C24.9294395,9.216635 26.1038684,10.262085 25.5086399,10.037335 L25.449627,9.93221 C24.9068544,10.13376 24.9869953,10.936335 24.0005333,10.604285 C24.6555032,11.25751 23.3615915,10.718835 24.321097,11.57651 C23.6471846,11.38366 23.5262447,11.17196 22.9339303,11.204585 C22.8180903,11.249535 23.4417324,11.846935 23.457032,12.035435 L22.9412159,11.60406 L23.3615915,12.197835 L22.6840363,11.752685 L22.733578,11.960035 C22.7969622,11.94771 23.0337422,12.07386 23.1772673,12.20436 C23.2814506,12.550185 22.5069977,12.267435 22.240347,12.04921 L22.3722153,12.76986 C22.1718629,12.587885 22.1514634,12.468985 22.0596656,12.310935 C22.423214,12.941685 21.4884794,11.888985 21.8214285,12.467535 C21.9583966,12.542935 22.1172214,12.73796 22.2177618,12.82931 C21.8330854,12.654585 21.6633323,12.850335 21.6713464,13.106985 L21.3405829,12.780735 C21.0265762,12.96996 21.0404187,13.48181 20.7832392,13.77326 C21.0389616,13.80516 21.6349187,14.34456 21.6210762,14.48086 L21.0469757,14.061085 C21.3362116,14.39821 21.328926,14.14156 21.6443899,14.60121 C21.4884794,14.65921 20.9610063,14.158235 20.8378807,13.946535 L20.9129218,14.239435 C20.7431687,14.11111 20.6841558,14.00816 20.4830749,13.826185 C20.7759536,14.164035 19.7392214,13.602885 20.260866,14.17346 L20.0918415,14.04586 C19.8368476,14.33876 19.9111601,14.63021 19.7348501,14.894835 C20.2033102,15.290685 20.0189861,15.29866 20.3402784,15.686535 C20.0415713,15.740185 19.5053556,15.631435 19.3662018,15.88011 C19.4762134,16.22521 19.7297502,16.254935 19.9548733,16.555085 C19.5148268,16.21071 19.3764015,16.45866 19.160021,16.09181 C19.0150388,16.40791 18.9713256,16.492735 19.0507379,17.107535 C19.2569187,17.217735 19.3669303,17.240935 19.4973415,17.38231 C19.5191981,17.49976 19.2044628,17.368535 19.0033819,17.18946 L18.9720541,17.13726 C19.3166601,18.034085 17.0078727,16.95166 17.6686711,17.981885 L17.6373433,17.92896 L17.8588237,18.616985 C17.6686711,18.69601 17.6016442,18.26826 17.2490241,18.15371 C17.7029132,19.07011 16.7186368,18.58726 16.9794591,19.24991 C15.5267226,18.42196 16.4614573,20.06626 15.4108825,19.68781 L15.7263464,19.91546 C15.9631264,20.22721 15.4815523,19.86471 15.3678979,19.862535 C15.6090492,20.043785 15.7044898,20.001735 15.8312581,20.180085 C15.6899187,21.092135 14.3515651,21.10881 13.5603556,21.530035 C13.2900621,21.699685 15.0240204,22.91406 14.0616007,22.63131 L13.5654555,22.09916 C13.8612483,23.10836 12.7647747,23.046735 12.9724126,23.966035 C12.863858,23.835535 12.6948335,23.700685 12.7327183,23.657185 C12.2438586,23.430985 12.42454,24.00446 12.7596748,24.270535 C12.6635057,24.312585 12.4427539,24.04796 12.2365731,23.95806 C11.9152808,23.86526 12.5651509,24.618535 12.114176,24.348835 C12.0405921,24.305335 12.0027073,24.21616 11.985222,24.17266 C12.133847,24.393785 11.6974432,24.431485 12.2212735,24.743235 C11.856268,24.73961 12.168089,25.24276 11.776127,25.160835 C12.2358445,25.66761 11.2836246,25.25871 12.012907,25.875685 C11.2450112,25.255085 11.1422851,25.69081 11.4220498,26.087385 C11.2165976,25.866985 11.1036718,25.99386 10.8115216,25.69661 C10.7233666,25.83146 10.7772796,26.059835 11.194741,26.34911 C10.0800535,25.85756 11.5786889,27.40036 10.2811344,26.60286 C10.4057171,27.303935 10.4181025,27.870885 10.337233,28.349385 C9.56788009,27.73531 10.5514279,27.91656 9.72306207,27.29886 C9.79227469,27.867985 10.3168335,28.56761 9.88042972,28.74016 C9.7099481,28.74016 9.57953695,28.433485 9.46733964,28.302985 C9.53800937,28.869935 8.91582433,28.869935 9.11981942,29.481835 C9.04769259,29.425285 8.99232249,29.333935 8.95516624,29.258535 C8.93695239,29.33466 8.73951428,29.30276 9.09941991,29.56811 L9.04550692,29.43906 C9.62980717,29.744285 9.94964234,30.48741 10.2141074,30.705635 C9.26990153,29.831285 9.74054737,30.79191 8.57121832,29.655835 C8.60910312,29.744285 8.74169994,29.919735 8.98649406,30.09301 C8.87429675,30.095185 8.72202898,30.00601 8.49472016,29.74356 C8.53260496,30.093735 8.96536599,30.31051 8.81674099,30.48741 C8.64480227,30.35546 8.60691746,30.267735 8.41895055,30.09446 C8.68341562,30.443185 8.9478807,30.79191 8.68268707,30.83541 C8.5857894,30.74696 8.4371644,30.662135 8.4750492,30.61791 C8.32205288,30.923135 9.02146464,31.751085 8.47286354,31.79531 C7.78947996,31.140635 8.1493856,31.70686 7.48858719,31.22981 L7.56217114,31.533585 L7.92499099,31.709035 C7.80915092,31.83881 8.19018462,32.31876 7.88710619,32.275985 L7.69695362,31.971485 L7.62409822,32.32311 L7.9818182,32.362985 C8.21058413,32.75521 8.81528388,32.96981 8.49544871,33.01621 C8.45756391,32.92921 8.38252286,33.147435 7.94466195,32.929935 L7.94393339,32.928485 C8.09911538,33.15251 8.26376857,33.38741 8.02480288,33.36711 C7.7967655,33.23661 7.32174835,32.803785 7.17093768,32.716785 C7.66344013,33.19311 7.07622567,33.15251 7.5913133,33.673785 C7.47620178,33.543285 7.1359671,33.285185 7.05946893,33.241685 L7.45798793,33.630285 C7.26856391,33.58751 7.1927943,33.54546 6.92832923,33.33086 C6.70174896,33.462085 7.80040827,33.89056 7.27147812,33.850685 C7.24962151,33.805735 7.17676612,33.765135 7.13815276,33.676685 C6.77824712,33.766585 7.08351121,34.329185 6.70539173,34.37631 C6.00233719,33.94711 6.68426366,34.072535 6.07737825,33.728885 C5.96445239,34.12111 6.38701366,34.945435 6.01253695,35.125235 L6.12619136,35.12451 C7.02376979,35.856035 5.50400631,35.00271 5.82966991,35.477585 C5.78814234,35.38986 5.34955288,35.04621 5.445722,35.13321 C5.14555778,35.223835 5.36485251,35.71611 5.42896526,36.238835 L5.21768462,36.02351 C4.9160633,35.98436 4.8606932,36.246085 4.65524099,36.293935 C4.86579308,36.508535 4.77180962,36.553485 5.15284332,36.76591 C3.49392604,36.157635 5.31676795,38.058585 3.92158719,37.57646 C3.9500008,37.532235 3.78607616,37.321985 3.76057678,37.355335 L3.75911967,37.81861 C4.18313805,38.09266 4.03451305,37.95926 4.3973329,38.128185 C4.61007065,38.34351 4.73465337,38.56536 4.68001183,38.63931 C4.51025876,38.30726 4.0257704,38.16226 3.7554769,38.054235 C3.88734516,38.13616 4.01047077,38.25651 4.14088192,38.344235 C3.30085925,37.971585 4.93937702,38.96991 4.29387825,38.82781 L4.0891546,38.660335 C4.13869626,38.819835 4.36673364,39.10041 4.24215092,39.14246 C3.74454859,38.834335 4.08551183,38.896685 3.70229246,38.60741 C3.63890827,38.74951 4.41700386,39.49916 3.86694565,39.266435 C3.77369075,39.11926 3.82614663,39.043135 3.73362028,38.896685 C3.09249283,38.612485 3.22290398,38.72921 3.06917911,38.754585 L3.08812151,38.754585 L2.68523119,38.77851 L2.87465521,38.83506 C3.99079982,39.882685 2.87028388,39.30921 3.52452531,40.09946 C2.90889724,39.346185 3.10779246,39.74566 2.58469075,39.34256 C2.39745239,39.286735 2.17232923,39.24541 2.03827531,39.11346 C2.39818094,39.52381 1.57928634,39.02936 2.10894504,39.62386 C1.93263499,39.505685 2.01569013,39.715935 1.59895729,39.38026 C1.64121342,39.60501 1.92097812,39.568035 2.12861599,39.734785 C2.57376244,40.355385 1.0802269,39.67751 1.6841981,40.54316 C1.84010864,41.02601 2.39016685,41.490735 2.51693523,41.92356 C2.18617175,41.80031 1.93336354,41.40881 1.93336354,41.40881 C1.59021464,41.34791 1.56981513,41.473335 1.6841981,41.731435 C1.55014418,41.599485 1.40516195,41.53206 1.18586722,41.42766 C1.1640106,41.55236 1.77016746,41.941685 1.42629001,41.880785 C1.24925141,41.721285 0.960015502,41.473335 0.79973364,41.28991 C0.879146017,41.51321 1.12394013,41.85251 1.19752408,42.07726 C0.874774694,41.890935 0.790262439,41.68141 0.622695037,41.50016 C0.665679718,41.72491 0.656208517,42.025785 1.10499773,42.40641 L1.33449222,42.44701 C1.32429246,42.50936 0.90755962,42.17731 0.844903983,42.08016 C0.549839645,41.70316 1.12466869,42.041735 1.30243585,42.160635 L1.35489173,42.320135 C2.42878021,42.965385 1.42629001,41.880785 1.60332862,41.76116 L2.29108352,42.357835 L1.80003817,41.75246 C2.0178758,41.85541 2.4462655,42.127285 2.49872138,42.28606 C2.94678205,42.43251 2.31148303,41.995335 2.7894144,42.188185 C2.86081268,42.22226 2.8921405,42.25271 2.91399712,42.28461 L2.77702898,42.01346 C2.91545423,42.14686 3.31033045,42.36871 3.15369136,42.36146 C3.72560619,42.465135 2.83895607,41.63646 3.45239847,41.96271 L3.48518339,42.01201 C3.44074161,41.55091 2.96426734,41.595135 2.48415031,40.925235 L3.91940153,41.74666 L3.39994259,41.328335 C3.44074161,41.31311 3.52233964,41.284835 3.73070607,41.451585 C3.44001305,41.076035 3.48226918,41.30006 3.17919075,40.98541 C3.77150509,41.200735 3.23164663,40.433685 4.11392543,41.02601 C3.74090582,40.678735 3.69937825,40.929585 3.52379675,40.574335 C4.47893094,41.202185 3.49246893,40.287235 4.00974222,40.46776 C4.45707433,40.85346 4.11611109,40.790385 4.63557004,40.97236 C3.88661661,40.310435 4.99401857,40.85346 4.91824896,40.63451 C4.28149283,40.162535 4.82353695,40.20676 4.74266746,39.87181 C4.94884822,40.04001 5.34299589,39.789885 5.69780165,39.792785 L5.80125631,39.87616 C5.17834271,39.370835 5.42750815,39.28746 5.38670913,39.06416 C5.76992849,39.35271 5.90543952,39.486835 6.02856513,39.68186 L6.11234884,39.56151 C5.92583903,39.38171 5.84424099,39.264985 5.8267557,39.134485 L6.28720178,39.51801 C6.37681391,39.341835 5.95133842,38.78431 6.42344136,38.819835 C5.98193768,38.477635 5.05084577,38.058585 4.90950631,37.62431 C5.15867175,37.79541 5.58050447,38.093385 5.63878879,38.222435 C5.62130349,38.18111 5.48506391,38.00856 5.61693217,38.048435 L5.96226673,38.43486 C6.21070362,38.47546 5.65627408,38.135435 5.74880043,38.08976 C6.09486354,38.347135 6.03730778,38.218085 6.30468707,38.431235 C6.32435803,38.474735 6.11380594,38.38991 6.22891746,38.518235 C6.35277163,38.48126 6.63326489,38.53346 6.92031513,38.693685 C6.71777714,38.55521 6.45331207,38.34931 6.45331207,38.255785 C6.54510987,38.08106 6.91011538,38.51026 7.15709516,38.55086 C6.94435741,38.33481 7.26856391,38.419635 6.75201918,38.03466 C6.78917543,37.990435 7.03688376,38.16081 7.19060864,38.247085 C7.02231268,37.99696 7.40698915,37.82151 6.78844687,37.504685 L6.73671955,37.498885 C6.72870545,37.48656 6.73161967,37.48221 6.72360558,37.468435 L6.72360558,37.46916 L6.72360558,37.468435 C6.40814173,36.82246 7.42884577,37.134935 7.40480349,36.708635 L7.57674222,36.83696 C7.49732984,36.533185 7.72172445,36.401235 7.43394565,36.01191 C7.46964479,35.96551 7.83173609,36.137335 8.02261722,36.31061 C7.98254675,36.093835 7.79822261,35.93506 8.21349835,35.97566 C8.42405043,36.32076 8.5114769,36.132985 8.34099528,36.263485 C8.60691746,36.21926 8.91072445,36.391085 8.56538989,35.871985 C8.96463744,36.259135 9.21016011,36.172135 9.1343905,35.999585 L8.73514295,35.87126 C8.73368585,35.740035 8.82839786,35.69726 8.92165276,35.651585 L9.47243952,36.12646 C10.4188311,36.34106 8.70454369,34.65326 10.0691252,35.300685 C9.72743339,34.91136 9.65312089,35.25791 9.2356595,34.82581 C9.42435496,34.73881 10.3722036,35.213685 10.4086313,35.16946 C10.8807343,35.212235 9.70339112,34.34441 10.0815106,34.301635 C9.85493033,34.172585 9.28374406,33.781085 9.20797445,33.47731 C9.39594136,33.38886 10.2104646,33.95291 10.3066338,34.17041 C10.2971626,34.21826 10.2184787,34.185635 10.1499947,34.13126 C10.1893366,34.23566 10.2308642,34.363985 10.498972,34.475635 L10.3066338,34.300185 C10.5725559,34.387185 10.7022385,34.17041 11.0060455,34.474185 C10.8923911,34.214635 10.7022385,34.17041 10.533214,34.171135 C10.9747177,34.210285 10.7634371,33.88476 11.1124144,33.846335 C10.9754463,33.79051 10.7109812,33.634635 10.7364806,33.605635 C11.2085835,33.518635 10.4406877,33.185135 10.4975149,32.92631 C10.8953053,33.05681 11.2180547,33.534585 11.1022146,33.143085 C11.4052931,33.188035 11.668301,33.534585 11.8001693,33.708585 C11.5371613,33.23226 12.3123427,33.58171 12.4616963,33.53821 L12.5571368,33.756435 C12.5010382,33.625935 12.5381944,33.58316 12.5746221,33.538935 L12.1221901,33.27721 C12.2358445,33.277935 12.2730008,33.23371 12.4434824,33.364935 C12.2161736,33.103935 11.7251282,32.884985 11.4417208,32.493485 C11.7061858,32.58121 11.3863507,32.103435 11.9517085,32.494935 C11.5918029,32.57976 12.519252,32.889335 12.4602392,33.14816 C12.4230829,33.06116 12.4602392,33.018385 12.5746221,33.01911 C12.6416491,33.057535 12.6817195,33.11336 12.7013905,33.151785 C13.3563605,33.30911 12.1608035,32.58121 12.3465847,32.36661 C12.6321779,32.629785 12.9694983,32.76101 12.9323421,32.67401 C12.8565725,32.75956 12.3859267,32.32456 12.2139879,32.061385 C12.5644224,32.100535 12.1571607,31.768485 12.2431301,31.714835 L12.0639058,31.71411 C11.7790412,31.449485 11.8752104,31.40816 11.8555394,31.23416 C12.1017906,31.408885 11.9502514,31.45166 12.0828482,31.49661 C11.6289591,30.97026 12.836173,31.67351 12.5921074,31.239235 C12.8558439,31.32696 13.174222,31.675685 13.363646,31.720635 C13.0999095,31.240685 13.930461,31.856935 13.7432226,31.42266 C13.2907906,31.15731 13.3840455,31.243585 13.0824242,30.80641 L13.1385229,31.32841 L12.6890051,30.675185 C12.6125069,30.760735 12.7997453,31.065235 12.6868194,31.065235 C12.4216258,30.71506 12.5170664,30.802785 12.1411325,30.58311 C12.8565725,30.93546 11.972108,30.05966 12.5017667,30.238735 L13.5195566,31.030435 C14.1417416,31.166735 13.2937048,30.24526 13.768722,30.164785 L13.5217422,30.116935 C13.1458084,29.766035 13.5996975,29.900885 13.5064426,29.683385 C13.8401203,29.955985 14.0084162,29.995135 14.2502961,30.121285 C13.9938452,29.929885 14.4324346,29.935685 13.7730933,29.38251 L14.3180517,29.60581 C14.6779573,29.523885 13.5501558,28.595885 13.835749,28.46901 C14.154127,28.822085 14.4717765,28.91126 14.6225872,29.26216 C14.6830572,29.19256 14.795983,29.175885 14.5613887,28.991735 C14.8069113,29.114985 14.2604959,28.43421 14.6349726,28.619085 C14.5096613,28.472635 14.1614126,28.18481 14.2532104,28.126085 C14.32898,28.171035 14.4207778,28.25731 14.4207778,28.25731 C14.2532104,28.12536 14.2925523,27.952085 13.8612483,27.72951 C15.0961472,28.33561 14.2765241,27.04946 15.3380271,27.56856 C15.3489555,27.32206 15.390483,27.04801 15.4786381,26.88561 C15.5726215,26.974785 15.646934,27.01901 15.5901068,27.018285 C16.0614812,27.06976 14.7151135,26.13306 15.2440437,26.18526 C15.8815284,26.502085 15.4451246,26.53761 15.7088611,26.62896 C16.8468623,27.47576 15.7715167,26.239635 16.5401411,26.602135 L16.5772974,26.68986 C17.0457575,26.873285 16.3784021,26.077235 16.6071681,25.95181 C16.6071681,25.95181 16.6982373,26.03881 16.7740069,26.085935 C16.308461,25.50811 16.3164751,25.117335 16.3048182,24.812835 C16.693866,25.21376 16.4687428,25.076735 16.937203,25.39356 C16.9401172,25.26306 16.2093776,24.85416 16.2159346,24.595335 C16.4956993,24.731635 16.7973206,24.78021 17.2803519,25.139085 L17.1834542,25.31091 C17.8551809,25.717635 17.3204224,25.098485 17.490904,25.102835 L17.7488121,25.324685 C17.8493525,25.02381 17.1819971,24.486585 17.4311626,24.274885 L17.2096822,24.140035 C16.6559812,23.47376 17.6744996,24.32346 17.2912802,23.793485 L17.997249,24.289385 C17.9076368,24.06971 17.6016442,23.454185 17.6060155,23.19101 C18.0300339,23.681835 18.13276,24.074785 18.3345694,24.428585 C18.4117961,24.343035 18.5298219,24.08566 18.2354861,23.77391 C18.2711852,23.861635 18.3994107,24.038535 18.2675425,23.99141 C17.8274959,23.458535 17.6839708,23.106185 17.8391528,22.93726 C19.1155792,24.013885 18.5407502,22.736435 19.6576233,23.422285 C19.4317716,22.721935 20.3694205,22.96771 20.5894438,22.542135 C19.4747563,21.85411 20.6477281,22.41236 19.5935106,21.595285 C19.5964248,21.45681 19.6401381,21.43796 19.7129934,21.485085 L20.5420878,21.72941 C20.8932508,21.91356 20.7045553,21.995485 20.943521,22.176735 C21.1744726,22.05566 21.4462232,22.455135 21.8214285,22.55591 C21.430195,22.28041 21.3434971,22.060735 21.5715345,22.07016 L20.9726632,21.83091 C20.6338856,21.12331 22.0239665,22.313035 21.6924744,21.608335 L21.9503825,21.95561 C21.8673274,21.664885 22.3605584,21.467685 21.6407471,20.65931 C21.7791724,20.73326 22.0873507,20.93336 22.1135786,21.052985 C22.5018979,20.836935 21.8206999,19.62111 22.5361399,19.791485 L22.76782,20.02276 C22.7445063,19.90386 22.3809579,19.530485 22.6956932,19.66461 C22.7969622,19.753785 22.9273733,19.89516 22.9652581,19.879935 C22.9047882,19.776985 22.6548942,19.35866 22.8669034,19.40071 L23.0942122,19.701585 C23.6821552,19.662435 22.800605,18.656135 22.8457753,18.25231 C23.5852575,18.864935 24.0274898,18.818535 24.2496987,18.796785 L24.3509677,18.888135 C24.7443868,18.60466 24.2526129,17.76946 24.2438703,17.194535 C25.2186754,17.65491 25.1698623,16.77331 25.8976877,16.816085 C25.7213776,16.755185 25.3308727,16.327435 25.3068305,16.20636 C25.5217539,16.25421 24.9782526,15.56256 25.6426938,16.14111 L25.6062661,16.157785 C26.3173347,16.65441 26.2758072,16.346285 26.4003899,16.237535 L25.5363249,15.47556 C27.0954303,16.22956 25.7949616,14.224935 27.0932447,15.01591 C26.9409769,14.751285 27.0269463,14.65631 26.8732214,14.39241 L27.340953,14.796235 C27.6469456,14.680235 27.7992134,14.622235 27.9165106,14.258285 L28.2057465,14.599035 C28.3660284,14.47361 27.0131037,13.25416 27.1056301,13.09031 L27.8429267,13.64566 C28.0578501,13.370885 28.9051583,13.631885 28.4949824,12.828585 C28.5933372,12.92066 28.7893182,13.101185 28.7805756,13.16861 C28.9066154,13.05986 29.6694113,13.09611 28.6698354,12.31746 C29.2978488,12.850335 28.9663568,12.09851 28.814089,11.719335 L29.2563213,12.13766 C28.7711044,11.511985 28.6137367,11.36916 28.5962514,11.061035 C28.6902349,11.07336 28.9947704,11.343785 28.8315743,11.29521 C29.1878372,11.37061 28.4847827,10.81671 28.8694591,10.866735 L29.111339,11.179935 C29.2650639,11.07481 29.0982251,10.949385 28.820646,10.57891 C28.7099058,10.33386 29.1608807,10.420135 29.5943703,10.759435 C29.3568617,10.52236 29.0821969,10.154785 29.2723494,10.177985 C29.4384597,10.302685 29.5105866,10.41651 29.5455572,10.472335 C30.0555449,10.51511 29.30732,9.67266 29.8952631,9.906835 C30.0497165,10.035885 30.1349573,10.09171 30.1925131,10.118535 C30.02276,10.28891 29.8704922,10.411435 29.8486356,10.369385 C30.272654,10.73551 30.4744634,10.655035 30.9574947,11.277085 C30.7411142,10.88486 30.2223838,10.083735 30.5458617,10.11491 C30.5932177,10.14391 30.6391166,10.172185 30.7090578,10.22366 L30.7432998,10.279485 C30.8146981,10.28311 30.8008556,10.220035 30.7542281,10.13086 C30.8627827,10.146085 30.9400094,10.162035 30.9844512,10.124335 C31.3487281,10.411435 31.3188574,10.12216 31.3997269,10.06416 C30.9319953,9.667585 31.0900915,9.63786 30.630374,9.39426 C30.6733586,9.41166 30.6726301,9.455885 30.6500449,9.521135 C30.6536877,9.54361 30.6493164,9.56246 30.6704444,9.593635 L30.6340167,9.553035 C30.6056031,9.612485 30.5618899,9.683535 30.5065198,9.760385 C30.3221956,9.49866 30.1772134,9.26666 30.5043341,9.41021 C30.2456975,9.11441 29.9768611,8.807735 29.8471785,8.65911 C30.5793752,9.12166 31.0959199,9.234035 31.5170241,9.554485 C31.4521828,9.10716 31.8033458,8.88531 31.0594922,7.987035 C31.0033936,7.82681 31.3713133,8.132035 31.5286809,8.227735 C31.5833225,8.340835 31.5323237,8.37201 31.6394211,8.50106 C31.5279524,8.18061 31.8805725,8.052285 31.3021007,7.49186 C31.7151907,7.57306 31.780032,8.06896 31.8740155,7.765185 L32.0328403,7.956585 C33.3770222,8.381435 31.1097624,5.90701 32.7694083,6.52616 C32.6644965,6.492085 32.6149548,6.477585 32.5078574,6.394935 C33.5343899,6.34056 32.9872459,4.828935 34.3277851,5.06891 C34.636692,5.073985 34.2680437,4.71511 34.0596773,4.363485 L34.5805933,4.769485 L34.1558464,4.106835 C33.9431086,3.51306 35.7076662,4.80066 35.1794646,3.81756 L34.8166448,3.557285 C34.9703697,3.512335 34.9120854,3.06211 35.2756338,3.42026 C35.2253635,3.355735 34.9630841,3.078785 35.170722,3.19406 L35.4293586,3.420985 L35.2151638,2.77791 C35.5750694,2.752535 36.20454,3.72331 36.508347,3.48841 C36.5039757,3.29556 36.0326013,2.519085 35.825692,2.40381 C35.7754218,2.43426 35.569241,2.36756 35.3098758,2.139185 L35.2632483,1.923135 C34.5252232,1.225685 33.8214401,0.45356 33.0812294,0.21431 L33.3930504,0.795035 L32.9792318,0.518085 L33.0819579,0.358585 C32.6666822,0.12731 32.9260474,0.451385 33.0841436,0.69571 C32.8779628,0.53331 32.7213237,0.433985 32.6193262,0.40136 L33.1934267,1.21191 C32.8801485,0.96541 32.6732392,0.61161 32.4116883,0.573185 C32.678339,0.950185 33.1395137,1.096635 33.2466111,1.419985 C32.8320639,1.19016 32.5734273,0.915385 32.7825222,1.27136 C32.5763415,1.109685 32.4699726,0.97846 32.4182453,0.86536 C32.5763415,1.15681 32.3191619,1.17131 32.6827104,1.57441 C32.1843795,1.27571 32.5413709,1.950685 31.8332165,1.301085 C31.9811129,1.48016 32.2637919,1.949235 32.2251785,2.05146 C31.4929818,1.145935 31.9191858,2.288535 31.0325357,1.42941 C31.711548,2.221835 31.0405498,2.10511 31.3050149,2.66771 C31.2532876,2.603185 31.1469187,2.472685 31.2008317,2.491535 C31.0441926,2.536485 30.7840988,2.358135 30.5793752,2.294335 C31.2059316,2.875785 31.2095743,3.16506 31.5272238,3.60151 C30.7986699,3.178835 30.8452974,2.858385 30.2180124,2.371185 C30.7411142,2.825035 30.5400333,3.04906 31.009222,3.389085 C30.5422189,3.14621 30.7505854,3.307885 30.1764849,2.88666 C30.9611374,3.61311 30.231855,3.09691 30.651502,3.61166 C30.1335002,3.400685 29.8704922,2.983085 29.9783182,3.35211 C29.6679542,3.20711 29.5062153,2.81996 29.5062153,2.81996" id="Fill-55" fill="#262626" sketch:type="MSShapeGroup" mask="url(#mask-2)"></path>
                    </g>
                    <path d="M30.6498263,9.5209175 C30.6461836,9.5049675 30.6294268,9.4846675 30.6337982,9.4716175 C30.5857136,9.4491425 30.5427289,9.4281175 30.5041156,9.4099925 C30.5485574,9.4585675 30.5922706,9.5064175 30.6345267,9.5528175 L30.6498263,9.5209175 Z" id="Fill-58" fill="#262626" sketch:type="MSShapeGroup"></path>
                    <path d="M6.78851973,37.50483 L6.80454792,37.50628 C6.78123419,37.49758 6.75792047,37.488155 6.72367843,37.46858 C6.75209203,37.48453 6.76666311,37.492505 6.78851973,37.50483" id="Fill-60" fill="#262626" sketch:type="MSShapeGroup"></path>
                    <path d="M22.822753,11.5045175 L22.9415073,11.6038425 L22.8606378,11.4892925 L22.822753,11.5045175 Z" id="Fill-62" fill="#262626" sketch:type="MSShapeGroup"></path>
                    <path d="M3.75584118,38.05438 C3.70994228,38.026105 3.65967206,38.000005 3.61231605,37.985505 C3.64510098,38.00798 3.69755686,38.03118 3.75584118,38.05438" id="Fill-64" fill="#262626" sketch:type="MSShapeGroup"></path>
                    <path d="M3.06910625,38.7542225 L2.81119816,38.7360975 C2.94670919,38.7614725 3.02029314,38.7614725 3.06910625,38.7542225" id="Fill-66" fill="#262626" sketch:type="MSShapeGroup"></path>
                    <path d="M2.38033137,39.175955 C2.46557218,39.245555 2.52677071,39.29558 2.58432647,39.342705 L2.58869779,39.344155 L2.38033137,39.175955 Z" id="Fill-68" fill="#262626" sketch:type="MSShapeGroup"></path>
                    <path d="M8.95494767,29.2587525 C8.95859044,29.2486025 8.95859044,29.2362775 8.95057635,29.2188775 C8.89739191,29.0927275 8.90686311,29.1579775 8.95494767,29.2587525" id="Fill-70" fill="#262626" sketch:type="MSShapeGroup"></path>
                    <path d="M7.94364197,32.928195 C7.87734357,32.831045 7.81250227,32.73607 7.78117445,32.66357 C7.70540484,32.68532 7.66606293,32.716495 7.94364197,32.928195" id="Fill-72" fill="#262626" sketch:type="MSShapeGroup"></path>
                    <path d="M10.8034347,25.689505 L10.8114488,25.696755 C10.8150915,25.688055 10.8216485,25.683705 10.8267484,25.67718 L10.8034347,25.689505 Z" id="Fill-74" fill="#262626" sketch:type="MSShapeGroup"></path>
                    <path d="M7.88878186,32.5390875 C7.75327083,32.5158875 7.74234252,32.5731625 7.78095588,32.6630625 C7.84506863,32.6471125 7.93176654,32.6362375 7.88878186,32.5390875" id="Fill-76" fill="#262626" sketch:type="MSShapeGroup"></path>
                    <path d="M0.248655453,41.629065 L0.206399326,41.64284 C0.239912806,41.66604 0.265412194,41.687065 0.284354596,41.70374 L0.248655453,41.629065 Z" id="Fill-78" fill="#262626" sketch:type="MSShapeGroup"></path>
                    <path d="M0.284208885,41.7041025 L0.319908027,41.7787775 C0.330107782,41.7635525 0.335936213,41.7483275 0.284208885,41.7041025" id="Fill-80" fill="#262626" sketch:type="MSShapeGroup"></path>
                    <path d="M0.395823346,41.93661 L0.319325184,41.77856 C0.301111336,41.801035 0.26468364,41.81916 0.395823346,41.93661" id="Fill-82" fill="#262626" sketch:type="MSShapeGroup"></path>
                    <path d="M1.05953597,40.9943275 L0.885411581,40.8551275 C0.919653615,40.8870275 0.975752267,40.9327025 1.05953597,40.9943275" id="Fill-84" fill="#262626" sketch:type="MSShapeGroup"></path>
                    <path d="M1.18375441,40.71368 C1.10069926,40.741955 0.692709069,40.58173 0.747350613,40.74413 L0.885775858,40.855055 C0.64462451,40.62378 1.44821949,40.98773 1.18375441,40.71368" id="Fill-86" fill="#262626" sketch:type="MSShapeGroup"></path>
                    <path d="M4.14700178,41.312965 L3.85558021,41.41084 C4.07341783,41.514515 4.3648394,41.65444 4.34443989,41.779865 C5.10213597,41.94009 3.87597972,41.521765 4.14700178,41.312965" id="Fill-88" fill="#262626" sketch:type="MSShapeGroup"></path>
                    <path d="M4.88531832,40.89058 C4.89478952,41.063855 5.16435447,41.091405 5.26853768,41.17623 C5.14468352,40.98048 5.11262714,40.931905 4.88531832,40.89058" id="Fill-90" fill="#262626" sketch:type="MSShapeGroup"></path>
                    <path d="M8.22989081,36.3952175 L8.66920882,36.7395925 C8.66702316,36.6090925 8.49654154,36.6098175 8.22989081,36.3952175" id="Fill-92" fill="#262626" sketch:type="MSShapeGroup"></path>
                    <path d="M6.56827788,33.811245 L6.22950031,33.68437 L6.60980545,34.02947 L6.56827788,33.811245 Z" id="Fill-94" fill="#262626" sketch:type="MSShapeGroup"></path>
                    <path d="M10.1313437,35.6928375 L10.1677714,35.7769375 L10.1102156,35.5181125 L10.1313437,35.6928375 Z" id="Fill-96" fill="#262626" sketch:type="MSShapeGroup"></path>
                    <path d="M15.726565,28.1492125 L15.166307,27.7497375 C15.2194914,27.8809625 15.8183627,28.3681625 15.726565,28.1492125" id="Fill-98" fill="#262626" sketch:type="MSShapeGroup"></path>
                    <path d="M17.7107087,24.5442225 C18.0072301,24.7240225 18.2512957,24.7733225 18.0312724,24.5079725 C17.937289,24.5492975 17.6706382,24.4528725 17.7107087,24.5442225" id="Fill-100" fill="#262626" sketch:type="MSShapeGroup"></path>
                    <path d="M26.3320515,15.8794575 L26.4551771,16.0897075 L26.4085497,15.8497325 L26.3320515,15.8794575 Z" id="Fill-102" fill="#262626" sketch:type="MSShapeGroup"></path>
                    <g id="Group-106">
                        <mask id="mask-4" sketch:name="Clip 105" fill="white">
                            <use xlink:href="#path-3"></use>
                        </mask>
                        <g id="Clip-105"></g>
                        <path d="M28.8722276,58 C29.0580089,57.958675 29.4492423,57.7883 29.3406878,57.74335 L28.6463759,57.952875 L28.8722276,58 Z" id="Fill-104" fill="#262626" sketch:type="MSShapeGroup" mask="url(#mask-4)"></path>
                    </g>
                    <path d="M29.919451,57.00559 C29.5580883,57.04474 28.9439173,57.16654 28.3479602,57.46524 C29.0306153,57.300665 28.7683358,57.42754 29.5763021,57.220915 C29.6841281,57.26514 29.411649,57.436965 29.1588407,57.521065 C29.3424363,57.47974 29.0575718,57.69579 29.4961612,57.57109 C29.9784639,57.26949 29.9507789,57.136815 29.4692047,57.17524 C29.6061729,57.08969 29.7926827,57.04764 29.919451,57.00559" id="Fill-107" fill="#262626" sketch:type="MSShapeGroup"></path>
                    <path d="M28.0618571,49.2277175 L28.0006586,49.3067425 C28.0400005,49.2762925 28.0574858,49.2501925 28.0618571,49.2277175" id="Fill-109" fill="#262626" sketch:type="MSShapeGroup"></path>
                    <path d="M26.6298844,44.51848 C26.6597551,44.546755 26.7326105,44.535155 26.793809,44.513405 C26.7369818,44.49818 26.6852545,44.48803 26.6298844,44.51848" id="Fill-111" fill="#262626" sketch:type="MSShapeGroup"></path>
                    <path d="M27.0644668,43.449105 C27.0498957,43.47448 27.0455244,43.49188 27.0367817,43.512905 C27.0921518,43.470855 27.1191083,43.440405 27.0644668,43.449105" id="Fill-113" fill="#262626" sketch:type="MSShapeGroup"></path>
                    <path d="M28.0618571,49.2277175 L28.2250532,49.0232675 C28.0021157,49.1001175 28.0873565,49.1494175 28.0618571,49.2277175" id="Fill-115" fill="#262626" sketch:type="MSShapeGroup"></path>
                    <path d="M27.8942169,56.624385 C27.9372015,56.63671 28.0078713,56.63381 28.0974834,56.621485 C28.0603271,56.61206 28.0275422,56.601185 28.0013143,56.58741 C27.9648866,56.599735 27.9328302,56.611335 27.8942169,56.624385" id="Fill-117" fill="#262626" sketch:type="MSShapeGroup"></path>
                    <path d="M29.4018135,51.0267325 L29.4171131,51.0637075 C29.4979826,51.0441325 29.5948803,51.0180325 29.7034348,50.9875825 L29.4018135,51.0267325 Z" id="Fill-119" fill="#262626" sketch:type="MSShapeGroup"></path>
                    <path d="M30.1146306,52.5306725 C30.1255589,52.4857225 29.5492728,52.6974225 29.2942789,52.7815225 C29.5376159,52.7090225 29.660013,52.6908975 29.7161116,52.7046725 C29.8253947,52.6626225 29.9528917,52.6075225 30.1146306,52.5306725" id="Fill-121" fill="#262626" sketch:type="MSShapeGroup"></path>
                    <path d="M30.0752159,55.3725275 L30.171385,55.3848525 C30.1422428,55.3834025 30.1116436,55.3732525 30.0752159,55.3725275" id="Fill-123" fill="#262626" sketch:type="MSShapeGroup"></path>
                    <path d="M29.0893367,49.87304 C29.1731204,49.837515 29.2459758,49.802715 29.2882319,49.77879 C29.2161051,49.807065 29.1505352,49.838965 29.0893367,49.87304" id="Fill-125" fill="#262626" sketch:type="MSShapeGroup"></path>
                    <path d="M7.74576673,8.3577275 C7.7872943,8.3432275 7.81206513,8.3309025 7.84776428,8.3178525 C7.78656575,8.3316275 7.74430962,8.3446775 7.74576673,8.3577275" id="Fill-127" fill="#262626" sketch:type="MSShapeGroup"></path>
                    <path d="M9.87139565,5.4607725 L9.91219467,5.4738225 C10.0214778,5.4339475 10.1285752,5.3947975 10.2342155,5.3534725 L9.87139565,5.4607725 Z" id="Fill-129" fill="#262626" sketch:type="MSShapeGroup"></path>
                    <path d="M27.234147,41.7364375 C27.2290471,41.7415125 27.2290471,41.7429625 27.2254044,41.7473125 C27.3055453,41.7589125 27.2858743,41.7422375 27.234147,41.7364375" id="Fill-131" fill="#262626" sketch:type="MSShapeGroup"></path>
                    <path d="M21.6449727,28.80715 C21.1925407,29.15515 20.8938336,28.822375 20.4144452,29.267525 C20.6293686,29.1595 21.3856075,29.1218 21.6449727,28.80715" id="Fill-133" fill="#262626" sketch:type="MSShapeGroup"></path>
                    <path d="M27.9535211,56.5550025 C27.9389501,56.5368775 27.9258361,56.5173025 27.9229219,56.4941025 C27.9156363,56.5303525 27.9258361,56.5484775 27.9535211,56.5550025" id="Fill-135" fill="#262626" sketch:type="MSShapeGroup"></path>
                    <path d="M20.4141537,29.2673075 C20.4112395,29.2680325 20.4090539,29.2694825 20.4090539,29.2694825 L20.3646121,29.3129825 C20.384283,29.2948575 20.397397,29.2832575 20.4141537,29.2673075" id="Fill-137" fill="#262626" sketch:type="MSShapeGroup"></path>
                    <path d="M25.5933707,38.584355 C25.4950159,38.630755 25.4243462,38.67353 25.3565907,38.71558 C25.414875,38.691655 25.4833591,38.65613 25.5933707,38.584355" id="Fill-139" fill="#262626" sketch:type="MSShapeGroup"></path>
                    <path d="M25.7460028,41.3505925 L25.7984586,41.2599675 C25.7562025,41.3041925 25.7460028,41.3310175 25.7460028,41.3505925" id="Fill-141" fill="#262626" sketch:type="MSShapeGroup"></path>
                    <path d="M24.2846693,37.628515 C24.3152686,37.57849 24.3895811,37.53644 24.2955976,37.521215 C24.2679126,37.537165 24.2489702,37.548765 24.2307563,37.56254 C24.3159971,37.54804 24.3604389,37.55529 24.2846693,37.628515" id="Fill-143" fill="#262626" sketch:type="MSShapeGroup"></path>
                    <path d="M23.7590176,36.306695 C23.7182186,36.33062 23.6890765,36.353095 23.6533773,36.376295 C23.6701341,36.384995 23.6847051,36.396595 23.7007333,36.40602 L23.7590176,36.306695 Z" id="Fill-145" fill="#262626" sketch:type="MSShapeGroup"></path>
                    <path d="M9.60773199,12.27135 C9.75708554,12.179275 9.92756716,12.092275 10.0980488,12.009625 C9.69880123,12.1887 9.47732083,12.05095 9.60773199,12.27135" id="Fill-147" fill="#262626" sketch:type="MSShapeGroup"></path>
                    <path d="M28.2153634,56.49809 C28.0681955,56.546665 27.9924259,56.56334 27.9538126,56.555365 C27.966198,56.56769 27.9829547,56.57784 28.0018971,56.587265 C28.0878665,56.55754 28.168736,56.52709 28.2153634,56.49809" id="Fill-149" fill="#262626" sketch:type="MSShapeGroup"></path>
                    <path d="M19.7521168,39.3377025 L19.7535739,39.0948275 C19.7215175,39.1745775 19.7222461,39.2623025 19.7521168,39.3377025" id="Fill-151" fill="#262626" sketch:type="MSShapeGroup"></path>
                    <path d="M13.4353357,21.731875 L13.3479093,21.710125 C13.3420808,21.73405 13.3653945,21.744925 13.4353357,21.731875" id="Fill-153" fill="#262626" sketch:type="MSShapeGroup"></path>
                    <path d="M19.4229561,38.5036625 C19.6094659,38.3876625 19.7114635,38.3021125 19.7712049,38.2310625 C19.7238489,38.2397625 19.6830499,38.2441125 19.6145658,38.2636875 L19.4229561,38.5036625 Z" id="Fill-155" fill="#262626" sketch:type="MSShapeGroup"></path>
                    <path d="M10.1036586,12.0065075 C10.101473,12.0079575 10.0978302,12.0094075 10.0978302,12.0094075 C10.0978302,12.0094075 10.101473,12.0079575 10.1036586,12.0065075" id="Fill-157" fill="#262626" sketch:type="MSShapeGroup"></path>
                    <path d="M15.5674488,13.1670875 C15.6730891,13.1975375 15.5689059,13.2620625 15.4552515,13.3164375 C15.4333949,13.2910625 15.4006099,13.2642375 15.3437827,13.2345125 C15.3211975,13.2410375 15.2956982,13.2468375 15.2709273,13.2548125 C15.3823961,13.2178375 15.4873078,13.1844875 15.5674488,13.1670875 M11.9326933,15.5472625 C11.936336,15.4907125 11.9166651,15.4298125 11.8875229,15.3681875 C12.0798612,15.2768375 12.2889561,15.2130375 12.294056,15.2565375 C12.1541737,15.2862625 12.0762184,15.4232875 11.9326933,15.5472625 M11.7687686,15.1579375 C11.7629402,15.1601125 11.7592974,15.1615625 11.7571118,15.1622875 C11.7279696,15.1267625 11.7031988,15.0970375 11.686442,15.0781875 C11.7024702,15.0955875 11.7250554,15.1187875 11.7687686,15.1579375 M8.19885441,11.1530375 C8.26151005,11.3596625 8.97112157,10.9594625 9.41991078,10.8333125 C9.72736054,10.9891875 8.90992304,11.1602875 8.5580315,11.3915625 C8.81521103,11.4633375 9.55032194,11.3081875 9.56489301,11.4307125 C9.44468162,11.4879875 9.40825392,11.5271375 9.24287218,11.5619375 C9.90294203,11.4865375 9.45706703,12.0194125 10.280333,11.9099375 C10.2191344,11.9498125 10.1586645,11.9809875 10.1040229,12.0063625 C10.4675713,11.8301875 10.848605,11.6757625 11.1232699,11.5757125 C11.172083,11.6598125 11.6638569,11.5561375 11.1859255,11.7823375 C11.17864,11.7214375 10.9790162,11.7946625 10.8150915,11.8287375 L11.0664426,11.8388875 C10.3932588,12.1999375 10.7706498,11.8062625 10.2482766,12.0107125 C10.5506265,12.1042375 11.219439,12.0897375 11.0751853,12.3079625 C10.396173,12.6073875 10.713094,12.0701625 10.172507,12.4979125 L10.3510027,12.1774625 C9.32592733,12.7697875 10.375045,12.0150625 9.26910012,12.6240625 C9.18167365,12.9887375 9.7470315,12.8067625 9.65814792,13.1707125 C10.0675952,13.0851625 10.2176773,12.9278375 10.6271246,12.8415625 C11.4773471,12.9778625 9.01629191,13.8406125 10.0544812,13.7789875 C10.5455266,13.6760375 11.4314482,13.3650125 11.0526001,13.7579625 L10.2431767,13.9906875 C10.2752331,14.2980875 11.4285339,13.7101125 11.0176295,14.2060125 C10.6897803,14.2741625 10.672295,14.0892875 10.5957968,14.1675875 C10.0537527,14.5960625 11.091942,14.1269875 11.1487692,14.2719875 L10.4690284,14.5721375 C10.6941516,14.8244375 11.3221651,14.9542125 11.5771589,15.2318875 C11.3644212,15.2942375 11.1254555,15.3225125 10.9440456,15.4820125 C11.4525762,15.7589625 11.2070536,16.3947875 10.9535168,16.9530375 L11.6106724,16.8711125 C11.617958,16.9095375 11.3666069,17.0422125 11.2361957,17.0494625 C11.070814,17.2930625 11.617958,16.9095375 11.8816945,16.8921375 C11.9581926,16.9639125 11.5844445,17.1429875 11.3833636,17.1567625 C11.9975346,17.2321625 12.7814586,17.5098375 12.2554426,18.0477875 L12.0558189,18.0608375 C11.902094,18.3798375 13.3796013,17.8353625 12.9053127,18.2609375 L12.7836442,18.2623875 C12.7166173,18.8510875 13.4757705,19.1751625 12.7209886,19.8987125 C13.6090958,19.6333625 12.5279218,20.5309125 13.739507,20.0930125 C13.2550186,20.6034125 13.009496,20.6077625 12.7639733,21.1551375 C12.7501308,21.2812875 13.5748538,21.0188375 13.7504353,21.0985875 L13.125336,21.3472625 L13.8517043,21.2653375 L13.1391786,21.6517625 L13.347545,21.7104875 C13.3657588,21.6474125 13.5886963,21.4980625 13.7722919,21.4342625 C14.1307404,21.5132875 13.517298,22.0671875 13.1981914,22.1969625 L13.9056173,22.4383875 C13.6491663,22.5268375 13.5333262,22.4855125 13.3490021,22.4891375 C14.0833844,22.4782625 12.705689,22.7907375 13.3781442,22.7805875 C13.5092839,22.6957625 13.7584494,22.6508125 13.8866749,22.6058625 C13.5508115,22.8632375 13.6455235,23.1133625 13.8779322,23.2351625 L13.4320572,23.3685625 C13.4531853,23.7441125 13.915817,23.9884375 14.0549708,24.3647125 C14.2035958,24.1515625 14.9649347,23.8898375 15.0800462,23.9710375 L14.435276,24.2733625 C14.8724083,24.1841875 14.6399996,24.0616625 15.1988005,24.0109125 C15.1769439,24.1798375 14.4819034,24.3987875 14.2349237,24.4031375 L14.5314451,24.4828875 C14.3376498,24.5698875 14.2174384,24.5713375 13.9609874,24.6597875 C14.4003054,24.5677125 13.4116577,25.2115125 14.165711,25.0324375 L13.9726442,25.1194375 C14.1139837,25.4942625 14.409048,25.5747375 14.5620444,25.8654625 C15.1368734,25.6472375 15.0560039,25.8161625 15.5543348,25.7255375 C15.4603513,26.0206125 15.1084598,26.4440125 15.2629132,26.6941375 C15.6220903,26.7717125 15.7692582,26.5600125 16.1430064,26.5121625 C15.6271902,26.7296625 15.7816436,26.9790625 15.3525254,26.9855875 C15.5645346,27.2755875 15.6191761,27.3575125 16.2034763,27.6003875 C16.3994574,27.4727875 16.4723127,27.3865125 16.6602797,27.3430125 C16.7753912,27.3836125 16.5087404,27.5967625 16.2537466,27.6844875 L16.192548,27.6859375 C17.1549678,27.8389125 15.090246,29.3374875 16.3207735,29.2773125 L16.2588464,29.2780375 L16.975015,29.4353625 C16.9531583,29.6448875 16.5415254,29.4839375 16.2705033,29.7391375 C17.3006786,29.8072875 16.3987288,30.4329625 17.110526,30.5431625 C15.6760033,31.4037375 17.5826289,31.4240375 16.7404206,32.1591875 L17.0944978,31.9967875 C17.4850027,31.9489375 16.9305732,32.1874625 16.873746,32.2875125 C17.151325,32.1678875 17.1600676,32.0613125 17.3793624,32.0410125 C18.1195732,32.6391375 17.4769886,33.8353875 17.4609604,34.7510625 C17.4777172,35.0773125 19.3989138,34.1826625 18.6776455,34.8844625 L17.9651197,35.0432375 C19.0011234,35.3100375 18.4066234,36.2445625 19.3158587,36.5468875 C19.1475627,36.5729875 18.9450248,36.6512875 18.9260824,36.5947375 C18.4853072,36.9057625 19.0776216,37.0485875 19.4768691,36.8948875 C19.4666694,37.0014625 19.1249776,37.0565625 18.9435676,37.1899625 C18.7031449,37.4234125 19.6866926,37.2494125 19.2262466,37.5038875 C19.1512055,37.5452125 19.0543078,37.5314375 19.0076804,37.5241875 C19.2750597,37.5104125 19.0921926,37.9142375 19.6254941,37.6191625 C19.44117,37.9374375 20.0378556,37.9294625 19.7712049,38.2310625 C20.4451173,38.0962125 19.6131087,38.7153625 20.5172441,38.4028875 C19.5912521,38.7465375 19.9234727,39.0669875 20.4094181,39.0336375 C20.1136252,39.0967125 20.1675382,39.2634625 19.7617337,39.3613375 C19.8353176,39.5106875 20.0618979,39.5853625 20.5238011,39.3736625 C19.5351534,40.0877875 21.6355744,39.5984125 20.2877496,40.3096375 C20.9631191,40.5749875 21.4650928,40.8678875 21.8439408,41.1963125 C20.9201344,41.5399625 21.5721902,40.7758125 20.6155989,41.1702125 C21.1481718,41.4138125 22.0246222,41.3311625 21.9561381,41.8060375 C21.8708973,41.9553875 21.5357625,41.9046375 21.3660094,41.9314625 C21.8978538,42.1750625 21.5802043,42.7195375 22.2169604,42.8725125 C22.1317196,42.9044125 22.0231651,42.9036875 21.9393814,42.8957125 C21.9969371,42.9522625 21.8679831,43.1074125 22.2818017,42.9370375 L22.1419194,42.9145625 C22.704363,42.5680125 23.5137864,42.6919875 23.8387214,42.5796125 C22.5972656,42.9305125 23.6733397,43.0399875 22.090192,43.4459875 C22.1870897,43.4597625 22.4063844,43.4394625 22.6817778,43.3198375 C22.6264077,43.4184375 22.4719543,43.5039875 22.1280768,43.5598125 C22.4515548,43.7164125 22.8610021,43.4561375 22.9389574,43.6823375 C22.7364194,43.7606375 22.6409788,43.7461375 22.3947276,43.8157375 C22.833317,43.7744125 23.2711779,43.7338125 23.1750088,43.9882875 C23.0482404,44.0245375 22.8988869,44.1079125 22.8799445,44.0506375 C23.0679114,44.3500625 24.1454426,44.1912875 23.9050199,44.6937125 C22.9863134,44.9322375 23.66314,44.9271625 22.9112723,45.2425375 L23.2128936,45.3447625 L23.5516712,45.1243625 C23.6041271,45.2961875 24.2153838,45.2273125 24.0237741,45.4680125 L23.6616828,45.4658375 L23.9290621,45.7224875 L24.1476283,45.4324875 C24.6051602,45.4484375 25.1013054,45.0388125 24.9774512,45.3440375 C24.8827392,45.3288125 25.0335499,45.5144125 24.6204598,45.7761375 C24.6204598,45.7761375 24.6204598,45.7754125 24.6182741,45.7761375 C24.892939,45.7645375 25.1807178,45.7493125 25.0408354,45.9465125 C24.8106124,46.0733875 24.190613,46.2488375 24.0376167,46.3329375 C24.7042435,46.1661875 24.3676516,46.6548375 25.0845487,46.4938875 C24.9118814,46.5214375 24.5133624,46.6751375 24.4361357,46.7186375 L24.9789083,46.5852375 C24.8441259,46.7266125 24.7683563,46.7693875 24.4463354,46.8810375 C24.4434212,47.1500125 25.3803415,46.4308125 25.0736203,46.8687125 C25.0233501,46.8636375 24.9512233,46.9035125 24.8543256,46.8897375 C24.7472282,47.2507875 25.392727,47.2964625 25.2397306,47.6502625 C24.5046197,48.0243625 24.9650658,47.5009125 24.3538091,47.8387625 C24.6372165,48.1519625 25.5697656,48.2411375 25.5296951,48.6667125 L25.5879794,48.5673875 C26.6866387,48.1947375 25.1595897,49.0400875 25.7395186,49.0205125 C25.6418924,49.0081875 25.1173336,49.1974125 25.2426449,49.1618875 C25.1646896,49.4729125 25.7038195,49.5555625 26.1890364,49.7911875 L25.8932435,49.8542625 C25.7023624,50.0942375 25.8998005,50.2870875 25.8349592,50.4915375 C26.129295,50.4291875 26.1198238,50.5350375 26.5008575,50.3240625 C25.1107766,51.4180875 27.7066142,50.9040625 26.5591418,51.8414875 C26.5358281,51.7921875 26.2691773,51.8153875 26.284477,51.8559875 L26.6815388,52.1169875 C27.1405278,51.9045625 26.947461,51.9589375 27.2833244,51.7399875 C27.5798458,51.6761875 27.8362968,51.6935875 27.871996,51.7834875 C27.4960621,51.7428875 27.1172141,52.0800125 26.8826197,52.2525625 C27.0217735,52.1844125 27.190798,52.1459875 27.3343232,52.0829125 C26.5722558,52.5983875 28.2931001,51.7450625 27.8311969,52.2221125 L27.5791173,52.3054875 C27.7430419,52.3518875 28.1044047,52.3134625 28.0745339,52.4446875 C27.5477895,52.7006125 27.7809267,52.4417875 27.3306804,52.6099875 C27.419564,52.7433875 28.47451,52.4947125 27.9841933,52.8390875 C27.8086118,52.8361875 27.770727,52.7477375 27.595874,52.7448375 C27.014488,53.1377875 27.1827839,53.0913875 27.1237711,53.2378375 L27.1339708,53.2218875 L26.9423612,53.5814875 L27.0909862,53.4509875 C28.5801504,53.0797875 27.4960621,53.7214125 28.5218661,53.6046875 C27.548518,53.7090875 27.9980358,53.7634625 27.3751222,53.9860375 C27.2279543,54.1158125 27.0742294,54.2861875 26.8899053,54.3267875 C27.4334065,54.2484875 26.57517,54.6733375 27.3663795,54.5537125 C27.1718556,54.6385375 27.3962502,54.6856625 26.8877196,54.8538625 C27.1033716,54.9437625 27.2192116,54.6834875 27.4727484,54.5986625 C28.2428299,54.5667625 26.8665915,55.4672125 27.9295517,55.4389375 C28.4256969,55.5781375 29.1163661,55.3700625 29.5549555,55.5078125 C29.2730051,55.7224125 28.8030879,55.7166125 28.8030879,55.7166125 C28.5684935,55.9768875 28.6653912,56.0653375 28.9473415,56.1139125 C28.7630174,56.1537875 28.6275064,56.2400625 28.4220542,56.3683875 C28.5167662,56.4590125 29.1731933,56.1603125 28.9378703,56.4198625 C28.7069187,56.4814875 28.3404561,56.5880625 28.0978477,56.6214125 C28.3317135,56.6801375 28.7528176,56.6634625 28.9844978,56.7287125 C28.6530058,56.8990875 28.4278826,56.8519625 28.183817,56.8925625 C28.3987404,56.9831875 28.6515487,57.1622625 29.2169065,56.9955125 L29.3742741,56.8222375 C29.4230873,56.8671875 28.9152852,57.0339375 28.7994451,57.0324875 C28.3193281,57.0709125 28.9152852,56.7714875 29.1119947,56.6859375 L29.2766479,56.7323375 C30.4015352,56.1791625 28.9378703,56.4198625 28.9291277,56.2009125 L29.8070352,55.9507875 L29.0267539,56.0269125 C29.230749,55.8985875 29.6919237,55.6854375 29.8558483,55.7311125 C30.2193967,55.4295125 29.506871,55.7260375 29.926518,55.4251625 C29.993545,55.3838375 30.0365297,55.3736875 30.075143,55.3722375 L29.7698789,55.3359875 C29.9578458,55.2932125 30.3585505,55.0800625 30.2689384,55.2105625 C30.6609004,54.7770125 29.4799145,55.0677375 30.0846142,54.7255375 L30.1450842,54.7255375 C29.7261657,54.5007875 29.5105137,54.9357875 28.6821479,54.9676875 L30.1472699,54.1991875 L29.5134279,54.4087125 C29.521442,54.3652125 29.541113,54.2782125 29.7946498,54.1941125 C29.3181755,54.2310875 29.5330989,54.3217125 29.1025235,54.4036375 C29.6023115,54.0150375 28.65592,54.0454875 29.6307251,53.6213625 C29.1345799,53.7460625 29.3291038,53.9236875 28.9305848,53.8736625 C29.9746026,53.4067625 28.6668483,53.7380875 29.0945094,53.3944375 C29.6627815,53.2269625 29.4289157,53.4850625 29.8587625,53.1406875 C28.8934286,53.4118375 29.9447319,52.7636875 29.7159659,52.7049625 C28.974298,52.9877125 29.297776,52.5447375 28.9662839,52.4251125 C29.2198207,52.3417375 29.2110781,51.8596125 29.399045,51.5536625 L29.5250848,51.5116125 C28.7630174,51.7646375 28.8220303,51.5014625 28.6078354,51.4108375 C29.0580817,51.2419125 29.2445915,51.2005875 29.4770002,51.2042125 L29.4172588,51.0635625 C29.1651792,51.1237375 29.0209255,51.1288125 28.899257,51.0700875 L29.4719004,50.8873875 C29.36626,50.7104875 28.6639341,50.7634125 28.9407846,50.3748125 C28.4147686,50.5647625 27.5667319,51.1346125 27.1172141,51.0135375 C27.3947931,50.8939125 27.8734531,50.6967125 28.0147925,50.7184625 C27.9703507,50.7104875 27.7503275,50.7315125 27.8530536,50.6401625 L28.3674126,50.5575125 C28.5313373,50.3653875 27.9484941,50.6546625 27.9579653,50.5488125 C28.3601271,50.3936625 28.2180591,50.3711875 28.5422656,50.2595375 C28.5896216,50.2667875 28.4067545,50.4009125 28.5779647,50.3733625 C28.6100211,50.2457625 28.8009022,50.0318875 29.0894096,49.8731125 C28.8642864,49.9709875 28.548094,50.0848125 28.4672245,50.0318875 C28.3637699,49.8542625 28.9247564,49.7781375 29.0879525,49.5874625 C28.791431,49.6505375 29.0325824,49.4170875 28.4307968,49.6483625 C28.4118544,49.5918125 28.6879763,49.4721875 28.8424298,49.3873625 C28.5386228,49.3931625 28.5859788,48.9596125 27.9907502,49.3199375 L27.9586939,49.3612625 C27.9441228,49.3612625 27.9419371,49.3561875 27.9259089,49.3554625 L27.9266375,49.3561875 L27.9259089,49.3554625 C27.2024549,49.2684625 28.0031357,48.5565125 27.6213734,48.3390125 L27.8217257,48.2607125 C27.5171902,48.1606625 27.5193759,47.8909625 27.0341589,47.9243125 C27.0123023,47.8684875 27.3488942,47.6488125 27.5973311,47.5792125 C27.3889647,47.4929375 27.156556,47.5647125 27.4057214,47.2254125 C27.8137116,47.2348375 27.6956859,47.0543125 27.7211853,47.2747125 C27.8202686,47.0187875 28.1248042,46.8498625 27.4960621,46.8621875 C28.0381063,46.7295125 28.0876479,46.4670625 27.8989525,46.4373375 L27.58276,46.7135625 C27.4676485,46.6417875 27.4785768,46.5359375 27.4873195,46.4293625 L28.1830885,46.2133125 C28.8540866,45.5049875 26.5074145,46.0646875 27.7699984,45.2323875 C27.2563679,45.3150375 27.5193759,45.5716875 26.9292472,45.6971125 C26.9503752,45.4839625 27.8494108,44.9191875 27.8290113,44.8626375 C28.1080474,44.4733125 26.7507515,45.0221375 26.906662,44.6676125 C26.6786246,44.7944875 26.0462398,45.0772375 25.7431614,44.9757375 C25.7628324,44.7633125 26.669882,44.3616625 26.9081191,44.3979125 C26.9452754,44.4327125 26.8760627,44.4834625 26.7937362,44.5131875 C26.9044763,44.5363875 27.0378017,44.5711875 27.2716675,44.3986375 L27.021045,44.4696875 C27.2330542,44.2855375 27.1106571,44.0513625 27.5295756,43.9534875 C27.2461681,43.9092625 27.1106571,44.0513625 27.0246877,44.1992625 C27.2840529,43.8345875 26.8942766,43.8396625 27.0370732,43.5126875 C26.9183189,43.6025875 26.6487539,43.7475875 26.6363685,43.7091625 C26.7995646,43.2480625 26.1183667,43.7367125 25.9209286,43.5453125 C26.2363924,43.2690875 26.8177784,43.2487875 26.4170738,43.1349625 C26.609412,42.8942625 27.0458158,42.8543875 27.2651105,42.8340875 C26.7150523,42.8021875 27.413007,42.3149875 27.4501632,42.1598375 L27.6898575,42.1960875 C27.5470609,42.1743375 27.5288471,42.1177875 27.5084475,42.0612375 L27.0501871,42.3142625 C27.1084714,42.2149375 27.0888005,42.1583875 27.2898814,42.0808125 C26.9467325,42.1366375 26.5074145,42.4469375 26.021469,42.4810125 C26.2320211,42.2968625 25.6520922,42.3149875 26.2808342,42.0344125 C26.1730082,42.3969125 26.9124904,41.7523875 27.1084714,41.9466875 C27.0137594,41.9314625 26.9955456,41.8749125 27.0538299,41.7755875 C27.1215854,41.7371625 27.1900695,41.7328125 27.2345113,41.7364375 C27.7022429,41.2470625 26.4615156,41.8973875 26.3675321,41.6168125 C26.7427374,41.5109625 27.027602,41.2854875 26.93289,41.2709875 C26.9693176,41.3848125 26.3515039,41.5595375 26.034583,41.5653375 C26.2458636,41.2796875 25.7497184,41.4558625 25.7460756,41.3507375 L25.6557349,41.5073375 C25.2805297,41.6131875 25.2929151,41.5066125 25.1304475,41.4283125 C25.407298,41.3072375 25.3679561,41.4638375 25.474325,41.3717625 C24.7858415,41.4834125 26.0098121,40.8062625 25.5071099,40.7830625 C25.717662,40.5996375 26.1824794,40.5097375 26.3179904,40.3676375 C25.765018,40.3371875 26.7216093,39.9435125 26.2458636,39.8702875 C25.7861461,40.1247625 25.9092717,40.0892375 25.3737846,40.1167875 L25.8604586,40.3516875 L25.0619635,40.3908375 C25.0983912,40.5046625 25.4597539,40.5061125 25.4029267,40.6054375 C24.9628801,40.6474875 25.0881914,40.6119625 24.7064292,40.8222125 C25.3745131,40.3857625 24.1629279,40.6866375 24.5854892,40.3183375 L25.7897888,39.8536125 C26.2203642,39.3801875 24.9869224,39.6252375 25.1537613,39.1634125 L24.9883795,39.3555375 C24.4929629,39.4961875 24.8382974,39.1692125 24.6007888,39.1336875 C25.0065934,38.9872375 25.1253477,38.8610875 25.3562993,38.7153625 C25.0605064,38.8378875 25.2841724,38.4536375 24.4696491,38.7356625 L24.9381093,38.3760625 C25.0459353,38.0142875 23.6689684,38.5065625 23.7010248,38.1868375 C24.1687564,38.0962125 24.4055364,37.8642125 24.7887558,37.9207625 C24.7574279,37.8301375 24.7989555,37.7213875 24.5206479,37.8286875 C24.7515995,37.6786125 23.8817061,37.7931625 24.231412,37.5626125 C24.0398023,37.5937875 23.6143268,37.7460375 23.6084984,37.6329375 C23.6849966,37.5901625 23.8073936,37.5560875 23.8073936,37.5560875 C23.6084984,37.6329375 23.475173,37.5053375 23.0649972,37.7663375 C24.2102839,37.0021875 22.6715781,37.0355375 23.6536687,36.3757875 C23.4423881,36.2344125 23.2209077,36.0509875 23.1218244,35.8864125 C23.2464071,35.8501625 23.3221767,35.8088375 23.2937631,35.8581375 C23.5713422,35.4688125 22.0821779,36.1590125 22.3896277,35.7196625 C22.9826706,35.3245375 22.7983464,35.7290875 23.0096271,35.5449375 C24.3159243,34.9903125 22.6970775,35.2817625 23.3950321,34.7938375 L23.4912012,34.8083375 C23.8838918,34.4907875 22.852988,34.6568125 22.8559022,34.3871125 C22.8559022,34.3871125 22.9768422,34.3530375 23.0562545,34.3102625 C22.318958,34.4146625 21.9772662,34.2007875 21.7018728,34.0499875 C22.2461026,33.9180375 22.0158795,34.0449125 22.5244102,33.7969625 C22.4107558,33.7259125 21.6924016,34.1565625 21.4658213,34.0137375 C21.7237294,33.8375625 21.913882,33.5968625 22.4668544,33.3583375 L22.5717662,33.5352375 C23.2595211,33.1553375 22.4508262,33.3003375 22.5375241,33.1517125 L22.859545,33.0407875 C22.6424359,32.7913875 21.8417551,33.0995125 21.7761853,32.7660125 L21.5488765,32.8921625 C20.6899114,33.0313625 21.9371957,32.5760625 21.2822257,32.6362375 L22.0646926,32.2708375 C21.8271841,32.2345875 21.1336007,32.1816625 20.9033777,32.0395625 C21.5437766,31.9206625 21.9408385,32.0366625 22.3524714,32.0446375 C22.3138581,31.9308125 22.144105,31.6901125 21.724458,31.7865375 C21.8198985,31.8010375 22.0391933,31.7807375 21.9328244,31.8735375 C21.2472551,31.9837375 20.8662214,31.9257375 20.7926375,31.6988125 C22.3655854,31.1289625 20.9572907,30.9680125 22.103306,30.3343625 C21.3725664,30.1676125 22.0421075,29.4607375 21.7688998,29.0402375 C20.6221559,29.6753375 21.6822018,28.9206125 20.4494886,29.4346375 C20.3285487,29.3592375 20.33292,29.3106625 20.4094181,29.2700625 L21.0250462,28.6567125 C21.3572668,28.4392125 21.3390529,28.6509125 21.6144463,28.5320125 C21.6180891,28.2623125 22.103306,28.2282375 22.372871,27.9454875 C21.9401099,28.1506625 21.7033299,28.1129625 21.8213556,27.9143125 L21.3208391,28.3253875 C20.5310866,28.2586875 22.2541167,27.6359125 21.4687355,27.5641375 L21.9014966,27.5148375 C21.6042466,27.4365375 21.663988,26.8906125 20.5995707,27.1160875 C20.731439,27.0305375 21.056374,26.8579875 21.1758569,26.8971375 C21.1671142,26.4360375 19.7588195,26.4171875 20.2505934,25.8640125 L20.5667858,25.7755625 C20.4494886,25.7349625 19.9438722,25.8683625 20.2127086,25.6544875 C20.3402055,25.6102625 20.5281724,25.5667625 20.5325437,25.5247125 C20.4123324,25.5261625 19.9205585,25.5334125 20.0589837,25.3644875 L20.4349175,25.3159125 C20.6782545,24.7678125 19.3632147,25.0396875 19.0251657,24.7917375 C19.921287,24.4430125 20.0903115,24.0203375 20.1740952,23.8093625 L20.3030493,23.7658625 C20.2338366,23.2656125 19.2546602,23.2793875 18.7359298,22.9937375 C19.6043661,22.3513875 18.792757,21.9446625 19.1708765,21.3095625 C19.0339083,21.4378875 18.4685505,21.5720125 18.3490676,21.5321375 C18.4918642,21.3617625 17.6197852,21.5009625 18.4474224,21.1957375 L18.4452368,21.2370625 C19.2218752,20.8477375 18.9275395,20.7273875 18.8860119,20.5599125 L17.8019237,20.9535875 C19.2000186,19.9277125 16.7979763,20.0886625 18.1079163,19.3150875 C17.799738,19.3194375 17.7538391,19.1940125 17.4456608,19.1998125 L18.0241326,18.9794125 C18.0612888,18.6444625 18.0787741,18.4769875 17.806295,18.1869875 L18.245613,18.0963625 C18.2069996,17.8875625 16.4876124,18.5009125 16.3834292,18.3348875 L17.2219947,17.9455625 C17.0755554,17.6127875 17.6948262,16.9755125 16.7834053,16.9457875 C16.9116308,16.9022875 17.1637104,16.8145625 17.2205376,16.8558875 C17.1797386,16.6884125 17.5593152,16.0127125 16.4023716,16.5318125 C17.1688103,16.2273125 16.3397159,16.1533625 15.9288115,16.1033375 L16.5065548,15.9104875 C15.7219022,16.0388125 15.5215499,16.1113125 15.2359567,15.9750125 C15.2898697,15.8952625 15.6723605,15.7524375 15.5543348,15.8771375 C15.7838293,15.5907625 14.9649347,15.9547125 15.1856865,15.6306375 L15.5776485,15.5653875 C15.5528777,15.3739875 15.3634537,15.4638875 14.9037362,15.5320375 C14.6327141,15.5110125 14.915393,15.1448875 15.4180952,14.9186875 C15.0960744,15.0172875 14.6407282,15.0847125 14.7478256,14.9237625 C14.9357925,14.8338625 15.0713036,14.8244375 15.1368734,14.8208125 C15.4078955,14.3771125 14.3063219,14.6431875 14.7835248,14.2248625 C14.9700346,14.1472875 15.0589181,14.0972625 15.1084598,14.0588375 C15.1871436,14.2959125 15.2293998,14.4952875 15.1813152,14.4938375 C15.7036884,14.2901125 15.7211737,14.0660875 16.5021835,13.9334125 C16.0490229,13.9370375 15.0909745,14.0138875 15.2643703,13.7347625 C15.3117263,13.7064875 15.3576252,13.6782125 15.4355805,13.6397875 L15.5018789,13.6361625 C15.5375781,13.5730875 15.4741939,13.5549625 15.3721963,13.5535125 C15.434852,13.4614375 15.4836651,13.3998125 15.4698225,13.3403625 C15.8931124,13.1496875 15.617719,13.0344125 15.6016908,12.9321875 C15.0326902,13.1634625 15.0764034,13.0054125 14.6501994,13.3041125 C14.6844414,13.2736625 14.7245119,13.2954125 14.773325,13.3483375 C14.7959102,13.3555875 14.8104812,13.3693625 14.8483661,13.3650125 C14.8316093,13.3693625 14.8126669,13.3744375 14.7951816,13.3780625 C14.8359806,13.4331625 14.8804224,13.5085625 14.9255928,13.5962875 C14.6057576,13.6354375 14.3310928,13.6535625 14.6072147,13.4266375 C14.2210811,13.5223375 13.8225621,13.6165875 13.6331381,13.6564625 C14.3799059,13.2163875 14.7135836,12.8009625 15.1922435,12.5747625 C14.7587539,12.4145375 14.7150407,11.9846125 13.5697539,12.2245875 C13.3992723,12.1970375 13.840776,12.0107125 13.9974151,11.9142875 C14.1241835,11.9193625 14.1292833,11.9817125 14.2939365,11.9461875 C13.9544304,11.8918125 13.9966865,11.5068375 13.2309763,11.7613125 C13.4888844,11.4241875 13.9675444,11.6068875 13.7336786,11.3734375 L13.9777441,11.3219625 C14.9591062,10.2997125 11.7075701,11.1704375 13.0051246,9.9553375 C12.9271694,10.0350875 12.8921988,10.0727875 12.7698017,10.1307875 C13.172692,9.1658125 11.564045,8.9381625 12.3683685,7.8274625 C12.5075223,7.5461625 12.0201197,7.7121875 11.6084868,7.7353875 L12.205901,7.4526375 L11.4161485,7.5251375 C10.7830352,7.4374125 12.7253599,6.4332875 11.5990156,6.4492375 L11.2041393,6.6580375 C11.2303673,6.4956375 10.794692,6.3354125 11.2791804,6.1715625 C11.1990395,6.1875125 10.8325768,6.2962625 11.0271007,6.1606875 L11.3469359,6.0309125 L10.6686522,5.9221625 C10.8019776,5.5799625 11.9596498,5.4625125 11.8780517,5.0710125 C11.7002846,4.9832875 10.7888636,5.0485375 10.5936112,5.1841125 C10.5994396,5.2450125 10.4493575,5.4030625 10.1287937,5.5328375 L9.91168468,5.4733875 C8.95582194,5.8213875 7.94823186,6.1041375 7.4069163,6.6689125 L8.07062892,6.6558625 L7.63859645,6.9045375 L7.53878456,6.7363375 C7.14682255,7.0067625 7.55481275,6.9219375 7.84550576,6.8914875 C7.60799718,7.0038625 7.44844387,7.1010125 7.37413137,7.1785875 L8.36205049,7.0343125 C8.0014163,7.2046875 7.58978333,7.2278875 7.44042978,7.4482875 C7.89941875,7.3823125 8.233825,7.0299625 8.57405968,7.0843375 C8.18428333,7.3547625 7.82146348,7.4620625 8.23673922,7.4381375 C7.99923064,7.5505125 7.8338489,7.5853125 7.70780907,7.5802375 C8.04221532,7.5722625 7.94240343,7.8136875 8.46769081,7.6723125 C7.97883113,7.9862375 8.74818407,7.9782625 7.84769142,8.3175625 C8.07500025,8.2675375 8.62578701,8.2305625 8.70155662,8.3139375 C7.55772696,8.5546375 8.78315466,8.7054375 7.61309706,9.1078125 C8.63088689,8.8627625 8.23091078,9.4181125 8.85892426,9.4434875 C8.77732623,9.4601625 8.61121593,9.4956875 8.6527435,9.4558125 C8.6243299,9.6189375 8.34893652,9.7711875 8.20031152,9.9270625 C9.0039065,9.6327125 9.26691446,9.7668375 9.80240159,9.6856375 C9.09788995,10.1474625 8.828325,9.9524375 8.10924228,10.2924625 C8.75182684,10.0314625 8.86548125,10.3214625 9.38129743,10.0561125 C8.95436483,10.3656875 9.19260196,10.2533125 8.55730294,10.5752125 C9.56270735,10.2069125 8.77149779,10.6245125 9.42428211,10.4874875 C9.00317794,10.8586875 8.50848983,10.8985625 8.88952353,10.9768625 C8.62068713,11.1900125 8.19885441,11.1530375 8.19885441,11.1530375" id="Fill-159" fill="#262626" sketch:type="MSShapeGroup"></path>
                    <path d="M14.7731793,13.3483375 C14.7571511,13.3439875 14.7309232,13.3483375 14.721452,13.3389125 C14.6762816,13.3715375 14.6376683,13.4005375 14.607069,13.4266375 C14.6711817,13.4099625 14.7338374,13.3947375 14.7950359,13.3780625 C14.7877504,13.3686375 14.7811934,13.3570375 14.7731793,13.3483375" id="Fill-161" fill="#262626" sketch:type="MSShapeGroup"></path>
                    <path d="M27.990896,49.3197925 L28.0003672,49.3067425 C27.9806962,49.3219675 27.9610252,49.3371925 27.9260547,49.3553175 C27.951554,49.3393675 27.9697679,49.3321175 27.990896,49.3197925" id="Fill-163" fill="#262626" sketch:type="MSShapeGroup"></path>
                    <path d="M12.9810095,21.40403 L13.1252632,21.346755 L12.9846523,21.36198 L12.9810095,21.40403 Z" id="Fill-165" fill="#262626" sketch:type="MSShapeGroup"></path>
                    <path d="M26.8826926,52.2522725 C26.8338795,52.2761975 26.7850664,52.3044725 26.7479101,52.3378225 C26.7843378,52.3218725 26.8316938,52.2892475 26.8826926,52.2522725" id="Fill-167" fill="#262626" sketch:type="MSShapeGroup"></path>
                    <path d="M27.1236254,53.237765 L26.9720862,53.449465 C27.0653411,53.34724 27.1039544,53.284165 27.1236254,53.237765" id="Fill-169" fill="#262626" sketch:type="MSShapeGroup"></path>
                    <path d="M27.1238439,54.067745 C27.2280271,54.037295 27.3045253,54.01047 27.3744665,53.98582 C27.3759236,53.985095 27.3759236,53.98437 27.3781093,53.98292 L27.1238439,54.067745 Z" id="Fill-171" fill="#262626" sketch:type="MSShapeGroup"></path>
                    <path d="M21.9392357,42.895495 C21.9326787,42.886795 21.9210218,42.88027 21.902808,42.878095 C21.7658398,42.856345 21.8270384,42.88317 21.9392357,42.895495" id="Fill-173" fill="#262626" sketch:type="MSShapeGroup"></path>
                    <path d="M24.6182013,45.7762825 C24.5001756,45.7806325 24.3843355,45.7849825 24.3049231,45.7726575 C24.2852521,45.8502325 24.2925377,45.9017075 24.6182013,45.7762825" id="Fill-175" fill="#262626" sketch:type="MSShapeGroup"></path>
                    <path d="M19.7512425,39.3646725 C19.7548853,39.3639475 19.7563424,39.3624975 19.7614423,39.3610475 C19.7563424,39.3537975 19.7556138,39.3458225 19.7519711,39.3378475 L19.7512425,39.3646725 Z" id="Fill-177" fill="#262626" sketch:type="MSShapeGroup"></path>
                    <path d="M24.2523215,45.61033 C24.1627094,45.715455 24.2064226,45.75678 24.3047774,45.77273 C24.3237198,45.70748 24.3586904,45.62628 24.2523215,45.61033" id="Fill-179" fill="#262626" sketch:type="MSShapeGroup"></path>
                    <g id="Group-183">
                        <mask id="mask-6" sketch:name="Clip 182" fill="white">
                            <use xlink:href="#path-5"></use>
                        </mask>
                        <g id="Clip-182"></g>
                        <path d="M28.0947877,57.286165 L28.084588,57.33039 C28.1217442,57.315165 28.1538006,57.305015 28.1778429,57.29849 L28.0947877,57.286165 Z" id="Fill-181" fill="#262626" sketch:type="MSShapeGroup" mask="url(#mask-6)"></path>
                    </g>
                    <g id="Group-186">
                        <mask id="mask-8" sketch:name="Clip 185" fill="white">
                            <use xlink:href="#path-7"></use>
                        </mask>
                        <g id="Clip-185"></g>
                        <path d="M28.1780615,57.298345 L28.2611166,57.31067 C28.2538311,57.292545 28.2436313,57.279495 28.1780615,57.298345" id="Fill-184" fill="#262626" sketch:type="MSShapeGroup" mask="url(#mask-8)"></path>
                    </g>
                    <g id="Group-189">
                        <mask id="mask-10" sketch:name="Clip 188" fill="white">
                            <use xlink:href="#path-9"></use>
                        </mask>
                        <g id="Clip-188"></g>
                        <path d="M28.436771,57.3351025 L28.2604609,57.3104525 C28.2706607,57.3387275 28.2662893,57.3807775 28.436771,57.3351025" id="Fill-187" fill="#262626" sketch:type="MSShapeGroup" mask="url(#mask-10)"></path>
                    </g>
                    <path d="M27.9831004,56.230855 L27.7710912,56.30118 C27.8169901,56.290305 27.8854742,56.26783 27.9831004,56.230855" id="Fill-190" fill="#262626" sketch:type="MSShapeGroup"></path>
                    <path d="M27.808976,55.9649975 C27.7893051,56.0527225 27.4344993,56.3108225 27.6027953,56.3564975 L27.7710912,56.3013975 C27.4454276,56.3760725 28.1849099,55.8939475 27.808976,55.9649975" id="Fill-192" fill="#262626" sketch:type="MSShapeGroup"></path>
                    <path d="M29.8957002,53.7556325 L29.825759,54.0630325 C30.0297541,53.9339825 30.3051475,53.7621575 30.4013166,53.8520575 C30.939718,53.2887325 29.9321279,54.1079825 29.8957002,53.7556325" id="Fill-194" fill="#262626" sketch:type="MSShapeGroup"></path>
                    <path d="M29.9195239,52.8786725 C30.0739773,52.9685725 30.2400876,52.7517975 30.3675846,52.7097475 C30.1337187,52.7061225 30.0747059,52.7053975 29.9195239,52.8786725" id="Fill-196" fill="#262626" sketch:type="MSShapeGroup"></path>
                    <path d="M27.7776482,47.44545 L28.3029356,47.2555 C28.1885526,47.183725 28.1011262,47.333075 27.7776482,47.44545" id="Fill-198" fill="#262626" sketch:type="MSShapeGroup"></path>
                    <path d="M24.6781613,47.4581375 L24.3932967,47.6821625 L24.8887134,47.5422375 L24.6781613,47.4581375 Z" id="Fill-200" fill="#262626" sketch:type="MSShapeGroup"></path>
                    <path d="M28.1429452,45.39602 L28.234743,45.41052 L27.9797491,45.316995 L28.1429452,45.39602 Z" id="Fill-202" fill="#262626" sketch:type="MSShapeGroup"></path>
                    <path d="M24.3574518,36.3444675 L23.7287098,36.6250425 C23.8700493,36.6482425 24.5964175,36.3807175 24.3574518,36.3444675" id="Fill-204" fill="#262626" sketch:type="MSShapeGroup"></path>
                    <path d="M22.1504434,32.6607425 C22.4542504,32.4925425 22.6159894,32.3011425 22.2742976,32.3562425 C22.265555,32.4620925 22.049903,32.6476925 22.1504434,32.6607425" id="Fill-206" fill="#262626" sketch:type="MSShapeGroup"></path>
                    <path d="M18.5327361,20.4401425 L18.7789873,20.4357925 L18.5407502,20.3560425 L18.5327361,20.4401425 Z" id="Fill-208" fill="#262626" sketch:type="MSShapeGroup"></path>
                </g>
            </g>
        </g>
    </g>
</svg>