<?xml version="1.0" encoding="UTF-8" standalone="no"?>
<svg width="29px" height="589px" viewBox="0 0 29 589" version="1.1" xmlns="http://www.w3.org/2000/svg" xmlns:xlink="http://www.w3.org/1999/xlink" xmlns:sketch="http://www.bohemiancoding.com/sketch/ns">
    <!-- Generator: Sketch 3.4.3 (16044) - http://www.bohemiancoding.com/sketch -->
    <title>Page 1</title>
    <desc>Created with Sketch.</desc>
    <defs>
        <path id="path-1" d="M0,0.834 L28.253,0.834 L28.253,589 L0,589 L0,0.834 Z"></path>
        <path id="path-3" d="M0,0.834 L28.253,0.834 L28.253,589 L0,589"></path>
    </defs>
    <g id="Welcome" stroke="none" stroke-width="1" fill="none" fill-rule="evenodd" sketch:type="MSPage">
        <g id="Onclick_Photo" sketch:type="MSArtboardGroup" transform="translate(-1293.000000, -218.000000)">
            <g id="Roadmap" sketch:type="MSLayerGroup" transform="translate(1130.000000, 218.000000)">
                <g id="Page-1" transform="translate(163.000000, 0.000000)">
                    <g id="Group-3">
                        <mask id="mask-2" sketch:name="Clip 2" fill="white">
                            <use xlink:href="#path-1"></use>
                        </mask>
                        <g id="Clip-2"></g>
                        <path d="M12.6215,588.9673 C13.1265,589.1303 13.9975,588.6703 13.5675,587.8983 L11.8125,587.8043 L12.6215,588.9673 Z" id="Fill-1" fill="#F9BBA2" sketch:type="MSShapeGroup" mask="url(#mask-2)"></path>
                    </g>
                    <path d="M13.8874,582.5099 C12.8184,581.7729 11.1494,581.0119 9.8584,582.0559 C11.6774,582.5999 11.1124,583.0179 13.2404,583.5279 C13.6724,584.2979 13.1624,585.1199 12.5374,585.1559 C13.0314,585.3259 12.5764,586.5539 13.7034,586.6929 C14.6044,585.2359 14.2524,583.8829 12.8114,582.7529 C13.0694,582.3479 13.5734,582.5249 13.8874,582.5099" id="Fill-4" fill="#F9BBA2" sketch:type="MSShapeGroup"></path>
                    <path d="M8.5158,499.6572 L8.2968,500.1852 C8.4118,500.0432 8.4788,499.8622 8.5158,499.6572" id="Fill-6" fill="#F9BBA2" sketch:type="MSShapeGroup"></path>
                    <path d="M13.4632,448.2327 C13.4652,448.6287 13.6112,448.8087 13.7582,448.8437 C13.6862,448.4687 13.6152,448.1597 13.4632,448.2327" id="Fill-8" fill="#F9BBA2" sketch:type="MSShapeGroup"></path>
                    <path d="M16.15,439.6085 C16.079,439.7925 16.04,439.9495 15.987,440.1165 C16.158,439.9335 16.262,439.7425 16.15,439.6085" id="Fill-10" fill="#F9BBA2" sketch:type="MSShapeGroup"></path>
                    <path d="M8.5158,499.6572 L9.0928,498.3042 C8.5578,498.1842 8.6628,498.9912 8.5158,499.6572" id="Fill-12" fill="#F9BBA2" sketch:type="MSShapeGroup"></path>
                    <path d="M7.1551,572.188 C7.2971,572.46 7.5001,572.666 7.7451,572.841 C7.6231,572.62 7.5141,572.404 7.4191,572.177 C7.3291,572.183 7.2511,572.19 7.1551,572.188" id="Fill-14" fill="#F9BBA2" sketch:type="MSShapeGroup"></path>
                    <path d="M9.5475,522.3315 L9.5555,522.7475 C9.7455,522.8665 9.9745,522.9765 10.2325,523.0795 L9.5475,522.3315 Z" id="Fill-16" fill="#F9BBA2" sketch:type="MSShapeGroup"></path>
                    <path d="M10.6023,539.5983 C10.6293,539.2053 9.2163,539.1763 8.5903,539.0723 C9.1873,539.2503 9.4873,539.5173 9.6263,539.8513 C9.8933,539.8363 10.2073,539.7603 10.6023,539.5983" id="Fill-18" fill="#F9BBA2" sketch:type="MSShapeGroup"></path>
                    <path d="M11.8791,567.1388 L12.1741,567.5778 C12.0871,567.4658 11.9861,567.2678 11.8791,567.1388" id="Fill-20" fill="#F9BBA2" sketch:type="MSShapeGroup"></path>
                    <path d="M9.8452,509.9203 C10.0542,509.8943 10.2402,509.8363 10.3522,509.7713 C10.1752,509.7683 10.0062,509.8273 9.8452,509.9203" id="Fill-22" fill="#F9BBA2" sketch:type="MSShapeGroup"></path>
                    <path d="M14.3616,22.2893 C14.4626,22.2893 14.5226,22.2613 14.6086,22.2533 C14.4556,22.1743 14.3526,22.1583 14.3616,22.2893" id="Fill-24" fill="#F9BBA2" sketch:type="MSShapeGroup"></path>
                    <path d="M17.6295,1.3112 L17.7615,1.5702 C18.0265,1.5412 18.2875,1.5132 18.5415,1.4552 L17.6295,1.3112 Z" id="Fill-26" fill="#F9BBA2" sketch:type="MSShapeGroup"></path>
                    <path d="M19.4907,423.6185 C19.4717,423.6485 19.4707,423.6595 19.4577,423.6885 C19.5767,424.1285 19.5727,423.8855 19.4907,423.6185" id="Fill-28" fill="#F9BBA2" sketch:type="MSShapeGroup"></path>
                    <path d="M13.1795,274.469 C12.0405,276.215 11.3845,271.872 10.1645,274.467 C10.6965,274.202 12.5065,276.59 13.1795,274.469" id="Fill-30" fill="#F9BBA2" sketch:type="MSShapeGroup"></path>
                    <path d="M7.2359,571.6952 C7.1689,571.4632 7.1039,571.2252 7.0659,570.9822 C7.0919,571.3182 7.1459,571.5362 7.2359,571.6952" id="Fill-32" fill="#F9BBA2" sketch:type="MSShapeGroup"></path>
                    <path d="M10.1648,274.4672 L10.1528,274.4682 L10.0388,274.7362 C10.0908,274.6252 10.1198,274.5622 10.1648,274.4672" id="Fill-34" fill="#F9BBA2" sketch:type="MSShapeGroup"></path>
                    <path d="M21.202,386.0035 C20.952,386.0715 20.76,386.2155 20.576,386.3655 C20.72,386.3585 20.899,386.2775 21.202,386.0035" id="Fill-36" fill="#F9BBA2" sketch:type="MSShapeGroup"></path>
                    <path d="M17.4786,413.8459 L17.7216,413.1729 C17.5716,413.4349 17.5106,413.6529 17.4786,413.8459" id="Fill-38" fill="#F9BBA2" sketch:type="MSShapeGroup"></path>
                    <path d="M19.5057,371.3641 C19.6107,370.9861 19.8037,370.8571 19.6127,370.3411 C19.5407,370.3891 19.4907,370.4361 19.4417,370.4981 C19.6357,370.6851 19.7267,370.9331 19.5057,371.3641" id="Fill-40" fill="#F9BBA2" sketch:type="MSShapeGroup"></path>
                    <path d="M19.1822,356.1694 C19.0792,356.2544 19.0032,356.3644 18.9132,356.4614 C18.9442,356.6114 18.9802,356.7854 19.0122,356.9394 L19.1822,356.1694 Z" id="Fill-42" fill="#F9BBA2" sketch:type="MSShapeGroup"></path>
                    <path d="M17.5637,66.809 C17.9607,66.492 18.3977,66.296 18.8297,66.144 C17.8297,66.358 17.4817,64.184 17.5637,66.809" id="Fill-44" fill="#F9BBA2" sketch:type="MSShapeGroup"></path>
                    <path d="M7.9244,572.0084 C7.5594,571.9984 7.3594,571.9084 7.2354,571.6954 C7.2894,571.8634 7.3524,572.0224 7.4184,572.1764 C7.6324,572.1744 7.8274,572.1414 7.9244,572.0084" id="Fill-46" fill="#F9BBA2" sketch:type="MSShapeGroup"></path>
                    <path d="M8.4141,370.7516 L8.6051,368.4116 C8.4741,369.0676 8.4081,369.9166 8.4141,370.7516" id="Fill-48" fill="#F9BBA2" sketch:type="MSShapeGroup"></path>
                    <path d="M7.0878,173.3192 L6.9908,172.7532 C6.9318,172.9592 6.9478,173.1572 7.0878,173.3192" id="Fill-50" fill="#F9BBA2" sketch:type="MSShapeGroup"></path>
                    <path d="M8.2758,361.4834 C8.7588,361.0534 9.0348,360.6014 9.2098,360.1384 C9.0978,360.0454 9.0038,359.9374 8.8398,359.8784 L8.2758,361.4834 Z" id="Fill-52" fill="#F9BBA2" sketch:type="MSShapeGroup"></path>
                    <path d="M18.8449,66.1395 C18.8379,66.1445 18.8299,66.1445 18.8299,66.1445 C18.8299,66.1445 18.8379,66.1445 18.8449,66.1395" id="Fill-54" fill="#F9BBA2" sketch:type="MSShapeGroup"></path>
                    <g id="Group-58">
                        <mask id="mask-4" sketch:name="Clip 57" fill="white">
                            <use xlink:href="#path-3"></use>
                        </mask>
                        <g id="Clip-57"></g>
                        <path d="M27.8087,99.0669 C27.9507,99.7949 27.6567,100.0099 27.3617,100.0829 C27.3637,99.7449 27.3477,99.3489 27.2927,98.8249 C27.2417,98.7999 27.1857,98.7529 27.1277,98.7269 C27.3907,98.8169 27.6347,98.9159 27.8087,99.0669 M17.2517,107.5959 C17.3557,107.0639 17.4277,106.3949 17.4847,105.6849 C17.9827,105.5759 18.4637,105.7919 18.3967,106.2349 C18.0977,105.9619 17.7207,106.9779 17.2517,107.5959 M17.6417,103.1759 C17.6277,103.1739 17.6187,103.1739 17.6137,103.1729 C17.6227,102.7169 17.6307,102.3289 17.6357,102.0809 C17.6367,102.3089 17.6387,102.6249 17.6417,103.1759 M15.3797,50.7459 C15.3827,52.9649 17.2077,51.7359 18.2777,52.1789 C18.8527,54.8369 16.9417,53.4479 16.0147,54.3729 C16.5357,56.0149 18.2567,57.2699 18.2097,58.5159 C17.9077,58.6109 17.8017,58.8529 17.4147,58.5729 C18.8837,60.3299 17.4657,63.7979 19.3037,65.8759 C19.1397,66.0279 18.9837,66.1029 18.8447,66.1399 C19.7697,65.8179 20.7117,65.7779 21.3797,65.8549 C21.4157,66.8669 22.5197,67.7569 21.3037,68.1159 C21.3547,67.4959 20.8697,67.4359 20.4997,67.1389 L20.9967,68.2089 C19.2347,69.1289 20.4377,66.7509 19.1477,66.7319 C19.6637,68.7959 21.0317,71.2429 20.5007,72.8139 C18.7947,73.0919 20.0267,69.1029 18.4617,71.1689 L19.1757,68.7439 C16.4477,70.5489 19.4017,67.2699 16.4907,68.9189 C15.9077,72.0949 17.2767,72.5129 16.6687,75.6859 C17.5777,76.4419 18.0737,75.5009 18.9847,76.2589 C20.4677,80.9009 14.5537,79.6409 16.6597,83.0869 C17.7357,84.0119 19.8577,84.4769 18.5707,86.7969 L16.7067,85.8659 C16.3197,88.9539 19.3467,87.8179 17.8507,90.9899 C17.1347,90.3569 17.3717,88.5029 17.1137,88.9569 C15.4617,90.9589 18.1167,90.5219 17.9897,92.1469 L16.2677,92.3579 C16.2627,95.6789 17.2307,99.4249 17.1737,103.1259 C16.6897,102.8769 16.2187,102.2009 15.6207,103.0099 C16.0557,107.7089 14.4407,112.8559 12.9537,117.1909 L14.2167,119.0569 C14.1557,119.4509 13.4737,119.7169 13.2407,119.2559 C12.4887,120.9289 14.1557,119.4509 14.6327,120.3519 C14.6207,121.3529 13.6447,121.5609 13.2787,120.8849 C14.1807,124.0869 14.8957,129.9459 12.9427,132.9849 L12.5887,132.2999 C11.6807,134.7429 15.2117,135.5199 13.5567,137.6849 L13.3557,137.2039 C12.0337,142.5919 12.5617,148.8139 9.8127,152.7039 C11.8037,153.7759 8.1597,157.9999 11.0367,158.7409 C9.1747,161.6799 8.7717,160.7149 7.2147,164.9979 C6.9237,166.1569 8.8107,166.9949 8.9267,168.4919 L7.3947,168.3289 L8.7407,170.5169 L6.7757,171.3339 L6.9907,172.7529 C7.1527,172.2199 7.8277,171.6829 8.2577,171.8229 C8.6677,174.0449 6.5287,176.8989 5.7387,176.8549 L6.3987,182.0819 C5.7977,181.8939 5.6927,181.0199 5.3837,180.2999 C6.6087,183.1979 3.7067,180.5929 4.8367,183.2509 C5.2237,182.9599 5.7267,183.5419 6.0287,183.6349 C4.9577,184.7609 4.6147,187.5809 4.7587,189.7119 L3.7507,189.1889 C3.0477,192.9329 3.3517,197.2059 2.9027,201.4509 C3.5467,199.9759 5.3427,200.5189 5.3957,201.7779 L3.7277,202.1109 C4.6487,203.0149 4.4677,200.8749 5.5287,202.6459 C5.1847,204.2089 3.5807,203.5279 3.1437,202.5629 L3.5147,204.5479 C3.0187,204.6139 2.8087,204.1359 2.2027,203.9569 C3.1357,204.8469 0.2357,207.1359 1.8877,208.4489 L1.3957,208.5139 C1.0237,212.7829 1.3737,214.7559 1.2107,218.2459 C2.6077,218.4199 2.1977,219.7569 3.2567,220.8719 C2.9417,222.1299 2.4547,223.4489 2.0387,224.8409 C1.6427,226.2359 1.3137,227.7039 1.2867,229.2509 C1.8647,231.4569 2.4407,229.9479 3.2207,230.9649 C1.9337,231.0559 1.8807,234.1419 1.0517,232.5009 C1.0987,236.2179 1.1167,237.2589 1.9887,241.9739 C2.5207,241.4789 2.7777,240.9159 3.2007,241.2229 C3.3777,242.0759 2.6257,243.1399 2.0087,243.0039 L1.8807,242.7769 C2.8087,245.4309 1.7847,248.4369 0.9527,251.3529 C0.1357,254.2639 -0.6133,257.0759 0.7627,259.1579 L0.6237,258.9249 L2.1477,263.2529 C1.9877,265.2669 1.1487,262.0799 0.4027,263.5919 C1.5337,265.9169 1.5227,267.7709 1.4637,269.5349 C1.3907,271.2969 1.2107,272.9709 2.0647,274.8519 C-1.5333,278.1279 3.1417,285.4249 1.1377,289.6439 L2.0017,289.3249 C2.9667,290.2779 1.6177,290.6289 1.4927,291.4129 C2.1687,291.2349 2.1727,290.2109 2.7197,290.8049 C4.6617,299.4499 3.4137,308.9739 3.6407,317.9359 C3.7757,321.2019 8.4237,319.2519 6.7787,323.5769 L5.0057,322.6029 C7.7127,328.9219 6.3817,335.9249 8.5887,342.1309 C8.1787,341.7839 7.6847,341.8149 7.6407,341.1949 C6.5517,342.6349 7.9777,346.1529 8.9577,346.1089 C8.9237,347.1069 8.0937,346.4039 7.6397,347.0479 C7.0207,348.4349 9.3887,350.3159 8.2437,351.1069 C8.0587,351.2399 7.8307,350.7539 7.7217,350.5139 C8.3747,351.3549 7.8077,354.5899 9.1447,353.6799 C8.6027,356.0879 9.9937,358.2069 9.2097,360.1379 C10.7917,361.3339 8.5807,364.2289 10.7807,364.5779 C8.5327,364.4519 8.9887,368.7799 10.0657,370.2919 C9.3787,369.7879 9.3667,371.6039 8.4157,371.0129 C8.4667,372.7269 8.8367,374.3099 10.0117,374.0189 C7.2747,377.1509 12.1057,380.4609 8.5647,382.1699 C9.1017,384.7469 9.5307,387.2379 9.8297,389.6679 C10.1477,392.0979 10.3737,394.4659 10.4887,396.7999 C8.2557,396.5039 10.5577,391.6649 8.1667,391.7459 C8.8717,396.1649 10.6557,398.8269 9.8117,403.1559 C9.4247,404.2629 8.8827,402.4469 8.5237,402.0409 C9.1537,406.4949 7.7047,410.5079 8.6037,414.5169 C8.3957,414.4889 8.2007,414.0479 8.0607,413.6349 C8.0737,414.4119 7.5887,415.3989 8.6157,415.3979 L8.3987,414.6239 C9.9887,413.5129 11.2367,417.9509 12.0027,418.1609 C9.1907,416.5949 10.9257,421.9699 7.4107,419.5609 C7.5587,420.0849 7.9857,420.7649 8.6797,420.7099 C8.4137,421.4459 7.9937,421.6479 7.2847,420.8149 C7.5977,423.6259 8.7667,422.7449 8.5107,425.2489 C8.0167,425.1949 7.8737,424.6709 7.3167,424.3589 C8.1617,425.7149 9.0067,427.0819 8.3897,429.1609 C8.1037,429.0049 7.6927,429.2139 7.7597,428.5829 C7.5637,432.2339 9.7257,435.0359 8.4047,438.9419 C6.3747,437.5509 7.5627,440.2319 5.6837,440.2599 L6.0247,442.4639 L7.0117,441.6909 C6.7937,443.5699 7.9817,445.3689 7.2137,446.9289 L6.5867,445.4529 L6.5897,449.0199 L7.4917,447.0899 C8.2607,449.0919 9.8627,447.1179 9.0977,449.5749 C8.9597,449.0469 8.8877,451.4569 7.6967,452.3319 C7.6967,452.3319 7.6977,452.3259 7.6927,452.3249 C8.1947,453.3159 8.7247,454.3359 8.1287,455.6849 C7.4997,455.9899 6.1017,455.1949 5.6847,455.3929 C7.1487,456.4629 5.6847,459.8529 7.2377,461.1759 C6.8847,460.7509 5.9117,460.6389 5.7007,460.7479 L6.8907,461.6399 C6.4057,462.4769 6.1987,462.5869 5.4337,462.3729 C4.9597,464.9829 7.8687,461.7549 6.5647,464.7829 C6.4847,464.5289 6.2857,464.6289 6.1407,464.0999 C5.3127,467.1889 6.4087,470.2349 5.5337,473.0639 C3.5877,473.7599 5.2927,470.5039 3.6297,471.3449 C3.6167,475.5469 5.1597,480.1539 4.4537,484.1569 L4.7117,483.4189 C7.3187,484.1589 3.2007,486.3359 4.3097,488.4629 C4.1467,487.9509 2.8847,487.7139 3.1697,487.8679 C2.5897,490.6159 3.4717,493.5789 4.1267,497.8129 L3.4667,497.2609 C2.7937,498.8699 2.9327,501.5539 2.5597,503.3119 C3.2267,503.8599 3.0907,504.8669 4.0957,504.2829 C2.1037,506.9489 2.5077,509.5779 3.1137,512.1089 C3.7097,514.6459 4.3297,517.0729 2.7707,519.5099 C2.7547,518.9309 2.1557,518.1309 2.1607,518.5929 L2.8427,522.7209 C3.9947,522.3729 3.5347,522.1659 4.4227,521.2879 C5.1147,521.7989 5.6617,522.9459 5.6757,523.9609 C4.8857,522.1329 3.8177,524.0139 3.1897,524.8349 C3.5387,524.6919 3.9397,524.9569 4.2967,524.8799 C2.3197,527.0879 6.6337,525.1739 5.3557,528.1399 L4.7437,528.0069 C5.0937,529.0939 5.9307,530.0679 5.8007,531.2539 C4.4827,531.8059 5.1357,530.1169 4.0337,530.0879 C4.1547,531.7589 6.7197,533.2389 5.4797,534.8099 C5.0647,534.1279 4.9967,533.1139 4.5847,532.4269 C3.1177,534.1479 3.5277,534.3239 3.3527,535.5589 L3.3817,535.4369 L2.8457,538.3159 L3.2257,537.5639 C6.7997,539.3999 4.2107,541.7689 6.7117,544.3599 C4.3217,541.8479 5.4277,544.0259 3.9027,543.9619 C3.5467,544.7189 3.1737,545.8619 2.7227,545.5919 C4.0447,546.7999 2.0147,547.9269 3.9987,549.6099 C3.5257,549.7499 4.1187,551.0389 2.8677,550.8849 C3.4517,552.5759 3.6617,550.3719 4.2857,550.4469 C6.2037,552.8829 3.1257,556.9899 5.9527,560.4729 C7.4677,563.5939 9.2027,563.8949 10.5507,566.7279 C9.9707,567.8939 8.6557,566.2409 8.6557,566.2409 C8.2277,568.0259 8.6867,569.2289 9.5517,570.6489 C9.0677,570.4289 8.7857,570.8249 8.3547,571.4139 C8.7517,572.6299 10.2687,571.8529 9.9247,573.6419 C9.3347,573.4859 8.4077,573.3229 7.7447,572.8419 C8.1257,573.5269 8.6127,574.1799 9.1077,574.8329 C9.6247,575.4829 10.1417,576.1339 10.5477,576.8279 C9.8267,577.4339 9.0637,576.2359 8.3877,575.8339 C9.1967,577.4409 10.2677,580.0369 11.6977,580.2019 L11.8837,579.0019 C12.1057,579.5949 10.8497,579.6149 10.4947,579.2229 C9.1007,578.0409 10.4087,577.0209 10.8627,576.8239 L11.4397,577.8089 C12.6837,576.9069 12.3017,575.8839 11.5547,574.7979 C10.8097,573.7139 9.7787,572.5419 9.6127,571.4459 L11.8387,571.8859 L9.6707,570.0569 C10.0977,569.4719 11.1647,568.9159 11.6987,569.9039 C12.3697,568.1639 10.6787,568.6999 11.5127,567.1559 C11.6557,566.9759 11.7687,567.0219 11.8787,567.1389 C11.8787,567.1389 11.6427,566.7979 11.4267,566.4519 C11.2057,566.1059 10.9857,565.7599 10.9857,565.7599 C11.4677,565.9709 12.3817,565.2309 12.2547,566.2069 C12.9447,563.3079 9.9277,562.1539 11.2937,560.8649 L11.4607,561.0679 C10.1207,557.4469 9.8777,560.9719 7.6667,558.4199 L11.1067,555.9499 L9.5407,555.8039 C9.5377,555.4069 9.5367,554.6239 10.1627,554.6799 C8.9127,553.3829 9.5417,555.0199 8.4397,554.3169 C9.5177,552.2669 7.1627,549.2039 9.5117,548.5019 C8.2787,547.9589 8.8317,550.4009 7.7947,548.4859 C10.3377,547.6259 7.0487,546.2159 8.1127,544.3649 C9.5037,544.7649 8.9337,546.4519 9.9837,544.6219 C7.6197,543.8049 10.1877,541.2449 9.6257,539.8519 C7.7837,539.9279 8.6397,536.7649 7.8947,534.3699 C8.2047,534.4289 8.3837,533.2689 8.5497,531.8129 C8.7447,530.3539 8.9477,528.5959 9.2337,527.4569 L9.5407,527.5129 C7.7007,527.1389 7.9247,524.7889 7.5447,523.0919 C8.6457,523.1369 9.0817,523.4339 9.5857,524.3409 L9.5557,522.7479 C8.9617,522.3829 8.6457,521.8899 8.4217,520.8549 L9.7987,521.2369 C9.6887,519.1249 8.1167,516.9709 9.0697,514.2319 C7.7907,514.0639 5.4907,516.4109 4.6547,513.4809 C5.3477,513.3769 6.5327,513.2809 6.8107,514.0439 C6.7237,513.7939 6.2417,513.1489 6.5407,512.6489 L7.6977,513.8199 C8.2177,512.5739 6.7287,513.1579 6.8447,512.1559 C7.8317,512.1869 7.5537,511.4239 8.3367,511.5779 C8.4297,511.8329 7.9227,512.4439 8.3077,512.8309 C8.4957,511.7059 9.0787,510.3549 9.8447,509.9199 C9.2817,510.0079 8.5157,509.8979 8.4087,509.0699 C8.3907,506.9369 9.6147,508.3659 10.1537,507.1379 C9.4807,506.6069 10.2257,505.2699 8.7507,505.1919 C8.7737,504.5689 9.4647,504.4739 9.8717,504.2469 C9.2317,503.1269 9.8897,499.0979 8.2617,500.2779 L8.1457,500.5569 C8.1177,500.5029 8.1187,500.4399 8.0887,500.3739 L8.0887,500.3829 L8.0887,500.3739 C6.7517,496.6829 9.2777,492.8909 8.8507,489.2709 L9.3427,489.3069 C8.9127,487.1289 9.3307,484.5179 8.3727,482.9099 C8.4167,482.2749 9.3747,481.4779 9.9417,481.7919 C9.6947,480.1279 9.1597,479.8999 10.1557,477.5979 C10.8857,479.3099 10.9607,477.0899 10.6527,479.3329 C11.2437,477.2379 12.0697,476.8239 10.9037,474.4319 C12.0987,475.3119 12.6267,472.9639 12.3387,471.9229 L11.3077,473.3359 C11.2217,472.1839 11.4197,471.1999 11.6137,470.1999 L13.2237,470.8879 C15.6037,466.7309 10.5027,462.7339 14.1777,459.7369 C13.1277,458.4759 13.1407,462.0229 11.8827,460.8649 C12.2917,458.8829 14.8757,457.0239 14.9397,456.3989 C16.1227,453.7469 12.7647,453.6059 13.6767,450.7939 C13.0507,451.1029 11.4397,451.2959 11.0957,449.0929 C11.5127,447.1069 13.8167,446.8709 14.1647,448.1839 C14.1667,448.6699 13.9557,448.8839 13.7587,448.8439 C13.9097,449.5129 14.0787,450.3879 14.7967,449.6569 L14.2317,449.3389 C14.9327,448.4029 15.1427,445.6379 16.0487,446.3819 C15.6347,444.8109 15.1427,445.6379 14.7257,446.7299 C15.8347,444.2429 15.1497,442.7099 15.9867,440.1169 C15.6197,440.5059 14.8877,440.8259 14.9347,440.4069 C16.0517,436.5909 13.9847,438.5839 13.9837,435.9229 C15.0297,434.5129 16.0807,436.6699 15.5847,433.9419 C16.3517,432.3789 17.1847,433.7499 17.6037,434.4419 C16.7027,431.9119 18.7907,429.9899 19.1277,428.6219 L19.4847,429.9449 C19.2727,429.1539 19.3397,428.5279 19.4027,427.8909 L18.1527,428.5099 C18.4297,427.7789 18.4937,427.1439 18.9837,427.2039 C18.2817,426.3589 16.9627,427.6109 16.0477,425.9809 C16.7417,425.0369 15.6897,422.8819 17.2847,422.6769 C16.4667,425.7739 18.8947,422.4739 18.9007,425.1599 C18.7607,424.6279 18.8297,424.0039 19.1037,423.2679 C19.2887,423.1709 19.4187,423.4049 19.4907,423.6189 C21.1587,420.7259 17.8387,422.0709 18.1507,418.9519 C18.9997,419.4259 19.8917,418.3729 19.7477,417.8459 C19.6187,419.1049 18.2197,418.3209 17.6437,417.1089 C18.5077,415.1649 17.3107,414.8879 17.4787,413.8459 L17.0587,415.0169 C16.2067,414.5379 16.4027,413.5469 16.2367,412.1289 C16.9357,412.0649 16.6097,413.4349 16.9527,412.9609 C15.5157,411.2879 18.8587,409.5869 17.9567,407.3359 C18.6287,406.3759 19.6267,407.3619 20.0957,406.5079 C19.1187,403.9919 21.4997,403.9549 20.7257,401.3269 C19.4877,401.9879 19.7757,402.1339 18.7217,400.2579 L19.2757,404.5159 L17.7357,401.7049 C17.6297,402.9679 18.2957,404.4269 18.0387,405.1709 C17.1587,403.8199 17.4447,403.9739 16.4147,404.5099 C18.3237,402.9019 15.6227,401.0149 16.9397,399.0919 L19.8847,399.3349 C21.3797,396.3849 18.7007,393.8809 19.6087,389.9919 L19.0377,391.2309 C17.8897,390.6499 18.9857,388.8009 18.5677,387.5109 C19.5467,387.6679 19.9507,386.8889 20.5757,386.3659 C19.8417,386.4059 20.7307,383.4799 18.7707,383.0639 L20.1237,381.3449 C20.7627,378.1729 17.3767,377.6579 17.7657,374.6259 C18.8267,375.5559 19.5447,374.1739 20.2857,376.2329 C20.3087,375.2109 20.5007,374.2929 19.8177,374.2709 C20.4467,373.6759 18.5237,371.4349 19.4417,370.4979 C19.0047,370.0679 17.9697,369.9299 18.0447,368.7879 C18.2437,368.6619 18.5327,368.7899 18.5327,368.7899 C18.0447,368.7869 17.8567,367.0069 16.7707,368.0129 C18.3057,366.4379 18.2357,364.2389 18.0467,362.1029 C17.8667,359.9629 17.6707,357.8859 18.9127,356.4619 C18.4697,354.2489 18.0407,351.5859 17.8187,349.5799 C18.1227,349.6899 18.3107,349.5549 18.2327,349.9429 C18.9617,347.1009 15.3077,348.4229 16.0977,345.2079 C17.5597,343.4799 17.0917,346.8159 17.6137,345.7679 C20.8157,345.0859 16.8737,341.9939 18.5837,339.7159 L18.8207,340.2139 C19.7687,338.4919 17.2397,336.3609 17.2137,333.6999 C17.2137,333.6999 17.5117,333.8009 17.7027,333.6679 C15.8707,332.0219 14.9887,328.6679 14.2467,326.1899 C15.5957,326.8409 15.0407,327.2679 16.2717,326.6489 C15.9667,325.5329 14.2457,327.2029 13.6407,324.9799 C14.2547,324.1679 14.6787,322.4679 16.0207,322.0989 L16.3317,324.2279 C17.9887,322.9329 15.9617,321.4679 16.1437,320.3079 L16.9337,320.3649 C16.3117,317.1169 14.3537,317.2989 14.0857,313.7729 L13.5427,314.2039 C11.3867,312.5119 14.4417,312.4689 12.7827,310.7249 L14.6767,309.9189 C14.0567,308.7099 12.2647,305.7119 11.6397,303.4869 C13.2397,304.6049 14.2867,307.1679 15.3427,308.7099 C15.2097,307.4539 14.7057,304.4719 13.6647,303.9319 C13.9117,304.4139 14.4647,304.9939 14.2197,305.5269 C12.5047,304.1699 11.5097,302.2329 11.2667,299.7329 C15.1157,299.7529 11.5097,293.1239 14.2947,291.0179 C12.4337,286.7609 14.0527,282.2539 13.4347,277.1859 C10.5907,279.2179 13.2487,275.7039 10.2207,276.2349 C9.9447,275.0529 9.9627,274.5929 10.1527,274.4729 C10.1527,274.4729 10.5457,273.5389 10.9397,272.6049 L11.7507,270.7469 C12.5947,269.8449 12.4837,271.8379 13.1627,271.6879 C13.2607,269.0839 14.3997,270.5259 15.1207,268.7779 C14.0477,269.1849 13.5077,267.9569 13.8497,266.4639 L12.5497,268.6089 C10.7227,265.0469 14.9927,265.3709 13.2507,261.7879 L14.2477,262.9099 C13.9357,261.9859 13.8877,260.2639 13.6027,258.5499 C13.3527,256.8319 12.8817,255.1189 11.6457,254.2029 C11.9967,253.8669 12.8307,253.4249 13.0567,254.2499 C13.2197,252.0089 12.5517,249.5149 12.1027,247.1259 C11.6437,244.7399 11.2767,242.4679 12.1127,240.7379 L12.8467,241.1019 C12.6617,240.2579 11.4977,239.5949 12.2887,238.5669 C12.5957,238.6329 13.0217,238.9319 13.0797,238.5449 C12.8387,238.0929 11.8537,236.2639 12.3307,235.1669 L13.1357,236.1529 C14.2687,231.8189 11.4417,229.3159 11.1167,225.5739 C13.3047,225.7209 14.2737,222.3139 14.7527,220.6189 L15.0587,220.7019 C15.3667,218.1609 15.0927,215.9579 14.6897,213.7819 C14.2877,211.6059 13.7007,209.4579 13.5207,207.0409 C14.8577,205.6809 15.3517,203.2159 15.7437,200.5129 C16.1607,197.8099 16.4717,194.8679 17.3967,192.5809 C16.9207,193.2589 15.7027,192.2689 15.5857,191.4009 C16.1617,190.3419 14.4337,188.1489 16.4177,188.5619 L16.3317,188.9529 C18.3977,188.3469 18.1457,186.0059 18.4097,184.2309 L15.8247,183.6169 C20.2087,179.4259 15.9647,171.2029 19.7157,169.0909 C19.2047,167.8799 19.3977,166.4829 18.8907,165.2789 L20.2867,165.5239 C21.0587,162.4439 21.4387,160.9129 21.6167,156.9999 L22.5147,157.9209 C22.8967,155.7519 18.8337,154.6309 19.0177,152.6079 L21.1927,152.2789 C21.6617,148.4679 24.0117,144.8479 22.5957,140.8299 C22.8947,140.9319 23.4857,141.1219 23.4917,141.7519 C23.7757,139.9619 25.7987,134.9739 22.8377,135.2649 C24.7227,135.4589 23.5107,131.3419 22.9347,129.1779 L24.2787,129.6679 C22.7237,127.7089 22.2487,127.5969 22.0527,125.1069 C22.2987,124.5509 23.2187,124.7319 22.7757,125.4569 C23.7217,123.6179 21.6377,123.8049 22.6417,121.5589 L23.4257,122.5299 C23.7597,120.5619 23.2667,120.6649 22.3607,119.4599 C21.9527,118.1559 23.1337,115.7479 24.4117,115.5869 C23.6757,115.2369 22.7677,114.0429 23.2517,112.9139 C23.7417,112.8059 23.9917,113.2619 24.1117,113.4909 C25.4037,110.2689 23.0247,108.4009 24.5907,106.2499 C25.0547,106.2469 25.2977,106.1189 25.4547,105.9429 C25.1847,108.5839 24.8777,110.6979 24.7977,110.4889 C26.0757,110.6199 26.5237,108.5069 28.1107,110.3839 C27.3377,108.5689 25.4957,105.4309 26.2977,103.4089 C26.4307,103.3189 26.5617,103.2319 26.7657,103.1739 L26.8887,103.4029 C27.0617,102.9329 26.9827,102.4909 26.8047,102.0669 C27.0767,101.4199 27.2747,101.0119 27.3497,100.3739 C28.4267,100.2179 28.1157,97.9609 28.2527,96.8959 C26.8447,96.8709 27.1807,95.4919 25.9207,96.7079 C26.0347,96.5469 26.0717,96.9229 26.0737,97.6369 C26.1017,97.8009 26.1077,97.9909 26.1817,98.1039 C26.1487,98.0799 26.1077,98.0509 26.0647,98.0209 C26.0477,98.7239 26.0117,99.6409 25.9437,100.6789 C25.3067,99.7749 24.7727,98.8469 25.6457,97.7339 C24.7887,97.1119 23.9107,96.4379 23.5037,96.0659 C25.5707,94.7689 26.8607,92.0329 28.0837,91.7229 C27.4927,88.3969 28.0907,83.9769 25.5197,81.7869 C25.2237,80.8439 26.3257,80.7589 26.7557,80.4319 C26.9957,80.9809 26.9257,81.6169 27.2917,81.9269 C26.7007,80.0349 27.2827,76.4049 25.4597,75.8929 C26.3777,73.5869 27.1267,77.2739 26.9177,74.0439 L27.4697,74.4979 C29.0177,71.3699 27.9377,68.7419 26.8947,66.0699 C25.8177,63.3859 24.9137,60.6729 26.7477,57.1429 C26.5257,57.6319 26.4227,57.8769 26.1157,57.9789 C26.8717,53.9669 26.4287,49.8339 25.9267,45.7409 C25.5197,41.6369 24.9897,37.5839 26.0247,33.5119 C26.3207,31.2159 25.1217,31.0819 24.0887,29.8129 L25.5387,29.1689 L23.5627,27.0259 C22.7787,25.4479 23.4617,23.9239 24.0377,22.2759 C24.6007,20.6349 25.0177,18.8709 23.5217,16.9619 L22.5977,17.6549 C22.5527,16.1289 21.1997,13.0359 22.3997,13.0849 C22.1897,12.9629 21.2737,12.7779 21.6947,12.1039 L22.4647,11.9199 C22.4647,11.9199 21.9737,11.0639 21.4827,10.2079 C21.0027,9.3509 20.4767,8.5099 20.4767,8.5099 C20.4457,5.5769 23.6477,8.3559 22.9277,4.1659 C22.3037,2.6709 19.7597,0.2709 19.3667,0.9699 C19.4587,1.5959 19.2177,2.6539 18.4537,2.8699 L17.7607,1.5709 C15.4357,1.8259 12.8987,1.3419 12.0057,5.0079 L13.8837,7.0279 L12.9337,8.0009 L12.4567,6.0699 C11.6487,7.3909 12.7147,7.8929 13.5117,8.5529 C12.9617,8.8569 12.6177,9.2619 12.4937,9.7619 L13.8187,10.6859 C14.4637,11.1579 15.1087,11.6289 15.1087,11.6289 C14.2597,12.0699 13.1547,10.9349 12.9237,12.5559 C14.1247,13.4439 14.7547,11.1569 15.7307,12.8199 C14.8817,14.1289 13.9757,13.9439 15.0917,15.1029 C14.5327,15.3879 14.1087,15.1739 13.7597,14.7009 C14.6687,15.7439 14.5907,17.7269 15.9167,18.1389 C14.8027,19.5049 16.8037,22.0639 14.6087,22.2539 C15.1817,22.5449 16.6067,24.0839 16.8467,25.1559 C15.4027,24.3369 15.5037,25.3519 15.6047,26.5439 C15.6687,27.7449 15.7257,29.1279 14.2937,29.0239 C15.5477,29.6179 15.9487,30.9109 16.2327,32.3589 C16.3737,33.0819 16.4887,33.8449 16.6627,34.5809 C16.8167,35.3209 17.0337,36.0339 17.4107,36.6589 C17.2117,36.5279 16.8097,36.2739 16.9137,36.0339 C16.8257,37.5159 16.1447,37.9959 15.7677,38.9649 C17.7347,39.0069 18.3517,41.2609 19.6507,42.4289 C17.8587,44.3459 17.2927,41.4699 15.5027,42.1519 C17.1087,41.9579 17.2407,45.1779 18.5367,44.4959 C17.4317,45.9369 18.0237,45.7159 16.4347,46.5009 C18.8937,46.6299 16.9087,47.7599 18.4637,48.8419 C17.3377,50.8839 16.2187,49.4339 17.0157,51.5989 C16.2857,52.6599 15.3797,50.7459 15.3797,50.7459" id="Fill-56" fill="#F9BBA2" sketch:type="MSShapeGroup" mask="url(#mask-4)"></path>
                    </g>
                    <path d="M26.0733,97.637 C26.0513,97.532 25.9963,97.471 25.9943,97.336 C25.8603,97.471 25.7433,97.6 25.6463,97.733 C25.7893,97.832 25.9363,97.932 26.0653,98.021 C26.0673,97.891 26.0703,97.757 26.0733,97.637" id="Fill-59" fill="#F9BBA2" sketch:type="MSShapeGroup"></path>
                    <path d="M8.2613,500.2775 L8.2973,500.1855 C8.2393,500.2605 8.1803,500.3295 8.0893,500.3735 C8.1593,500.3135 8.2033,500.3155 8.2613,500.2775" id="Fill-61" fill="#F9BBA2" sketch:type="MSShapeGroup"></path>
                    <path d="M7.0414,168.2893 L7.3944,168.3283 L7.1354,167.9003 L7.0414,168.2893 Z" id="Fill-63" fill="#F9BBA2" sketch:type="MSShapeGroup"></path>
                    <path d="M3.19,524.8352 C3.068,524.8852 2.944,524.9822 2.843,525.1702 C2.934,525.1532 3.057,525.0092 3.19,524.8352" id="Fill-65" fill="#F9BBA2" sketch:type="MSShapeGroup"></path>
                    <path d="M3.3532,535.5594 L2.9462,537.1084 C3.1902,536.4324 3.2962,535.9464 3.3532,535.5594" id="Fill-67" fill="#F9BBA2" sketch:type="MSShapeGroup"></path>
                    <path d="M3.2879,543.8563 C3.5429,543.9383 3.7299,543.9503 3.9029,543.9623 C3.9059,543.9553 3.9049,543.9503 3.9109,543.9443 L3.2879,543.8563 Z" id="Fill-69" fill="#F9BBA2" sketch:type="MSShapeGroup"></path>
                    <path d="M8.0612,413.6351 C8.0622,413.5261 8.0532,413.4171 8.0232,413.3181 C7.8102,412.5641 7.8772,413.0701 8.0612,413.6351" id="Fill-71" fill="#F9BBA2" sketch:type="MSShapeGroup"></path>
                    <path d="M7.6928,452.3249 C7.4788,451.8919 7.2698,451.4649 7.1538,451.0239 C6.9788,451.6979 6.8988,452.2269 7.6928,452.3249" id="Fill-73" fill="#F9BBA2" sketch:type="MSShapeGroup"></path>
                    <path d="M8.3914,371.0081 C8.4004,371.0121 8.4034,371.0081 8.4164,371.0121 C8.4154,370.9221 8.4144,370.8421 8.4144,370.7521 L8.3914,371.0081 Z" id="Fill-75" fill="#F9BBA2" sketch:type="MSShapeGroup"></path>
                    <path d="M7.3547,449.2381 C7.0087,449.8951 7.0117,450.4731 7.1537,451.0241 C7.3027,450.4711 7.5117,449.8251 7.3547,449.2381" id="Fill-77" fill="#F9BBA2" sketch:type="MSShapeGroup"></path>
                    <path d="M8.7833,579.448 L8.8273,579.852 C8.9153,579.822 8.9943,579.826 9.0573,579.841 L8.7833,579.448 Z" id="Fill-79" fill="#F9BBA2" sketch:type="MSShapeGroup"></path>
                    <path d="M9.0572,579.841 L9.3292,580.23 C9.2782,580.032 9.2232,579.863 9.0572,579.841" id="Fill-81" fill="#F9BBA2" sketch:type="MSShapeGroup"></path>
                    <path d="M9.9055,581.0459 L9.3295,580.2299 C9.4075,580.5459 9.4645,580.9459 9.9055,581.0459" id="Fill-83" fill="#F9BBA2" sketch:type="MSShapeGroup"></path>
                    <path d="M6.8933,568.5643 L6.3663,568.5433 C6.4853,568.5893 6.6563,568.5993 6.8933,568.5643" id="Fill-85" fill="#F9BBA2" sketch:type="MSShapeGroup"></path>
                    <path d="M6.1213,565.3082 C6.1583,566.1102 5.3973,567.4902 5.9473,568.5222 L6.3663,568.5432 C5.4863,568.1802 7.1103,565.8872 6.1213,565.3082" id="Fill-87" fill="#F9BBA2" sketch:type="MSShapeGroup"></path>
                    <path d="M10.2302,550.7524 C10.2302,550.7524 10.2082,551.4414 10.1872,552.1314 C10.1562,552.8224 10.1662,553.5084 10.1662,553.5084 C10.6332,552.9634 11.2652,552.2534 11.5762,553.4534 C12.7322,549.8544 10.4402,554.3204 10.2302,550.7524" id="Fill-89" fill="#F9BBA2" sketch:type="MSShapeGroup"></path>
                    <path d="M10.1281,542.2824 C10.5071,543.7134 10.9121,542.1944 11.2251,542.2454 C10.6511,541.3704 10.5071,541.1554 10.1281,542.2824" id="Fill-91" fill="#F9BBA2" sketch:type="MSShapeGroup"></path>
                    <path d="M10.4832,481.2123 L11.7472,481.4543 C11.6522,480.3103 11.2542,481.4063 10.4832,481.2123" id="Fill-93" fill="#F9BBA2" sketch:type="MSShapeGroup"></path>
                    <path d="M4.8519,468.9319 L3.9649,469.9719 L5.0869,470.5999 L4.8519,468.9319 Z" id="Fill-95" fill="#F9BBA2" sketch:type="MSShapeGroup"></path>
                    <path d="M14.5514,462.8214 L14.6884,463.3314 L14.4004,461.4034 L14.5514,462.8214 Z" id="Fill-97" fill="#F9BBA2" sketch:type="MSShapeGroup"></path>
                    <path d="M20.5267,358.8281 L18.9627,359.2321 C19.2667,360.0011 21.0407,360.1101 20.5267,358.8281" id="Fill-99" fill="#F9BBA2" sketch:type="MSShapeGroup"></path>
                    <path d="M15.0123,314.0696 C15.7383,313.4946 16.0963,312.1846 15.2383,311.5046 C15.2463,312.5166 14.7523,313.5846 15.0123,314.0696" id="Fill-101" fill="#F9BBA2" sketch:type="MSShapeGroup"></path>
                    <path d="M18.0757,181.6418 L18.4877,182.5948 L18.2617,180.8668 L18.0757,181.6418 Z" id="Fill-103" fill="#F9BBA2" sketch:type="MSShapeGroup"></path>
                </g>
            </g>
        </g>
    </g>
</svg>