<?xml version="1.0" encoding="utf-8"?>
<!-- Generator: Adobe Illustrator 19.1.0, SVG Export Plug-In . SVG Version: 6.00 Build 0)  -->
<svg version="1.1" id="Calque_1" xmlns:sketch="http://www.bohemiancoding.com/sketch/ns"
	 xmlns="http://www.w3.org/2000/svg" xmlns:xlink="http://www.w3.org/1999/xlink" x="0px" y="0px" viewBox="-242 106.8 58 597"
	 style="enable-background:new -242 106.8 58 597;" xml:space="preserve">
<style type="text/css">
	.st0{fill:#FFFFFF;}
	.st1{fill:#F9BBA2;}
</style>
<g>
	<path id="path-9_1_" class="st0" d="M-184.2,154.6v36.5H-242v-36.5"/>
</g>
<g>
	<path id="path-7_1_" class="st0" d="M-184.2,154.6v36.5H-242v-36.5"/>
</g>
<g>
	<path id="path-5_1_" class="st0" d="M-184.2,154.6v36.5H-242v-36.5H-184.2z"/>
</g>
<g>
	<path id="path-3_1_" class="st0" d="M-184.2,154.6v36.5H-242v-36.5H-184.2z"/>
</g>
<g>
	<path id="path-3" class="st0" d="M-227,109.6h28.3v588.2H-227"/>
</g>
<g>
	<path id="path-1" class="st0" d="M-227,109.6h28.3v588.2H-227V109.6z"/>
</g>
<title>Page 1</title>
<desc>Created with Sketch.</desc>
<g id="Welcome" sketch:type="MSPage">
	<g id="Onclick_Photo" transform="translate(-1293.000000, -218.000000)" sketch:type="MSArtboardGroup">
		<g id="Roadmap" transform="translate(1130.000000, 218.000000)" sketch:type="MSLayerGroup">
			<g id="Page-1" transform="translate(163.000000, 0.000000)">
				<g id="Group-3">
					<g id="Clip-2">
					</g>
					<path id="Fill-1" sketch:type="MSShapeGroup" class="st1" d="M-214.4,697.8c0.5,0.2,1.4-0.3,0.9-1.1l-1.8-0.1L-214.4,697.8z"/>
				</g>
				<path id="Fill-4" sketch:type="MSShapeGroup" class="st1" d="M-213.1,691.3c-1.1-0.7-2.7-1.5-4-0.5c1.8,0.5,1.3,1,3.4,1.5
					c0.4,0.8-0.1,1.6-0.7,1.6c0.5,0.2,0,1.4,1.2,1.5c0.9-1.5,0.5-2.8-0.9-3.9C-213.9,691.1-213.4,691.3-213.1,691.3"/>
				<path id="Fill-6" sketch:type="MSShapeGroup" class="st1" d="M-218.5,608.5l-0.2,0.5C-218.6,608.8-218.5,608.7-218.5,608.5"/>
				<path id="Fill-8" sketch:type="MSShapeGroup" class="st1" d="M-213.5,557c0,0.4,0.1,0.6,0.3,0.6
					C-213.3,557.3-213.4,557-213.5,557"/>
				<path id="Fill-10" sketch:type="MSShapeGroup" class="st1" d="M-210.9,548.4c-0.1,0.2-0.1,0.3-0.2,0.5
					C-210.8,548.7-210.7,548.5-210.9,548.4"/>
				<path id="Fill-12" sketch:type="MSShapeGroup" class="st1" d="M-218.5,608.5l0.6-1.4C-218.4,607-218.3,607.8-218.5,608.5"/>
				<path id="Fill-14" sketch:type="MSShapeGroup" class="st1" d="M-219.8,681c0.1,0.3,0.3,0.5,0.6,0.7c-0.1-0.2-0.2-0.4-0.3-0.7
					C-219.7,681-219.7,681-219.8,681"/>
				<path id="Fill-16" sketch:type="MSShapeGroup" class="st1" d="M-217.5,631.1v0.4c0.2,0.1,0.4,0.2,0.7,0.3L-217.5,631.1z"/>
				<path id="Fill-18" sketch:type="MSShapeGroup" class="st1" d="M-216.4,648.4c0-0.4-1.4-0.4-2-0.5c0.6,0.2,0.9,0.4,1,0.8
					C-217.1,648.6-216.8,648.6-216.4,648.4"/>
				<path id="Fill-20" sketch:type="MSShapeGroup" class="st1" d="M-215.1,675.9l0.3,0.4C-214.9,676.3-215,676.1-215.1,675.9"/>
				<path id="Fill-22" sketch:type="MSShapeGroup" class="st1" d="M-217.2,618.7c0.2,0,0.4-0.1,0.5-0.1
					C-216.8,618.6-217,618.6-217.2,618.7"/>
				<path id="Fill-24" sketch:type="MSShapeGroup" class="st1" d="M-212.6,131.1c0.1,0,0.2,0,0.2,0
					C-212.5,131-212.6,131-212.6,131.1"/>
				<path id="Fill-26" sketch:type="MSShapeGroup" class="st1" d="M-209.4,110.1l0.1,0.3c0.3,0,0.5-0.1,0.8-0.1L-209.4,110.1z"/>
				<path id="Fill-28" sketch:type="MSShapeGroup" class="st1" d="M-207.5,532.4C-207.5,532.4-207.5,532.5-207.5,532.4
					C-207.4,532.9-207.4,532.7-207.5,532.4"/>
				<path id="Fill-30" sketch:type="MSShapeGroup" class="st1" d="M-213.8,383.3c-1.1,1.7-1.8-2.6-3,0
					C-216.3,383-214.5,385.4-213.8,383.3"/>
				<path id="Fill-32" sketch:type="MSShapeGroup" class="st1" d="M-219.8,680.5c-0.1-0.2-0.1-0.5-0.2-0.7
					C-219.9,680.1-219.9,680.3-219.8,680.5"/>
				<path id="Fill-34" sketch:type="MSShapeGroup" class="st1" d="M-216.8,383.3L-216.8,383.3l-0.1,0.3
					C-216.9,383.4-216.9,383.4-216.8,383.3"/>
				<path id="Fill-36" sketch:type="MSShapeGroup" class="st1" d="M-205.8,494.8c-0.2,0.1-0.4,0.2-0.6,0.4
					C-206.3,495.2-206.1,495.1-205.8,494.8"/>
				<path id="Fill-38" sketch:type="MSShapeGroup" class="st1" d="M-209.5,522.6l0.2-0.7C-209.4,522.2-209.5,522.5-209.5,522.6"/>
				<path id="Fill-40" sketch:type="MSShapeGroup" class="st1" d="M-207.5,480.2c0.1-0.4,0.3-0.5,0.1-1c-0.1,0-0.1,0.1-0.2,0.2
					C-207.4,479.5-207.3,479.7-207.5,480.2"/>
				<path id="Fill-42" sketch:type="MSShapeGroup" class="st1" d="M-207.8,465c-0.1,0.1-0.2,0.2-0.3,0.3c0,0.1,0.1,0.3,0.1,0.5
					L-207.8,465z"/>
				<path id="Fill-44" sketch:type="MSShapeGroup" class="st1" d="M-209.4,175.6c0.4-0.3,0.8-0.5,1.3-0.7
					C-209.2,175.2-209.5,173-209.4,175.6"/>
				<path id="Fill-46" sketch:type="MSShapeGroup" class="st1" d="M-219.1,680.8c-0.4,0-0.6-0.1-0.7-0.3c0.1,0.2,0.1,0.3,0.2,0.5
					C-219.4,681-219.2,680.9-219.1,680.8"/>
				<path id="Fill-48" sketch:type="MSShapeGroup" class="st1" d="M-218.6,479.6l0.2-2.3C-218.5,477.9-218.6,478.7-218.6,479.6"/>
				<path id="Fill-50" sketch:type="MSShapeGroup" class="st1" d="M-219.9,282.1l-0.1-0.6C-220.1,281.8-220.1,282-219.9,282.1"/>
				<path id="Fill-52" sketch:type="MSShapeGroup" class="st1" d="M-218.7,470.3c0.5-0.4,0.8-0.9,0.9-1.3c-0.1-0.1-0.2-0.2-0.4-0.3
					L-218.7,470.3z"/>
				<path id="Fill-54" sketch:type="MSShapeGroup" class="st1" d="M-208.2,174.9L-208.2,174.9L-208.2,174.9"/>
				<g id="Group-58">
					<g id="Clip-57">
					</g>
					<path id="Fill-56" sketch:type="MSShapeGroup" class="st1" d="M-199.2,207.9c0.1,0.7-0.2,0.9-0.4,1c0-0.3,0-0.7-0.1-1.3
						c-0.1,0-0.1-0.1-0.2-0.1C-199.6,207.6-199.4,207.7-199.2,207.9 M-209.7,216.4c0.1-0.5,0.2-1.2,0.2-1.9c0.5-0.1,1,0.1,0.9,0.6
						C-208.9,214.8-209.3,215.8-209.7,216.4 M-209.4,212L-209.4,212c0-0.5,0-0.8,0-1.1C-209.4,211.1-209.4,211.4-209.4,212
						 M-211.6,159.5c0,2.2,1.8,1,2.9,1.4c0.6,2.7-1.3,1.3-2.3,2.2c0.5,1.6,2.2,2.9,2.2,4.1c-0.3,0.1-0.4,0.3-0.8,0.1
						c1.5,1.8,0.1,5.2,1.9,7.3c-0.2,0.2-0.3,0.2-0.5,0.3c0.9-0.3,1.9-0.4,2.5-0.3c0,1,1.1,1.9-0.1,2.3c0.1-0.6-0.4-0.7-0.8-1
						l0.5,1.1c-1.8,0.9-0.6-1.5-1.8-1.5c0.5,2.1,1.9,4.5,1.4,6.1c-1.7,0.3-0.5-3.7-2-1.6l0.7-2.4c-2.7,1.8,0.2-1.5-2.7,0.2
						c-0.6,3.2,0.8,3.6,0.2,6.8c0.9,0.8,1.4-0.2,2.3,0.6c1.5,4.6-4.4,3.4-2.3,6.8c1.1,0.9,3.2,1.4,1.9,3.7l-1.9-0.9
						c-0.4,3.1,2.6,2,1.1,5.1c-0.7-0.6-0.5-2.5-0.7-2c-1.7,2,1,1.6,0.9,3.2l-1.7,0.2c0,3.3,1,7.1,0.9,10.8c-0.5-0.2-1-0.9-1.6-0.1
						c0.4,4.7-1.2,9.8-2.7,14.2l1.3,1.9c-0.1,0.4-0.7,0.7-1,0.2c-0.8,1.7,0.9,0.2,1.4,1.1c0,1-1,1.2-1.4,0.5
						c0.9,3.2,1.6,9.1-0.3,12.1l-0.4-0.7c-0.9,2.4,2.6,3.2,1,5.4l-0.2-0.5c-1.3,5.4-0.8,11.6-3.5,15.5c2,1.1-1.7,5.3,1.2,6
						c-1.9,2.9-2.3,2-3.8,6.3c-0.3,1.2,1.6,2,1.7,3.5l-1.5-0.2l1.3,2.2l-2,0.8l0.2,1.4c0.2-0.5,0.8-1.1,1.3-0.9
						c0.4,2.2-1.7,5.1-2.5,5l0.7,5.2c-0.6-0.2-0.7-1.1-1-1.8c1.2,2.9-1.7,0.3-0.5,3c0.4-0.3,0.9,0.3,1.2,0.4
						c-1.1,1.1-1.4,3.9-1.3,6.1l-1-0.5c-0.7,3.7-0.4,8-0.8,12.3c0.6-1.5,2.4-0.9,2.5,0.3l-1.7,0.3c0.9,0.9,0.7-1.2,1.8,0.5
						c-0.3,1.6-1.9,0.9-2.4-0.1l0.4,2c-0.5,0.1-0.7-0.4-1.3-0.6c0.9,0.9-2,3.2-0.3,4.5l-0.5,0.1c-0.4,4.3,0,6.2-0.2,9.7
						c1.4,0.2,1,1.5,2,2.6c-0.3,1.3-0.8,2.6-1.2,4c-0.4,1.4-0.7,2.9-0.8,4.4c0.6,2.2,1.2,0.7,1.9,1.7c-1.3,0.1-1.3,3.2-2.2,1.5
						c0,3.7,0.1,4.8,0.9,9.5c0.5-0.5,0.8-1.1,1.2-0.8c0.2,0.9-0.6,1.9-1.2,1.8l-0.1-0.2c0.9,2.7-0.1,5.7-0.9,8.6
						c-0.8,2.9-1.6,5.7-0.2,7.8l-0.1-0.2l1.5,4.3c-0.2,2-1-1.2-1.7,0.3c1.1,2.3,1.1,4.2,1.1,5.9c-0.1,1.8-0.3,3.4,0.6,5.3
						c-3.6,3.3,1.1,10.6-0.9,14.8l0.9-0.3c1,1-0.4,1.3-0.5,2.1c0.7-0.2,0.7-1.2,1.2-0.6c1.9,8.6,0.7,18.2,0.9,27.1
						c0.1,3.3,4.8,1.3,3.1,5.6l-1.8-1c2.7,6.3,1.4,13.3,3.6,19.5c-0.4-0.3-0.9-0.3-0.9-0.9c-1.1,1.4,0.3,5,1.3,4.9
						c0,1-0.9,0.3-1.3,0.9c-0.6,1.4,1.7,3.3,0.6,4.1c-0.2,0.1-0.4-0.4-0.5-0.6c0.7,0.8,0.1,4.1,1.4,3.2c-0.5,2.4,0.8,4.5,0.1,6.5
						c1.6,1.2-0.6,4.1,1.6,4.4c-2.2-0.1-1.8,4.2-0.7,5.7c-0.7-0.5-0.7,1.3-1.6,0.7c0.1,1.7,0.4,3.3,1.6,3c-2.7,3.1,2.1,6.4-1.4,8.2
						c0.5,2.6,1,5.1,1.3,7.5c0.3,2.4,0.5,4.8,0.7,7.1c-2.2-0.3,0.1-5.1-2.3-5.1c0.7,4.4,2.5,7.1,1.6,11.4c-0.4,1.1-0.9-0.7-1.3-1.1
						c0.6,4.5-0.8,8.5,0.1,12.5c-0.2,0-0.4-0.5-0.5-0.9c0,0.8-0.5,1.8,0.6,1.8l-0.2-0.8c1.6-1.1,2.8,3.3,3.6,3.5
						c-2.8-1.6-1.1,3.8-4.6,1.4c0.1,0.5,0.6,1.2,1.3,1.1c-0.3,0.7-0.7,0.9-1.4,0.1c0.3,2.8,1.5,1.9,1.2,4.4
						c-0.5-0.1-0.6-0.6-1.2-0.9c0.8,1.4,1.7,2.7,1.1,4.8c-0.3-0.2-0.7,0.1-0.6-0.6c-0.2,3.7,2,6.5,0.6,10.4c-2-1.4-0.8,1.3-2.7,1.3
						l0.3,2.2l1-0.8c-0.2,1.9,1,3.7,0.2,5.2l-0.6-1.5v3.6l0.9-1.9c0.8,2,2.4,0,1.6,2.5c-0.1-0.5-0.2,1.9-1.4,2.8l0,0
						c0.5,1,1,2,0.4,3.4c-0.6,0.3-2-0.5-2.4-0.3c1.5,1.1,0,4.5,1.6,5.8c-0.4-0.4-1.3-0.5-1.5-0.4l1.2,0.9c-0.5,0.8-0.7,0.9-1.5,0.7
						c-0.5,2.6,2.4-0.6,1.1,2.4c-0.1-0.3-0.3-0.2-0.4-0.7c-0.8,3.1,0.3,6.1-0.6,9c-1.9,0.7-0.2-2.6-1.9-1.7c0,4.2,1.5,8.8,0.8,12.8
						l0.3-0.7c2.6,0.7-1.5,2.9-0.4,5c-0.2-0.5-1.4-0.7-1.1-0.6c-0.6,2.7,0.3,5.7,1,9.9l-0.7-0.6c-0.7,1.6-0.5,4.3-0.9,6.1
						c0.7,0.5,0.5,1.6,1.5,1c-2,2.7-1.6,5.3-1,7.8s1.2,5-0.3,7.4c0-0.6-0.6-1.4-0.6-0.9l0.7,4.1c1.2-0.3,0.7-0.6,1.6-1.4
						c0.7,0.5,1.2,1.7,1.3,2.7c-0.8-1.8-1.9,0.1-2.5,0.9c0.3-0.1,0.8,0.1,1.1,0c-2,2.2,2.3,0.3,1.1,3.3l-0.6-0.1
						c0.3,1.1,1.2,2.1,1.1,3.2c-1.3,0.6-0.7-1.1-1.8-1.2c0.1,1.7,2.7,3.2,1.4,4.7c-0.4-0.7-0.5-1.7-0.9-2.4
						c-1.5,1.7-1.1,1.9-1.2,3.1v-0.1l-0.5,2.9l0.4-0.8c3.6,1.8,1,4.2,3.5,6.8c-2.4-2.5-1.3-0.3-2.8-0.4c-0.4,0.8-0.7,1.9-1.2,1.6
						c1.3,1.2-0.7,2.3,1.3,4c-0.5,0.1,0.1,1.4-1.1,1.3c0.6,1.7,0.8-0.5,1.4-0.4c1.9,2.4-1.2,6.5,1.7,10c1.5,3.1,3.2,3.4,4.6,6.3
						c-0.6,1.2-1.9-0.5-1.9-0.5c-0.4,1.8,0,3,0.9,4.4c-0.5-0.2-0.8,0.2-1.2,0.8c0.4,1.2,1.9,0.4,1.6,2.2c-0.6-0.2-1.5-0.3-2.2-0.8
						c0.4,0.7,0.9,1.3,1.4,2s1,1.3,1.4,2c-0.7,0.6-1.5-0.6-2.2-1c0.8,1.6,1.9,4.2,3.3,4.4l0.2-1.2c0.2,0.6-1,0.6-1.4,0.2
						c-1.4-1.2-0.1-2.2,0.4-2.4l0.6,1c1.2-0.9,0.9-1.9,0.1-3c-0.7-1.1-1.8-2.3-1.9-3.4l2.2,0.4l-2.2-1.8c0.4-0.6,1.5-1.1,2-0.2
						c0.7-1.7-1-1.2-0.2-2.7c0.1-0.2,0.3-0.1,0.4,0c0,0-0.2-0.3-0.5-0.7c-0.2-0.3-0.4-0.7-0.4-0.7c0.5,0.2,1.4-0.5,1.3,0.4
						c0.7-2.9-2.3-4.1-1-5.3l0.2,0.2c-1.3-3.6-1.6-0.1-3.8-2.6l3.4-2.5l-1.6-0.1c0-0.4,0-1.2,0.6-1.1c-1.2-1.3-0.6,0.3-1.7-0.4
						c1.1-2-1.3-5.1,1.1-5.8c-1.2-0.5-0.7,1.9-1.7,0c2.5-0.9-0.7-2.3,0.3-4.1c1.4,0.4,0.8,2.1,1.9,0.3c-2.4-0.8,0.2-3.4-0.4-4.8
						c-1.8,0.1-1-3.1-1.7-5.5c0.3,0.1,0.5-1.1,0.7-2.6s0.4-3.2,0.7-4.4l0.3,0.1c-1.8-0.4-1.6-2.7-2-4.4c1.1,0,1.5,0.3,2,1.2v-1.6
						c-0.6-0.4-0.9-0.9-1.1-1.9l1.4,0.4c-0.1-2.1-1.7-4.3-0.7-7c-1.3-0.2-3.6,2.2-4.4-0.8c0.7-0.1,1.9-0.2,2.2,0.6
						c-0.1-0.2-0.6-0.9-0.3-1.4l1.2,1.2c0.5-1.2-1-0.7-0.9-1.7c1,0,0.7-0.7,1.5-0.6c0.1,0.3-0.4,0.9,0,1.3c0.2-1.1,0.8-2.5,1.5-2.9
						c-0.6,0.1-1.3,0-1.4-0.8c0-2.1,1.2-0.7,1.7-1.9c-0.7-0.5,0.1-1.9-1.4-1.9c0-0.6,0.7-0.7,1.1-0.9c-0.6-1.1,0-5.1-1.6-4l-0.1,0.3
						c0-0.1,0-0.1-0.1-0.2l0,0l0,0c-1.3-3.7,1.2-7.5,0.8-11.1h0.5c-0.4-2.2,0-4.8-1-6.4c0-0.6,1-1.4,1.6-1.1
						c-0.2-1.7-0.8-1.9,0.2-4.2c0.7,1.7,0.8-0.5,0.5,1.7c0.6-2.1,1.4-2.5,0.3-4.9c1.2,0.9,1.7-1.5,1.4-2.5l-1,1.4
						c-0.1-1.2,0.1-2.1,0.3-3.1l1.6,0.7c2.4-4.2-2.7-8.2,1-11.2c-1.1-1.3-1,2.3-2.3,1.1c0.4-2,3-3.8,3.1-4.5
						c1.2-2.7-2.2-2.8-1.3-5.6c-0.6,0.3-2.2,0.5-2.6-1.7c0.4-2,2.7-2.2,3.1-0.9c0,0.5-0.2,0.7-0.4,0.7c0.2,0.7,0.3,1.5,1,0.8
						l-0.6-0.3c0.7-0.9,0.9-3.7,1.8-3c-0.4-1.6-0.9-0.7-1.3,0.3c1.1-2.5,0.4-4,1.3-6.6c-0.4,0.4-1.1,0.7-1.1,0.3
						c1.1-3.8-0.9-1.8-1-4.5c1-1.4,2.1,0.7,1.6-2c0.8-1.6,1.6-0.2,2,0.5c-0.9-2.5,1.2-4.5,1.5-5.8l0.4,1.3c-0.2-0.8-0.1-1.4-0.1-2.1
						l-1.2,0.6c0.3-0.7,0.3-1.4,0.8-1.3c-0.7-0.8-2,0.4-2.9-1.2c0.7-0.9-0.4-3.1,1.2-3.3c-0.8,3.1,1.6-0.2,1.6,2.5
						c-0.1-0.5-0.1-1.2,0.2-1.9c0.2-0.1,0.3,0.1,0.4,0.4c1.7-2.9-1.7-1.5-1.3-4.7c0.8,0.5,1.7-0.6,1.6-1.1c-0.1,1.3-1.5,0.5-2.1-0.7
						c0.9-1.9-0.3-2.2-0.2-3.3l-0.4,1.2c-0.9-0.5-0.7-1.5-0.8-2.9c0.7-0.1,0.4,1.3,0.7,0.8c-1.4-1.7,1.9-3.4,1-5.6
						c0.7-1,1.7,0,2.1-0.8c-1-2.5,1.4-2.6,0.6-5.2c-1.2,0.7-1,0.8-2-1.1l0.6,4.3l-1.5-2.8c-0.1,1.3,0.6,2.7,0.3,3.5
						c-0.9-1.4-0.6-1.2-1.6-0.7c1.9-1.6-0.8-3.5,0.5-5.4l2.9,0.2c1.5-3-1.2-5.5-0.3-9.3l-0.6,1.2c-1.1-0.6-0.1-2.4-0.5-3.7
						c1,0.2,1.4-0.6,2-1.1c-0.7,0,0.2-2.9-1.8-3.3l1.4-1.7c0.6-3.2-2.7-3.7-2.4-6.7c1.1,0.9,1.8-0.5,2.5,1.6c0-1,0.2-1.9-0.5-2
						c0.6-0.6-1.3-2.8-0.4-3.8c-0.4-0.4-1.5-0.6-1.4-1.7c0.2-0.1,0.5,0,0.5,0c-0.5,0-0.7-1.8-1.8-0.8c1.5-1.6,1.5-3.8,1.3-5.9
						c-0.2-2.1-0.4-4.2,0.9-5.6c-0.4-2.2-0.9-4.9-1.1-6.9c0.3,0.1,0.5,0,0.4,0.4c0.7-2.8-2.9-1.5-2.1-4.7c1.5-1.7,1,1.6,1.5,0.6
						c3.2-0.7-0.7-3.8,1-6.1l0.2,0.5c0.9-1.7-1.6-3.9-1.6-6.5c0,0,0.3,0.1,0.5,0c-1.8-1.6-2.7-5-3.5-7.5c1.3,0.7,0.8,1.1,2,0.5
						c-0.3-1.1-2,0.6-2.6-1.7c0.6-0.8,1-2.5,2.4-2.9l0.3,2.1c1.7-1.3-0.4-2.8-0.2-3.9l0.8,0.1c-0.6-3.2-2.6-3.1-2.8-6.6l-0.5,0.4
						c-2.2-1.7,0.9-1.7-0.8-3.5l1.9-0.8c-0.6-1.2-2.4-4.2-3-6.4c1.6,1.1,2.6,3.7,3.7,5.2c-0.1-1.3-0.6-4.2-1.7-4.8
						c0.2,0.5,0.8,1.1,0.6,1.6c-1.7-1.4-2.7-3.3-3-5.8c3.8,0,0.2-6.6,3-8.7c-1.9-4.3-0.2-8.8-0.9-13.8c-2.8,2-0.2-1.5-3.2-1
						c-0.3-1.2-0.3-1.6-0.1-1.8c0,0,0.4-0.9,0.8-1.9l0.8-1.9c0.8-0.9,0.7,1.1,1.4,0.9c0.1-2.6,1.2-1.2,2-2.9
						c-1.1,0.4-1.6-0.8-1.3-2.3l-1.3,2.1c-1.8-3.6,2.4-3.2,0.7-6.8l1,1.1c-0.3-0.9-0.4-2.6-0.6-4.4c-0.2-1.7-0.7-3.4-2-4.3
						c0.4-0.3,1.2-0.8,1.4,0c0.2-2.2-0.5-4.7-1-7.1c-0.5-2.4-0.8-4.7,0-6.4l0.7,0.4c-0.2-0.8-1.3-1.5-0.6-2.5c0.3,0.1,0.7,0.4,0.8,0
						c-0.2-0.5-1.2-2.3-0.7-3.4l0.8,1c1.1-4.3-1.7-6.8-2-10.6c2.2,0.1,3.2-3.3,3.6-5l0.3,0.1c0.3-2.5,0-4.7-0.4-6.9
						c-0.4-2.2-1-4.3-1.2-6.7c1.3-1.4,1.8-3.8,2.2-6.5c0.4-2.7,0.7-5.6,1.7-7.9c-0.5,0.7-1.7-0.3-1.8-1.2c0.6-1.1-1.2-3.3,0.8-2.8
						l-0.1,0.4c2.1-0.6,1.8-2.9,2.1-4.7l-2.6-0.6c4.4-4.2,0.1-12.4,3.9-14.5c-0.5-1.2-0.3-2.6-0.8-3.8l1.4,0.2
						c0.8-3.1,1.2-4.6,1.3-8.5l0.9,0.9c0.4-2.2-3.7-3.3-3.5-5.3l2.2-0.3c0.5-3.8,2.8-7.4,1.4-11.4c0.3,0.1,0.9,0.3,0.9,0.9
						c0.3-1.8,2.3-6.8-0.7-6.5c1.9,0.2,0.7-3.9,0.1-6.1l1.3,0.5c-1.6-2-2-2.1-2.2-4.6c0.2-0.6,1.2-0.4,0.7,0.3
						c0.9-1.8-1.1-1.7-0.1-3.9l0.8,1c0.3-2-0.2-1.9-1.1-3.1c-0.4-1.3,0.8-3.7,2.1-3.9c-0.7-0.4-1.6-1.5-1.2-2.7
						c0.5-0.1,0.7,0.3,0.9,0.6c1.3-3.2-1.1-5.1,0.5-7.2c0.5,0,0.7-0.1,0.9-0.3c-0.3,2.6-0.6,4.8-0.7,4.5c1.3,0.1,1.7-2,3.3-0.1
						c-0.8-1.8-2.6-5-1.8-7c0.1-0.1,0.3-0.2,0.5-0.2l0.1,0.2c0.2-0.5,0.1-0.9-0.1-1.3c0.3-0.6,0.5-1.1,0.5-1.7
						c1.1-0.2,0.8-2.4,0.9-3.5c-1.4,0-1.1-1.4-2.3-0.2c0.1-0.2,0.2,0.2,0.2,0.9c0,0.2,0,0.4,0.1,0.5l-0.1-0.1c0,0.7-0.1,1.6-0.1,2.7
						c-0.6-0.9-1.2-1.8-0.3-2.9c-0.9-0.6-1.7-1.3-2.1-1.7c2.1-1.3,3.4-4,4.6-4.3c-0.6-3.3,0-7.7-2.6-9.9c-0.3-0.9,0.8-1,1.2-1.4
						c0.2,0.5,0.2,1.2,0.5,1.5c-0.6-1.9,0-5.5-1.8-6c0.9-2.3,1.7,1.4,1.5-1.8l0.6,0.5c1.5-3.1,0.5-5.8-0.6-8.4
						c-1.1-2.7-2-5.4-0.1-8.9c-0.2,0.5-0.3,0.7-0.6,0.8c0.8-4,0.3-8.1-0.2-12.2c-0.4-4.1-0.9-8.2,0.1-12.2c0.3-2.3-0.9-2.4-1.9-3.7
						l1.5-0.6l-2-2.1c-0.8-1.6-0.1-3.1,0.5-4.8c0.6-1.6,1-3.4-0.5-5.3l-0.9,0.7c0-1.5-1.4-4.6-0.2-4.6c-0.2-0.1-1.1-0.3-0.7-1
						l0.8-0.2c0,0-0.5-0.9-1-1.7c-0.5-0.9-1-1.7-1-1.7c0-2.9,3.2-0.2,2.5-4.3c-0.6-1.5-3.2-3.9-3.6-3.2c0.1,0.6-0.1,1.7-0.9,1.9
						l-0.7-1.3c-2.3,0.3-4.9-0.2-5.8,3.4l1.9,2l-1,1l-0.5-1.9c-0.8,1.3,0.3,1.8,1.1,2.5c-0.5,0.3-0.9,0.7-1,1.2l1.3,0.9
						c0.6,0.5,1.3,0.9,1.3,0.9c-0.8,0.4-2-0.7-2.2,0.9c1.2,0.9,1.8-1.4,2.8,0.3c-0.8,1.3-1.8,1.1-0.6,2.3c-0.6,0.3-1,0.1-1.3-0.4
						c0.9,1,0.8,3,2.2,3.4c-1.1,1.4,0.9,3.9-1.3,4.1c0.6,0.3,2,1.8,2.2,2.9c-1.4-0.8-1.3,0.2-1.2,1.4c0.1,1.2,0.1,2.6-1.3,2.5
						c1.3,0.6,1.7,1.9,1.9,3.3c0.1,0.7,0.3,1.5,0.4,2.2c0.2,0.7,0.4,1.5,0.7,2.1c-0.2-0.1-0.6-0.4-0.5-0.6c-0.1,1.5-0.8,2-1.1,2.9
						c2,0,2.6,2.3,3.9,3.5c-1.8,1.9-2.4-1-4.1-0.3c1.6-0.2,1.7,3,3,2.3c-1.1,1.4-0.5,1.2-2.1,2c2.5,0.1,0.5,1.3,2,2.3
						c-1.1,2-2.2,0.6-1.4,2.8C-210.7,161.5-211.6,159.5-211.6,159.5"/>
				</g>
				<path id="Fill-59" sketch:type="MSShapeGroup" class="st1" d="M-200.9,206.4c0-0.1-0.1-0.2-0.1-0.3c-0.1,0.1-0.3,0.3-0.3,0.4
					c0.1,0.1,0.3,0.2,0.4,0.3C-200.9,206.7-200.9,206.6-200.9,206.4"/>
				<path id="Fill-61" sketch:type="MSShapeGroup" class="st1" d="M-218.7,609.1L-218.7,609.1c0,0-0.1,0.1-0.2,0.1
					C-218.8,609.1-218.8,609.1-218.7,609.1"/>
				<path id="Fill-63" sketch:type="MSShapeGroup" class="st1" d="M-220,277.1h0.4l-0.3-0.4L-220,277.1z"/>
				<path id="Fill-65" sketch:type="MSShapeGroup" class="st1" d="M-223.8,633.6c-0.1,0-0.2,0.1-0.3,0.3
					C-224.1,634-223.9,633.8-223.8,633.6"/>
				<path id="Fill-67" sketch:type="MSShapeGroup" class="st1" d="M-223.6,644.4l-0.4,1.5C-223.8,645.2-223.7,644.7-223.6,644.4"/>
				<path id="Fill-69" sketch:type="MSShapeGroup" class="st1" d="M-223.7,652.7c0.3,0.1,0.4,0.1,0.6,0.1l0,0L-223.7,652.7z"/>
				<path id="Fill-71" sketch:type="MSShapeGroup" class="st1" d="M-218.9,522.4c0-0.1,0-0.2,0-0.3
					C-219.2,521.4-219.1,521.9-218.9,522.4"/>
				<path id="Fill-73" sketch:type="MSShapeGroup" class="st1" d="M-219.3,561.1c-0.2-0.4-0.4-0.9-0.5-1.3
					C-220,560.5-220.1,561-219.3,561.1"/>
				<path id="Fill-75" sketch:type="MSShapeGroup" class="st1" d="M-218.6,479.8L-218.6,479.8c0-0.1,0-0.2,0-0.3V479.8z"/>
				<path id="Fill-77" sketch:type="MSShapeGroup" class="st1" d="M-219.6,558c-0.3,0.7-0.3,1.2-0.2,1.8
					C-219.7,559.3-219.5,558.6-219.6,558"/>
				<path id="Fill-79" sketch:type="MSShapeGroup" class="st1" d="M-218.2,688.2v0.4c0.1,0,0.2,0,0.2,0L-218.2,688.2z"/>
				<path id="Fill-81" sketch:type="MSShapeGroup" class="st1" d="M-217.9,688.6l0.3,0.4C-217.7,688.8-217.8,688.7-217.9,688.6"/>
				<path id="Fill-83" sketch:type="MSShapeGroup" class="st1" d="M-217.1,689.8l-0.6-0.8C-217.6,689.3-217.5,689.7-217.1,689.8"/>
				<path id="Fill-85" sketch:type="MSShapeGroup" class="st1" d="M-220.1,677.4h-0.5C-220.5,677.4-220.3,677.4-220.1,677.4"/>
				<path id="Fill-87" sketch:type="MSShapeGroup" class="st1" d="M-220.9,674.1c0,0.8-0.7,2.2-0.2,3.2h0.4
					C-221.5,677-219.9,674.7-220.9,674.1"/>
				<path id="Fill-89" sketch:type="MSShapeGroup" class="st1" d="M-216.8,659.6c0,0,0,0.7,0,1.4s0,1.4,0,1.4
					c0.5-0.5,1.1-1.3,1.4-0.1C-214.3,658.7-216.6,663.1-216.8,659.6"/>
				<path id="Fill-91" sketch:type="MSShapeGroup" class="st1" d="M-216.9,651.1c0.4,1.4,0.8-0.1,1.1,0
					C-216.3,650.2-216.5,650-216.9,651.1"/>
				<path id="Fill-93" sketch:type="MSShapeGroup" class="st1" d="M-216.5,590l1.3,0.2C-215.3,589.1-215.7,590.2-216.5,590"/>
				<path id="Fill-95" sketch:type="MSShapeGroup" class="st1" d="M-222.1,577.7l-0.9,1l1.1,0.6L-222.1,577.7z"/>
				<path id="Fill-97" sketch:type="MSShapeGroup" class="st1" d="M-212.4,571.6l0.1,0.5l-0.3-1.9L-212.4,571.6z"/>
				<path id="Fill-99" sketch:type="MSShapeGroup" class="st1" d="M-206.5,467.6l-1.6,0.4C-207.7,468.8-206,468.9-206.5,467.6"/>
				<path id="Fill-101" sketch:type="MSShapeGroup" class="st1" d="M-212,422.9c0.7-0.6,1.1-1.9,0.2-2.6
					C-211.8,421.3-212.2,422.4-212,422.9"/>
				<path id="Fill-103" sketch:type="MSShapeGroup" class="st1" d="M-208.9,290.4l0.4,1l-0.2-1.7L-208.9,290.4z"/>
			</g>
		</g>
	</g>
</g>
</svg>
